# Blender 4.5.0
# www.blender.org
mtllib Binder.mtl
o Binder
v 0.110034 -0.000046 0.124467
v 0.100646 -0.000046 0.077272
v -0.157762 0.090664 0.136551
v 0.091258 -0.000046 0.079139
v 0.112835 -0.000046 0.122595
v -0.157762 0.090664 -0.125213
v 0.100646 -0.000046 0.126334
v -0.083160 -0.000046 0.124467
v 0.157762 0.090664 0.136551
v 0.089011 -0.000046 0.122965
v 0.089005 -0.000046 0.080644
v 0.157762 0.090664 -0.125213
v 0.083300 -0.000046 0.084457
v 0.091258 -0.000046 0.124467
v -0.069884 -0.000046 0.111191
v -0.157762 0.111874 0.157762
v -0.075202 -0.000046 0.084457
v -0.157762 0.111874 -0.125213
v -0.069884 -0.000046 0.092415
v -0.083160 -0.000046 0.079139
v 0.157762 0.111874 -0.125213
v 0.082288 -0.000046 0.085971
v -0.089005 -0.000046 0.077976
v 0.157762 0.111874 0.157762
v -0.146736 0.090664 -0.114187
v -0.092548 -0.000046 0.077272
v -0.068017 -0.000046 0.101803
v 0.146736 0.090664 -0.114187
v -0.101936 -0.000046 0.079139
v -0.074190 -0.000046 0.085971
v -0.075202 -0.000046 0.119149
v -0.109894 -0.000046 0.084457
v -0.142168 0.090664 0.136551
v 0.077982 -0.000046 0.092415
v -0.092548 -0.000046 0.126334
v 0.142168 0.090664 0.136551
v 0.083300 -0.000046 0.119149
v -0.089011 -0.000046 0.125631
v 0.088293 -0.000046 0.122485
v -0.101936 -0.000046 0.124467
v -0.088970 0.111874 -0.125213
v 0.088970 0.111874 -0.125213
v 0.077982 -0.000046 0.111191
v 0.076115 -0.000046 0.101803
v 0.062083 0.084942 0.157762
v -0.062083 0.084942 0.157762
v -0.080195 -0.000046 0.122485
v 0.123310 -0.000046 0.092415
v -0.088876 0.090664 -0.125213
v 0.088876 0.090664 -0.125213
v 0.124520 -0.000046 0.098499
v 0.125177 -0.000046 0.101803
v -0.081357 0.090664 -0.114187
v 0.081357 0.090664 -0.114187
v 0.142448 0.090664 0.122485
v 0.143097 0.090664 0.085972
v 0.119004 -0.000046 0.085971
v 0.123310 -0.000046 0.111191
v -0.143097 0.090664 0.085972
v -0.142448 0.090664 0.122485
v 0.123967 -0.000046 0.107886
v 0.112999 -0.000046 0.122485
v 0.157762 0.090664 0.085972
v 0.157762 0.090664 0.122485
v 0.117992 -0.000046 0.119149
v -0.109894 -0.000046 0.119149
v -0.157762 0.090664 0.122485
v -0.157762 0.090664 0.085972
v -0.104901 -0.000046 0.122485
v -0.115212 -0.000046 0.111191
v 0.157762 0.111874 0.122485
v 0.157762 0.111874 0.085972
v -0.115212 -0.000046 0.092415
v -0.110906 -0.000046 0.085971
v -0.157762 0.111874 0.122485
v -0.157762 0.111874 0.085972
v -0.117079 -0.000046 0.101803
v -0.089015 -0.000046 0.157762
v 0.089015 -0.000046 0.157762
v -0.157762 -0.000046 0.085972
v -0.157762 -0.000046 0.122485
v 0.089015 0.111874 0.157762
v 0.157762 -0.000046 0.085972
v 0.157762 -0.000046 0.122485
v -0.089015 0.111874 0.157762
v -0.117079 0.111874 0.101803
v -0.110906 0.111874 0.085971
v -0.115212 0.111874 0.092415
v -0.115212 0.111874 0.111191
v -0.104901 0.111874 0.122485
v -0.109894 0.111874 0.119149
v 0.117992 0.111874 0.119149
v 0.112999 0.111874 0.122485
v 0.123967 0.111874 0.107886
v 0.123310 0.111874 0.111191
v 0.119004 0.111874 0.085971
v 0.125177 0.111874 0.101803
v 0.124520 0.111874 0.098499
v 0.123310 0.111874 0.092415
v -0.080195 0.111874 0.122485
v 0.076115 0.111874 0.101803
v 0.077982 0.111874 0.111191
v 0.088293 0.111874 0.122485
v 0.083300 0.111874 0.119149
v 0.077982 0.111874 0.092415
v -0.075202 0.111874 0.119149
v -0.074190 0.111874 0.085971
v -0.068017 0.111874 0.101803
v 0.082288 0.111874 0.085971
v -0.069884 0.111874 0.092415
v -0.069884 0.111874 0.111191
v -0.157762 0.021165 0.085972
v -0.157762 0.021165 0.122485
v 0.157762 0.021165 0.122485
v 0.157762 0.021165 0.085972
v -0.142448 0.021165 0.122485
v 0.091258 0.111874 0.124467
v 0.089011 0.111874 0.122965
v 0.100646 0.111874 0.126334
v 0.112835 0.111874 0.122595
v 0.110034 0.111874 0.124467
v -0.101936 0.111874 0.124467
v -0.089011 0.111874 0.125631
v -0.092548 0.111874 0.126334
v -0.109894 0.111874 0.084457
v -0.101936 0.111874 0.079139
v -0.092548 0.111874 0.077272
v -0.089005 0.111874 0.077976
v -0.083160 0.111874 0.079139
v -0.075202 0.111874 0.084457
v 0.083300 0.111874 0.084457
v 0.089005 0.111874 0.080644
v -0.083160 0.111874 0.124467
v -0.143097 0.021165 0.085972
v 0.143097 0.021165 0.085972
v 0.142448 0.021165 0.122485
v 0.091258 0.111874 0.079139
v 0.100646 0.111874 0.077272
v 0.117992 0.111874 0.084457
v 0.110034 0.111874 0.079139
v 0.081357 0.021165 -0.114187
v -0.081357 0.021165 -0.114187
v 0.088876 0.021165 -0.125213
v -0.088876 0.021165 -0.125213
v -0.062083 0.026886 0.157762
v 0.062083 0.026886 0.157762
v 0.088970 -0.000046 -0.125213
v -0.088970 -0.000046 -0.125213
v 0.142168 0.021165 0.136551
v -0.142168 0.021165 0.136551
v 0.146736 0.021165 -0.114187
v -0.146736 0.021165 -0.114187
v 0.157762 -0.000046 0.157762
v 0.157762 -0.000046 -0.125213
v -0.157762 -0.000046 -0.125213
v -0.157762 -0.000046 0.157762
v 0.157762 0.021165 -0.125213
v 0.157762 0.021165 0.136551
v -0.157762 0.021165 -0.125213
v -0.157762 0.021165 0.136551
v 0.117992 -0.000046 0.084457
v 0.110034 -0.000046 0.079139
v -0.062083 0.084942 0.162164
v 0.062083 0.084942 0.162164
v -0.062083 0.026886 0.162164
v 0.062083 0.026886 0.162164
v -0.093495 -0.019323 0.149842
v -0.085192 -0.015003 0.149842
v -0.081752 -0.004573 0.149842
v -0.085192 0.005857 0.149842
v -0.093495 0.010178 0.149842
v -0.101798 0.005857 0.149842
v -0.105237 -0.004573 0.149842
v -0.101798 -0.015003 0.149842
v -0.093495 0.004148 0.109137
v -0.085192 0.007203 0.111332
v -0.081752 0.014578 0.116630
v -0.085192 0.021953 0.121928
v -0.093495 0.025008 0.124122
v -0.101798 0.021953 0.121928
v -0.105237 0.014578 0.116630
v -0.101798 0.007203 0.111332
v -0.093495 0.060812 0.092276
v -0.085192 0.060812 0.095380
v -0.081752 0.060812 0.102872
v -0.085192 0.060812 0.110365
v -0.093495 0.060812 0.113469
v -0.101798 0.060812 0.110365
v -0.105237 0.060812 0.102872
v -0.101798 0.060812 0.095380
v -0.093495 0.117476 0.109137
v -0.085192 0.114421 0.111332
v -0.081752 0.107046 0.116630
v -0.085192 0.099671 0.121928
v -0.093495 0.096616 0.124122
v -0.101798 0.099671 0.121928
v -0.105237 0.107046 0.116630
v -0.101798 0.114421 0.111332
v -0.093495 0.140947 0.149842
v -0.085191 0.136627 0.149842
v -0.081752 0.126197 0.149842
v -0.085191 0.115767 0.149842
v -0.093495 0.111446 0.149842
v -0.101798 0.115767 0.149842
v -0.105237 0.126197 0.149842
v -0.101798 0.136627 0.149842
v -0.093495 0.117476 0.190548
v -0.085192 0.114421 0.188353
v -0.081752 0.107046 0.183055
v -0.085192 0.099671 0.177757
v -0.093495 0.096616 0.175563
v -0.101798 0.099671 0.177757
v -0.105237 0.107046 0.183055
v -0.101798 0.114421 0.188353
v -0.093495 0.060812 0.207408
v -0.085192 0.060812 0.204305
v -0.081752 0.060812 0.196812
v -0.085192 0.060812 0.189320
v -0.093495 0.060812 0.186216
v -0.101798 0.060812 0.189320
v -0.105237 0.060812 0.196812
v -0.101798 0.060812 0.204305
v -0.093495 0.004148 0.190548
v -0.085192 0.007203 0.188353
v -0.081752 0.014578 0.183055
v -0.085192 0.021953 0.177757
v -0.093495 0.025008 0.175563
v -0.101798 0.021953 0.177757
v -0.105237 0.014578 0.183055
v -0.101798 0.007203 0.188353
v 0.100877 -0.019323 0.149842
v 0.109181 -0.015003 0.149842
v 0.112620 -0.004573 0.149842
v 0.109181 0.005857 0.149842
v 0.100877 0.010178 0.149842
v 0.092574 0.005857 0.149842
v 0.089135 -0.004573 0.149842
v 0.092574 -0.015003 0.149842
v 0.100877 0.004148 0.109137
v 0.109181 0.007203 0.111332
v 0.112620 0.014578 0.116630
v 0.109181 0.021953 0.121928
v 0.100877 0.025008 0.124122
v 0.092574 0.021953 0.121928
v 0.089135 0.014578 0.116630
v 0.092574 0.007203 0.111332
v 0.100877 0.060812 0.092276
v 0.109181 0.060812 0.095380
v 0.112620 0.060812 0.102872
v 0.109181 0.060812 0.110365
v 0.100877 0.060812 0.113469
v 0.092574 0.060812 0.110365
v 0.089135 0.060812 0.102872
v 0.092574 0.060812 0.095380
v 0.100877 0.117476 0.109137
v 0.109181 0.114421 0.111332
v 0.112620 0.107046 0.116630
v 0.109181 0.099671 0.121928
v 0.100877 0.096616 0.124122
v 0.092574 0.099671 0.121928
v 0.089135 0.107046 0.116630
v 0.092574 0.114421 0.111332
v 0.100877 0.140947 0.149842
v 0.109181 0.136627 0.149842
v 0.112620 0.126197 0.149842
v 0.109181 0.115767 0.149842
v 0.100877 0.111446 0.149842
v 0.092574 0.115767 0.149842
v 0.089135 0.126197 0.149842
v 0.092574 0.136627 0.149842
v 0.100877 0.117476 0.190548
v 0.109181 0.114421 0.188353
v 0.112620 0.107046 0.183055
v 0.109181 0.099671 0.177757
v 0.100877 0.096616 0.175563
v 0.092574 0.099671 0.177757
v 0.089135 0.107046 0.183055
v 0.092574 0.114421 0.188353
v 0.100877 0.060812 0.207408
v 0.109181 0.060812 0.204305
v 0.112620 0.060812 0.196812
v 0.109181 0.060812 0.189320
v 0.100877 0.060812 0.186216
v 0.092574 0.060812 0.189320
v 0.089135 0.060812 0.196812
v 0.092574 0.060812 0.204305
v 0.100877 0.004148 0.190548
v 0.109181 0.007203 0.188353
v 0.112620 0.014578 0.183055
v 0.109181 0.021953 0.177757
v 0.100877 0.025008 0.175563
v 0.092574 0.021953 0.177757
v 0.089135 0.014578 0.183055
v 0.092574 0.007203 0.188353
v -0.089006 -0.018184 0.149842
v -0.093495 -0.013138 0.127838
v -0.089006 0.004953 0.109715
v -0.085192 -0.009151 0.129024
v -0.082659 -0.010211 0.149842
v -0.082659 0.010591 0.113766
v -0.081752 0.000474 0.131888
v -0.082659 0.001066 0.149842
v -0.082659 0.018565 0.119494
v -0.085192 0.010099 0.134752
v -0.089006 0.009039 0.149842
v -0.089006 0.024203 0.123544
v -0.093495 0.014086 0.135939
v -0.097983 0.009039 0.149842
v -0.097983 0.024203 0.123544
v -0.101798 0.010099 0.134752
v -0.104331 0.001066 0.149842
v -0.104331 0.018565 0.119494
v -0.105237 0.000474 0.131888
v -0.104331 -0.010211 0.149842
v -0.104331 0.010591 0.113766
v -0.101798 -0.009151 0.129024
v -0.097983 -0.018184 0.149842
v -0.097983 0.004953 0.109715
v -0.093495 0.030181 0.096720
v -0.089006 0.060812 0.093094
v -0.085192 0.031832 0.099584
v -0.082659 0.060812 0.098822
v -0.081752 0.035819 0.106498
v -0.082659 0.060812 0.106923
v -0.085192 0.039806 0.113412
v -0.089006 0.060812 0.112651
v -0.093495 0.041457 0.116276
v -0.097983 0.060812 0.112651
v -0.101798 0.039806 0.113412
v -0.104331 0.060812 0.106923
v -0.105237 0.035819 0.106498
v -0.104331 0.060812 0.098822
v -0.101798 0.031832 0.099584
v -0.097983 0.060812 0.093094
v -0.093495 0.091443 0.096720
v -0.089006 0.116671 0.109715
v -0.085192 0.089792 0.099584
v -0.082659 0.111033 0.113766
v -0.081752 0.085805 0.106498
v -0.082659 0.103059 0.119494
v -0.085192 0.081818 0.113412
v -0.089006 0.097421 0.123544
v -0.093495 0.080167 0.116276
v -0.097983 0.097421 0.123544
v -0.101798 0.081818 0.113412
v -0.104331 0.103059 0.119494
v -0.105237 0.085805 0.106498
v -0.104331 0.111033 0.113766
v -0.101798 0.089792 0.099584
v -0.097983 0.116671 0.109715
v -0.093495 0.134762 0.127838
v -0.089006 0.139808 0.149842
v -0.085192 0.130775 0.129024
v -0.082659 0.131835 0.149842
v -0.081752 0.121150 0.131888
v -0.082659 0.120558 0.149842
v -0.085192 0.111525 0.134752
v -0.089006 0.112585 0.149842
v -0.093495 0.107538 0.135939
v -0.097983 0.112585 0.149842
v -0.101798 0.111525 0.134752
v -0.104331 0.120558 0.149842
v -0.105237 0.121150 0.131888
v -0.104331 0.131835 0.149842
v -0.101798 0.130775 0.129024
v -0.097983 0.139808 0.149842
v -0.093495 0.134762 0.171846
v -0.089006 0.116671 0.189969
v -0.085192 0.130775 0.170660
v -0.082659 0.111033 0.185919
v -0.081752 0.121150 0.167796
v -0.082659 0.103059 0.180191
v -0.085192 0.111525 0.164932
v -0.089006 0.097421 0.176141
v -0.093495 0.107538 0.163746
v -0.097983 0.097421 0.176141
v -0.101798 0.111525 0.164932
v -0.104331 0.103059 0.180191
v -0.105237 0.121150 0.167796
v -0.104331 0.111033 0.185919
v -0.101798 0.130775 0.170660
v -0.097983 0.116671 0.189969
v -0.093495 0.091443 0.202965
v -0.089006 0.060812 0.206590
v -0.085192 0.089792 0.200101
v -0.082659 0.060812 0.200862
v -0.081752 0.085805 0.193187
v -0.082659 0.060812 0.192762
v -0.085192 0.081818 0.186273
v -0.089006 0.060812 0.187034
v -0.093495 0.080167 0.183409
v -0.097983 0.060812 0.187034
v -0.101798 0.081818 0.186273
v -0.104331 0.060812 0.192762
v -0.105237 0.085805 0.193187
v -0.104331 0.060812 0.200862
v -0.101798 0.089792 0.200101
v -0.097983 0.060812 0.206590
v -0.093495 0.030181 0.202965
v -0.089006 0.004953 0.189969
v -0.085192 0.031832 0.200101
v -0.082659 0.010591 0.185919
v -0.081752 0.035819 0.193187
v -0.082659 0.018565 0.180191
v -0.085192 0.039806 0.186273
v -0.089006 0.024203 0.176141
v -0.093495 0.041457 0.183409
v -0.097983 0.024203 0.176141
v -0.101798 0.039806 0.186273
v -0.104331 0.018565 0.180191
v -0.105237 0.035819 0.193187
v -0.104331 0.010591 0.185919
v -0.101798 0.031832 0.200101
v -0.097983 0.004953 0.189969
v -0.093495 -0.013138 0.171846
v -0.085192 -0.009151 0.170660
v -0.081752 0.000474 0.167796
v -0.085192 0.010099 0.164932
v -0.093495 0.014086 0.163746
v -0.101798 0.010099 0.164932
v -0.105237 0.000474 0.167796
v -0.101798 -0.009151 0.170660
v 0.105366 -0.018184 0.149842
v 0.100877 -0.013138 0.127838
v 0.105366 0.004953 0.109715
v 0.109181 -0.009151 0.129024
v 0.111714 -0.010211 0.149842
v 0.111714 0.010591 0.113766
v 0.112620 0.000474 0.131888
v 0.111713 0.001066 0.149842
v 0.111713 0.018565 0.119494
v 0.109181 0.010099 0.134752
v 0.105366 0.009039 0.149842
v 0.105366 0.024203 0.123544
v 0.100877 0.014086 0.135939
v 0.096389 0.009039 0.149842
v 0.096389 0.024203 0.123544
v 0.092574 0.010099 0.134752
v 0.090041 0.001066 0.149842
v 0.090041 0.018565 0.119494
v 0.089135 0.000474 0.131888
v 0.090041 -0.010211 0.149842
v 0.090041 0.010591 0.113766
v 0.092574 -0.009151 0.129024
v 0.096389 -0.018184 0.149842
v 0.096389 0.004953 0.109715
v 0.100877 0.030181 0.096720
v 0.105366 0.060812 0.093094
v 0.109181 0.031832 0.099584
v 0.111714 0.060812 0.098822
v 0.112620 0.035819 0.106498
v 0.111713 0.060812 0.106923
v 0.109181 0.039806 0.113412
v 0.105366 0.060812 0.112651
v 0.100877 0.041457 0.116276
v 0.096389 0.060812 0.112651
v 0.092574 0.039806 0.113412
v 0.090041 0.060812 0.106923
v 0.089135 0.035819 0.106498
v 0.090041 0.060812 0.098822
v 0.092574 0.031832 0.099584
v 0.096389 0.060812 0.093094
v 0.100877 0.091443 0.096720
v 0.105366 0.116671 0.109715
v 0.109181 0.089792 0.099584
v 0.111714 0.111033 0.113766
v 0.112620 0.085805 0.106498
v 0.111713 0.103059 0.119494
v 0.109181 0.081818 0.113412
v 0.105366 0.097421 0.123544
v 0.100877 0.080167 0.116276
v 0.096389 0.097421 0.123544
v 0.092574 0.081818 0.113412
v 0.090041 0.103059 0.119494
v 0.089135 0.085805 0.106498
v 0.090041 0.111033 0.113766
v 0.092574 0.089792 0.099584
v 0.096389 0.116671 0.109715
v 0.100877 0.134762 0.127838
v 0.105366 0.139808 0.149842
v 0.109181 0.130775 0.129024
v 0.111714 0.131835 0.149842
v 0.112620 0.121150 0.131888
v 0.111714 0.120558 0.149842
v 0.109181 0.111525 0.134752
v 0.105366 0.112585 0.149842
v 0.100877 0.107538 0.135939
v 0.096389 0.112585 0.149842
v 0.092574 0.111525 0.134752
v 0.090041 0.120558 0.149842
v 0.089135 0.121150 0.131888
v 0.090041 0.131835 0.149842
v 0.092574 0.130775 0.129024
v 0.096389 0.139808 0.149842
v 0.100877 0.134762 0.171846
v 0.105366 0.116671 0.189969
v 0.109181 0.130775 0.170660
v 0.111714 0.111033 0.185919
v 0.112620 0.121150 0.167796
v 0.111714 0.103059 0.180191
v 0.109181 0.111525 0.164932
v 0.105366 0.097421 0.176141
v 0.100877 0.107538 0.163746
v 0.096389 0.097421 0.176141
v 0.092574 0.111525 0.164932
v 0.090041 0.103059 0.180191
v 0.089135 0.121150 0.167796
v 0.090041 0.111033 0.185919
v 0.092574 0.130775 0.170660
v 0.096389 0.116671 0.189969
v 0.100877 0.091443 0.202965
v 0.105366 0.060812 0.206590
v 0.109181 0.089792 0.200101
v 0.111714 0.060812 0.200862
v 0.112620 0.085805 0.193187
v 0.111713 0.060812 0.192762
v 0.109181 0.081818 0.186273
v 0.105366 0.060812 0.187034
v 0.100877 0.080167 0.183409
v 0.096389 0.060812 0.187034
v 0.092574 0.081818 0.186273
v 0.090041 0.060812 0.192762
v 0.089135 0.085805 0.193187
v 0.090041 0.060812 0.200862
v 0.092574 0.089792 0.200101
v 0.096389 0.060812 0.206590
v 0.100877 0.030181 0.202965
v 0.105366 0.004953 0.189969
v 0.109181 0.031832 0.200101
v 0.111714 0.010591 0.185919
v 0.112620 0.035819 0.193187
v 0.111713 0.018565 0.180191
v 0.109181 0.039806 0.186273
v 0.105366 0.024203 0.176141
v 0.100877 0.041457 0.183409
v 0.096389 0.024203 0.176141
v 0.092574 0.039806 0.186273
v 0.090041 0.018565 0.180191
v 0.089135 0.035819 0.193187
v 0.090041 0.010591 0.185919
v 0.092574 0.031832 0.200101
v 0.096389 0.004953 0.189969
v 0.100877 -0.013138 0.171846
v 0.109181 -0.009151 0.170660
v 0.112620 0.000474 0.167796
v 0.109181 0.010099 0.164932
v 0.100877 0.014086 0.163746
v 0.092574 0.010099 0.164932
v 0.089135 0.000474 0.167796
v 0.092574 -0.009151 0.170660
v -0.089006 -0.012087 0.128151
v -0.082659 -0.004729 0.130340
v -0.082659 0.005677 0.133437
v -0.089006 0.013035 0.135626
v -0.097983 0.013035 0.135626
v -0.104331 0.005677 0.133437
v -0.104331 -0.004729 0.130340
v -0.097983 -0.012087 0.128151
v -0.089006 0.030616 0.097474
v -0.082659 0.033664 0.102760
v -0.082659 0.037974 0.110235
v -0.089006 0.041022 0.115521
v -0.097983 0.041022 0.115521
v -0.104331 0.037974 0.110235
v -0.104331 0.033664 0.102760
v -0.097983 0.030616 0.097474
v -0.089006 0.091008 0.097474
v -0.082659 0.087960 0.102760
v -0.082659 0.083650 0.110235
v -0.089006 0.080602 0.115521
v -0.097983 0.080602 0.115521
v -0.104331 0.083650 0.110235
v -0.104331 0.087960 0.102760
v -0.097983 0.091008 0.097474
v -0.089006 0.133711 0.128151
v -0.082659 0.126353 0.130340
v -0.082659 0.115947 0.133437
v -0.089006 0.108589 0.135626
v -0.097983 0.108589 0.135626
v -0.104331 0.115947 0.133437
v -0.104331 0.126353 0.130340
v -0.097983 0.133711 0.128151
v -0.089006 0.133711 0.171534
v -0.082659 0.126353 0.169344
v -0.082659 0.115947 0.166248
v -0.089006 0.108589 0.164059
v -0.097983 0.108589 0.164059
v -0.104331 0.115947 0.166248
v -0.104331 0.126353 0.169344
v -0.097983 0.133711 0.171534
v -0.089006 0.091008 0.202210
v -0.082659 0.087960 0.196924
v -0.082659 0.083650 0.189449
v -0.089006 0.080602 0.184163
v -0.097983 0.080602 0.184163
v -0.104331 0.083650 0.189449
v -0.104331 0.087960 0.196924
v -0.097983 0.091008 0.202210
v -0.089006 0.030616 0.202210
v -0.082659 0.033664 0.196924
v -0.082659 0.037974 0.189449
v -0.089006 0.041022 0.184163
v -0.097983 0.041022 0.184163
v -0.104331 0.037974 0.189449
v -0.104331 0.033664 0.196925
v -0.097983 0.030616 0.202210
v -0.089006 -0.012087 0.171534
v -0.082659 -0.004729 0.169344
v -0.082659 0.005677 0.166248
v -0.089006 0.013035 0.164059
v -0.097983 0.013035 0.164059
v -0.104331 0.005677 0.166248
v -0.104331 -0.004729 0.169344
v -0.097983 -0.012087 0.171534
v 0.105366 -0.012087 0.128151
v 0.111714 -0.004729 0.130340
v 0.111714 0.005677 0.133437
v 0.105366 0.013035 0.135626
v 0.096389 0.013035 0.135626
v 0.090041 0.005677 0.133437
v 0.090041 -0.004729 0.130340
v 0.096389 -0.012087 0.128151
v 0.105366 0.030616 0.097474
v 0.111714 0.033664 0.102760
v 0.111714 0.037974 0.110235
v 0.105366 0.041022 0.115521
v 0.096389 0.041022 0.115521
v 0.090041 0.037974 0.110235
v 0.090041 0.033664 0.102760
v 0.096389 0.030616 0.097474
v 0.105366 0.091008 0.097474
v 0.111714 0.087960 0.102760
v 0.111714 0.083650 0.110235
v 0.105366 0.080602 0.115521
v 0.096389 0.080602 0.115521
v 0.090041 0.083650 0.110235
v 0.090041 0.087960 0.102760
v 0.096389 0.091008 0.097474
v 0.105366 0.133711 0.128151
v 0.111714 0.126353 0.130340
v 0.111714 0.115947 0.133437
v 0.105366 0.108589 0.135626
v 0.096389 0.108589 0.135626
v 0.090041 0.115947 0.133437
v 0.090041 0.126353 0.130340
v 0.096389 0.133711 0.128151
v 0.105366 0.133711 0.171534
v 0.111714 0.126353 0.169344
v 0.111714 0.115947 0.166248
v 0.105366 0.108589 0.164059
v 0.096389 0.108589 0.164059
v 0.090041 0.115947 0.166248
v 0.090041 0.126353 0.169344
v 0.096389 0.133711 0.171534
v 0.105366 0.091008 0.202210
v 0.111714 0.087960 0.196924
v 0.111714 0.083650 0.189449
v 0.105366 0.080602 0.184163
v 0.096389 0.080602 0.184163
v 0.090041 0.083650 0.189449
v 0.090041 0.087960 0.196924
v 0.096389 0.091008 0.202210
v 0.105366 0.030616 0.202210
v 0.111714 0.033664 0.196924
v 0.111714 0.037974 0.189449
v 0.105366 0.041022 0.184163
v 0.096389 0.041022 0.184163
v 0.090041 0.037974 0.189449
v 0.090041 0.033664 0.196925
v 0.096389 0.030616 0.202210
v 0.105366 -0.012087 0.171534
v 0.111714 -0.004729 0.169344
v 0.111714 0.005677 0.166248
v 0.105366 0.013035 0.164059
v 0.096389 0.013035 0.164059
v 0.090041 0.005677 0.166248
v 0.090041 -0.004729 0.169344
v 0.096389 -0.012087 0.171534
v -0.089000 0.111874 0.065885
v 0.157762 -0.000046 0.065885
v 0.143702 0.090664 0.065885
v 0.157762 0.090664 0.065885
v -0.157762 0.021165 0.065885
v -0.143702 0.021165 0.065885
v -0.089000 -0.000046 0.065885
v 0.143702 0.021165 0.065885
v 0.089000 0.111874 0.065885
v 0.157762 0.111874 0.065885
v -0.143702 0.090664 0.065885
v 0.157762 0.021165 0.065885
v -0.157762 0.111874 0.065885
v -0.157762 0.090664 0.065885
v -0.157762 -0.000046 0.065885
v 0.089000 -0.000046 0.065885
v -0.088978 0.111874 -0.067925
v 0.157762 -0.000046 -0.066444
v 0.145866 0.090664 -0.058578
v 0.157762 0.090664 -0.066444
v -0.157762 0.021165 -0.066444
v -0.145866 0.021165 -0.058578
v -0.088978 -0.000046 -0.067925
v 0.145866 0.021165 -0.058578
v 0.088979 0.111874 -0.067431
v 0.157762 0.111874 -0.066444
v -0.145866 0.090664 -0.058578
v 0.157762 0.021165 -0.066444
v -0.157762 0.111874 -0.066444
v -0.157762 0.090664 -0.066444
v -0.157762 -0.000046 -0.066444
v 0.088979 -0.000046 -0.067431
v -0.002552 0.111874 0.157762
v -0.002552 0.084942 0.162164
v -0.002552 0.111874 -0.125213
v -0.002552 0.111874 0.122485
v -0.002552 0.111874 -0.067685
v -0.002552 0.084942 0.157762
v -0.002552 0.090664 -0.114187
v -0.002552 -0.000046 0.065885
v -0.002552 -0.000046 -0.125213
v -0.002552 0.026886 0.157762
v -0.002552 -0.000046 0.122485
v -0.002552 0.111874 0.065885
v -0.002552 0.021165 -0.114187
v -0.002552 0.111874 0.085971
v -0.002552 0.026886 0.162164
v -0.002552 -0.000046 0.157762
v -0.002552 0.021165 -0.125213
v -0.002552 -0.000046 -0.067685
v -0.002552 -0.000046 0.085971
v -0.002552 0.090664 -0.125213
v -0.088978 0.114842 -0.067925
v -0.089000 0.114842 0.065885
v -0.002552 0.114842 -0.067685
v -0.002552 0.114842 0.065885
vn -0.0000 -0.0000 1.0000
vn -0.0000 -0.0000 -1.0000
vn -0.0000 -1.0000 -0.0000
vn -0.0000 1.0000 -0.0000
vn -1.0000 -0.0000 -0.0000
vn 1.0000 -0.0000 -0.0000
vn 0.9998 -0.0000 0.0182
vn -0.9998 -0.0000 0.0182
vn 0.8315 -0.0000 0.5556
vn 0.7071 -0.0000 0.7071
vn 0.3827 -0.0000 0.9239
vn -0.1951 -0.0000 0.9808
vn -0.3827 -0.0000 0.9239
vn -0.7071 -0.0000 0.7071
vn -0.8315 -0.0000 0.5556
vn -0.9239 -0.0000 0.3827
vn -0.9239 -0.0000 -0.3827
vn -0.7071 -0.0000 -0.7071
vn -0.5556 -0.0000 -0.8315
vn -0.3827 -0.0000 -0.9239
vn -0.1951 -0.0000 -0.9808
vn 0.3827 -0.0000 -0.9239
vn 0.5556 -0.0000 -0.8315
vn 0.7071 -0.0000 -0.7071
vn 0.9239 -0.0000 -0.3827
vn 0.9239 -0.0000 0.3827
vn 0.5556 -0.0000 0.8315
vn -0.9808 -0.0000 0.1951
vn -0.9808 -0.0000 -0.1951
vn -0.0000 -0.9627 -0.2706
vn -0.0000 -0.8763 -0.4818
vn 0.4229 -0.7921 -0.4402
vn 0.4397 -0.8982 -0.0000
vn -0.0000 -0.5993 -0.8005
vn 0.3875 -0.5497 -0.7401
vn 0.7081 -0.4155 -0.5709
vn 0.7443 -0.5803 -0.3306
vn 0.7608 -0.6490 -0.0000
vn 0.9336 -0.3086 -0.1820
vn 0.9396 -0.3423 -0.0000
vn 0.9199 -0.2254 -0.3208
vn 0.9996 -0.0089 -0.0249
vn 0.9996 -0.0203 -0.0183
vn 0.9996 -0.0277 -0.0000
vn 0.9503 0.2721 0.1510
vn 0.9566 0.2913 -0.0000
vn 0.9365 0.2095 0.2812
vn 0.7309 0.4018 0.5517
vn 0.7728 0.5521 0.3130
vn 0.7936 0.6084 -0.0000
vn 0.4462 0.7777 0.4428
vn 0.4707 0.8823 -0.0000
vn 0.4021 0.5374 0.7413
vn -0.0000 0.5864 0.8100
vn -0.0000 0.8687 0.4953
vn -0.0000 0.9627 0.2706
vn -0.4462 0.7777 0.4428
vn -0.4707 0.8823 -0.0000
vn -0.4021 0.5374 0.7413
vn -0.7309 0.4018 0.5517
vn -0.7728 0.5521 0.3130
vn -0.7936 0.6084 -0.0000
vn -0.9503 0.2721 0.1510
vn -0.9566 0.2913 -0.0000
vn -0.9365 0.2095 0.2813
vn -0.9996 -0.0089 -0.0249
vn -0.9996 -0.0203 -0.0183
vn -0.9996 -0.0277 -0.0000
vn -0.9336 -0.3086 -0.1820
vn -0.9396 -0.3423 -0.0000
vn -0.9199 -0.2254 -0.3208
vn -0.7081 -0.4155 -0.5709
vn -0.7443 -0.5803 -0.3306
vn -0.7608 -0.6490 -0.0000
vn -0.4229 -0.7921 -0.4402
vn -0.4397 -0.8982 -0.0000
vn -0.3875 -0.5497 -0.7401
vn -0.0000 -0.2942 -0.9558
vn 0.3577 -0.2734 -0.8929
vn 0.3470 -0.0000 -0.9379
vn 0.6640 -0.0000 -0.7477
vn 0.6761 -0.2126 -0.7054
vn 0.9078 -0.1173 -0.4027
vn 0.9030 -0.0000 -0.4297
vn 0.9998 -0.0000 -0.0200
vn 0.9998 -0.0016 -0.0217
vn 0.9223 0.1135 0.3693
vn 0.9172 -0.0000 0.3985
vn 0.6820 -0.0000 0.7314
vn 0.6944 0.2070 0.6892
vn 0.3685 0.2663 0.8906
vn 0.3578 -0.0000 0.9338
vn -0.0000 0.2863 0.9581
vn -0.3685 0.2663 0.8906
vn -0.3578 -0.0000 0.9338
vn -0.6820 -0.0000 0.7314
vn -0.6944 0.2070 0.6892
vn -0.9223 0.1135 0.3693
vn -0.9172 -0.0000 0.3985
vn -0.9998 -0.0000 -0.0200
vn -0.9998 -0.0016 -0.0217
vn -0.9078 -0.1173 -0.4027
vn -0.9030 -0.0000 -0.4297
vn -0.6640 -0.0000 -0.7477
vn -0.6761 -0.2126 -0.7054
vn -0.3577 -0.2734 -0.8929
vn -0.3470 -0.0000 -0.9379
vn -0.0000 0.2942 -0.9558
vn 0.3577 0.2734 -0.8929
vn -0.0000 0.5993 -0.8005
vn 0.3875 0.5497 -0.7401
vn 0.7081 0.4155 -0.5709
vn 0.6761 0.2126 -0.7054
vn 0.9078 0.1173 -0.4027
vn 0.9199 0.2254 -0.3208
vn 0.9996 0.0089 -0.0249
vn 0.9998 0.0016 -0.0217
vn 0.9223 -0.1135 0.3693
vn 0.9365 -0.2095 0.2813
vn 0.7309 -0.4018 0.5517
vn 0.6944 -0.2070 0.6892
vn 0.3685 -0.2663 0.8906
vn 0.4021 -0.5374 0.7413
vn -0.0000 -0.5864 0.8100
vn -0.0000 -0.2863 0.9581
vn -0.3685 -0.2663 0.8906
vn -0.4021 -0.5374 0.7413
vn -0.7309 -0.4018 0.5517
vn -0.6944 -0.2070 0.6892
vn -0.9223 -0.1135 0.3693
vn -0.9365 -0.2095 0.2813
vn -0.9996 0.0089 -0.0249
vn -0.9998 0.0016 -0.0217
vn -0.9078 0.1173 -0.4027
vn -0.9199 0.2254 -0.3208
vn -0.7081 0.4155 -0.5709
vn -0.6761 0.2126 -0.7054
vn -0.3577 0.2734 -0.8929
vn -0.3875 0.5497 -0.7401
vn -0.0000 0.8763 -0.4818
vn 0.4229 0.7921 -0.4402
vn -0.0000 0.9627 -0.2706
vn 0.4397 0.8982 -0.0000
vn 0.7608 0.6490 -0.0000
vn 0.7443 0.5803 -0.3306
vn 0.9336 0.3086 -0.1820
vn 0.9396 0.3423 -0.0000
vn 0.9996 0.0277 -0.0000
vn 0.9996 0.0203 -0.0183
vn 0.9503 -0.2721 0.1510
vn 0.9566 -0.2913 -0.0000
vn 0.7936 -0.6084 -0.0000
vn 0.7728 -0.5521 0.3130
vn 0.4462 -0.7777 0.4428
vn 0.4707 -0.8823 -0.0000
vn -0.0000 -0.9627 0.2706
vn -0.0000 -0.8687 0.4953
vn -0.4462 -0.7777 0.4428
vn -0.4707 -0.8823 -0.0000
vn -0.7936 -0.6084 -0.0000
vn -0.7728 -0.5521 0.3130
vn -0.9503 -0.2721 0.1510
vn -0.9566 -0.2913 -0.0000
vn -0.9996 0.0277 -0.0000
vn -0.9996 0.0203 -0.0183
vn -0.9336 0.3086 -0.1820
vn -0.9396 0.3423 -0.0000
vn -0.7608 0.6490 -0.0000
vn -0.7443 0.5803 -0.3306
vn -0.4229 0.7921 -0.4402
vn -0.4397 0.8982 -0.0000
vn -0.0000 0.8763 0.4818
vn 0.4229 0.7921 0.4402
vn -0.0000 0.5993 0.8005
vn 0.3875 0.5497 0.7401
vn 0.7081 0.4155 0.5709
vn 0.7443 0.5803 0.3306
vn 0.9336 0.3086 0.1820
vn 0.9199 0.2254 0.3208
vn 0.9996 0.0089 0.0249
vn 0.9996 0.0203 0.0183
vn 0.9503 -0.2721 -0.1510
vn 0.9365 -0.2095 -0.2812
vn 0.7309 -0.4018 -0.5517
vn 0.7728 -0.5521 -0.3130
vn 0.4462 -0.7777 -0.4428
vn 0.4021 -0.5373 -0.7413
vn -0.0000 -0.5864 -0.8100
vn -0.0000 -0.8687 -0.4953
vn -0.4462 -0.7777 -0.4428
vn -0.4021 -0.5374 -0.7413
vn -0.7309 -0.4018 -0.5517
vn -0.7728 -0.5521 -0.3130
vn -0.9503 -0.2721 -0.1510
vn -0.9365 -0.2095 -0.2813
vn -0.9996 0.0089 0.0249
vn -0.9996 0.0203 0.0183
vn -0.9336 0.3086 0.1820
vn -0.9199 0.2254 0.3208
vn -0.7081 0.4155 0.5709
vn -0.7443 0.5803 0.3306
vn -0.4229 0.7921 0.4402
vn -0.3875 0.5497 0.7401
vn -0.0000 0.2942 0.9558
vn 0.3577 0.2734 0.8929
vn 0.3470 -0.0000 0.9379
vn 0.6640 -0.0000 0.7477
vn 0.6761 0.2126 0.7054
vn 0.9078 0.1173 0.4027
vn 0.9030 -0.0000 0.4297
vn 0.9998 -0.0000 0.0200
vn 0.9998 0.0016 0.0217
vn 0.9223 -0.1135 -0.3693
vn 0.9172 -0.0000 -0.3985
vn 0.6820 -0.0000 -0.7314
vn 0.6944 -0.2070 -0.6892
vn 0.3685 -0.2663 -0.8906
vn 0.3578 -0.0000 -0.9338
vn -0.0000 -0.2863 -0.9581
vn -0.3685 -0.2663 -0.8906
vn -0.3578 -0.0000 -0.9338
vn -0.6820 -0.0000 -0.7314
vn -0.6944 -0.2070 -0.6892
vn -0.9223 -0.1135 -0.3693
vn -0.9172 -0.0000 -0.3985
vn -0.9998 -0.0000 0.0200
vn -0.9998 0.0016 0.0217
vn -0.9078 0.1173 0.4027
vn -0.9030 -0.0000 0.4297
vn -0.6640 -0.0000 0.7477
vn -0.6761 0.2126 0.7054
vn -0.3577 0.2734 0.8929
vn -0.3470 -0.0000 0.9379
vn -0.0000 -0.2942 0.9558
vn 0.3577 -0.2734 0.8929
vn -0.0000 -0.5993 0.8005
vn 0.3875 -0.5497 0.7401
vn 0.7081 -0.4155 0.5709
vn 0.6761 -0.2126 0.7054
vn 0.9078 -0.1173 0.4027
vn 0.9199 -0.2254 0.3208
vn 0.9996 -0.0089 0.0249
vn 0.9998 -0.0016 0.0217
vn 0.9223 0.1135 -0.3693
vn 0.9365 0.2095 -0.2812
vn 0.7309 0.4018 -0.5517
vn 0.6944 0.2070 -0.6892
vn 0.3685 0.2663 -0.8906
vn 0.4021 0.5374 -0.7413
vn -0.0000 0.5864 -0.8100
vn -0.0000 0.2863 -0.9581
vn -0.3685 0.2663 -0.8906
vn -0.4021 0.5374 -0.7413
vn -0.7309 0.4018 -0.5517
vn -0.6944 0.2070 -0.6892
vn -0.9223 0.1135 -0.3693
vn -0.9365 0.2095 -0.2812
vn -0.9996 -0.0089 0.0249
vn -0.9998 -0.0016 0.0217
vn -0.9078 -0.1173 0.4027
vn -0.9199 -0.2254 0.3208
vn -0.7081 -0.4155 0.5709
vn -0.6761 -0.2126 0.7054
vn -0.3577 -0.2734 0.8929
vn -0.3875 -0.5497 0.7401
vn -0.0000 -0.8763 0.4818
vn 0.4229 -0.7921 0.4402
vn 0.7443 -0.5803 0.3306
vn 0.9336 -0.3086 0.1820
vn 0.9996 -0.0203 0.0183
vn 0.9503 0.2721 -0.1510
vn 0.7728 0.5521 -0.3130
vn 0.4462 0.7777 -0.4428
vn -0.0000 0.8687 -0.4953
vn -0.4462 0.7777 -0.4428
vn -0.7728 0.5521 -0.3130
vn -0.9503 0.2721 -0.1510
vn -0.9996 -0.0203 0.0183
vn -0.9336 -0.3086 0.1820
vn -0.7443 -0.5803 0.3306
vn -0.4229 -0.7921 0.4402
vn 0.4021 0.5373 0.7413
vn -0.6641 -0.0000 -0.7477
vn 0.9365 -0.2095 0.2812
vn 0.4021 -0.5373 0.7413
vn 0.9365 -0.2095 -0.2813
vn -0.4021 0.5373 -0.7413
vn -0.9365 0.2095 -0.2813
vn 0.0028 -0.0000 -1.0000
vn -1.0000 -0.0000 -0.0002
vt 0.234867 0.484451
vt 0.234867 0.470162
vt 0.258130 0.470162
vt 0.258130 0.484451
vt 0.234867 0.521456
vt 0.258130 0.521456
vt 0.258130 0.535745
vt 0.234867 0.535745
vt 0.285802 0.560079
vt 0.285802 0.574397
vt 0.281394 0.574397
vt 0.281394 0.560098
vt 0.285802 0.508814
vt 0.285802 0.523132
vt 0.281394 0.523112
vt 0.281394 0.508814
vt 0.232982 0.559301
vt 0.232982 0.573747
vt 0.229741 0.573747
vt 0.229741 0.559301
vt 0.180457 0.521427
vt 0.180457 0.535746
vt 0.178166 0.533454
vt 0.178166 0.519864
vt 0.180457 0.470162
vt 0.180457 0.484480
vt 0.178166 0.486043
vt 0.178166 0.472454
vt 0.140970 0.460423
vt 0.140970 0.470162
vt 0.133380 0.470162
vt 0.133380 0.459174
vt 0.134074 0.460212
vt 0.135728 0.461317
vt 0.137679 0.461706
vt 0.139631 0.461317
vt 0.134074 0.412844
vt 0.133380 0.413882
vt 0.133380 0.404578
vt 0.140970 0.404578
vt 0.140970 0.412634
vt 0.139631 0.411739
vt 0.138366 0.411488
vt 0.137679 0.411351
vt 0.136415 0.411602
vt 0.135728 0.411739
vt 0.285802 0.542136
vt 0.281394 0.542136
vt 0.234118 0.535746
vt 0.234118 0.549180
vt 0.233203 0.549180
vt 0.233203 0.535746
vt 0.180457 0.502423
vt 0.178166 0.502423
vt 0.316790 0.176541
vt 0.328857 0.176541
vt 0.328857 0.189976
vt 0.316790 0.189976
vt 0.262539 0.416794
vt 0.266948 0.416794
vt 0.266948 0.444299
vt 0.262539 0.444299
vt 0.134074 0.453001
vt 0.133380 0.454039
vt 0.133380 0.437900
vt 0.140970 0.437900
vt 0.140970 0.452791
vt 0.139631 0.451896
vt 0.137679 0.451508
vt 0.135728 0.451896
vt 0.136561 0.470162
vt 0.136561 0.473210
vt 0.128972 0.473345
vt 0.128972 0.470162
vt 0.128972 0.535746
vt 0.128972 0.532562
vt 0.136561 0.532697
vt 0.136561 0.535746
vt 0.281394 0.470162
vt 0.276985 0.474571
vt 0.262539 0.474571
vt 0.252532 0.490049
vt 0.258130 0.502423
vt 0.252532 0.502423
vt 0.133281 0.418868
vt 0.126048 0.418867
vt 0.126048 0.404578
vt 0.133358 0.413916
vt 0.132969 0.414499
vt 0.132580 0.416450
vt 0.132969 0.418401
vt 0.261371 0.560171
vt 0.261371 0.574616
vt 0.258130 0.574616
vt 0.258130 0.560171
vt 0.262539 0.485084
vt 0.258130 0.485084
vt 0.258130 0.477494
vt 0.262539 0.477494
vt 0.276985 0.485084
vt 0.281394 0.485084
vt 0.281394 0.489259
vt 0.276985 0.489259
vt 0.262539 0.456064
vt 0.266948 0.456064
vt 0.266948 0.463396
vt 0.262539 0.458988
vt 0.248093 0.456064
vt 0.243685 0.456064
vt 0.243685 0.448474
vt 0.248093 0.448474
vt 0.126048 0.470162
vt 0.126048 0.455872
vt 0.132727 0.455872
vt 0.132580 0.456607
vt 0.132969 0.458558
vt 0.475796 0.099441
vt 0.490241 0.099441
vt 0.490241 0.102365
vt 0.490241 0.109954
vt 0.490241 0.114130
vt 0.490241 0.140000
vt 0.490241 0.151559
vt 0.475796 0.151559
vt 0.475796 0.140000
vt 0.475796 0.114130
vt 0.475796 0.109954
vt 0.475796 0.102365
vt 0.142632 0.455870
vt 0.145145 0.455869
vt 0.145145 0.470162
vt 0.141285 0.460212
vt 0.142390 0.458558
vt 0.142778 0.456607
vt 0.142077 0.418869
vt 0.145145 0.418871
vt 0.145145 0.437900
vt 0.140970 0.420266
vt 0.141285 0.420055
vt 0.126048 0.437900
vt 0.132969 0.454655
vt 0.145145 0.404578
vt 0.142390 0.418401
vt 0.142778 0.416450
vt 0.142390 0.414499
vt 0.141285 0.412844
vt 0.126048 0.535746
vt 0.126048 0.532504
vt 0.168242 0.535746
vt 0.140736 0.535746
vt 0.140736 0.532823
vt 0.166607 0.533273
vt 0.126048 0.473403
vt 0.490241 0.193163
vt 0.490241 0.200753
vt 0.490241 0.203676
vt 0.475796 0.203676
vt 0.475796 0.200753
vt 0.475796 0.193163
vt 0.475796 0.188988
vt 0.475796 0.163117
vt 0.490241 0.163117
vt 0.490241 0.188988
vt 0.140736 0.470162
vt 0.140736 0.473084
vt 0.262539 0.489259
vt 0.258130 0.489259
vt 0.248093 0.416794
vt 0.248093 0.444299
vt 0.243685 0.444299
vt 0.243685 0.416794
vt 0.248093 0.458988
vt 0.243685 0.463396
vt 0.190971 0.535746
vt 0.190971 0.532697
vt 0.195146 0.532823
vt 0.195146 0.535746
vt 0.281394 0.477494
vt 0.276985 0.477494
vt 0.240465 0.490049
vt 0.240465 0.502423
vt 0.234867 0.502423
vt 0.192099 0.455871
vt 0.191787 0.456339
vt 0.191399 0.458290
vt 0.191787 0.460241
vt 0.192176 0.460823
vt 0.192199 0.460858
vt 0.192199 0.470162
vt 0.184866 0.470162
vt 0.184866 0.455872
vt 0.192892 0.421739
vt 0.194546 0.422844
vt 0.196498 0.423232
vt 0.198449 0.422844
vt 0.199788 0.421949
vt 0.199788 0.436839
vt 0.192199 0.436839
vt 0.192199 0.420701
vt 0.290211 0.560098
vt 0.290211 0.574397
vt 0.290211 0.508814
vt 0.290211 0.523112
vt 0.290211 0.542136
vt 0.276170 0.572238
vt 0.276170 0.560171
vt 0.277085 0.560171
vt 0.277085 0.572238
vt 0.234867 0.521427
vt 0.232575 0.519864
vt 0.232575 0.503484
vt 0.234867 0.503484
vt 0.222651 0.470162
vt 0.221016 0.472634
vt 0.195146 0.473084
vt 0.195146 0.470162
vt 0.200896 0.455870
vt 0.200103 0.454684
vt 0.199788 0.454474
vt 0.203964 0.436839
vt 0.203964 0.455869
vt 0.191545 0.418868
vt 0.191787 0.420084
vt 0.184866 0.436839
vt 0.184866 0.418867
vt 0.199788 0.462106
vt 0.200103 0.461895
vt 0.201209 0.460241
vt 0.201597 0.458290
vt 0.201209 0.456339
vt 0.203964 0.470162
vt 0.199788 0.470162
vt 0.201450 0.418870
vt 0.201597 0.418133
vt 0.201209 0.416182
vt 0.200103 0.414528
vt 0.199788 0.414317
vt 0.199788 0.404578
vt 0.203964 0.404578
vt 0.203964 0.418871
vt 0.183381 0.535746
vt 0.183381 0.532562
vt 0.183381 0.470162
vt 0.190971 0.470162
vt 0.190971 0.473210
vt 0.183381 0.473345
vt 0.192892 0.461895
vt 0.194546 0.463001
vt 0.195233 0.463137
vt 0.196498 0.463389
vt 0.197185 0.463252
vt 0.198449 0.463001
vt 0.180457 0.473403
vt 0.180457 0.470162
vt 0.180457 0.532504
vt 0.262539 0.448474
vt 0.266948 0.448474
vt 0.192199 0.404578
vt 0.192199 0.415565
vt 0.191787 0.416182
vt 0.191399 0.418133
vt 0.184866 0.404578
vt 0.198449 0.413422
vt 0.196498 0.413034
vt 0.194546 0.413422
vt 0.192892 0.414528
vt 0.234867 0.535746
vt 0.232575 0.533454
vt 0.234867 0.484480
vt 0.232575 0.486043
vt 0.232575 0.472454
vt 0.234867 0.470162
vt 0.201211 0.559009
vt 0.200896 0.559009
vt 0.200896 0.535746
vt 0.201211 0.535746
vt 0.297422 0.578604
vt 0.295772 0.578604
vt 0.295772 0.555340
vt 0.297422 0.555340
vt 0.293822 0.578604
vt 0.293822 0.555340
vt 0.293085 0.578604
vt 0.293085 0.555340
vt 0.291869 0.578604
vt 0.291869 0.555340
vt 0.290211 0.578604
vt 0.290211 0.555340
vt 0.222530 0.559009
vt 0.222215 0.559009
vt 0.222215 0.535746
vt 0.222530 0.535746
vt 0.220875 0.559009
vt 0.220875 0.535746
vt 0.218924 0.559009
vt 0.218924 0.535746
vt 0.216973 0.559009
vt 0.216973 0.535746
vt 0.215319 0.559009
vt 0.215319 0.535746
vt 0.297422 0.532077
vt 0.296382 0.532077
vt 0.296382 0.508814
vt 0.297422 0.508814
vt 0.295765 0.532077
vt 0.295765 0.508814
vt 0.294548 0.532077
vt 0.294548 0.508814
vt 0.293812 0.532077
vt 0.293812 0.508814
vt 0.291862 0.532077
vt 0.291862 0.508814
vt 0.291247 0.532077
vt 0.291247 0.508814
vt 0.290211 0.532077
vt 0.208108 0.559009
vt 0.206454 0.559009
vt 0.206454 0.535746
vt 0.208108 0.535746
vt 0.204502 0.559009
vt 0.204502 0.535746
vt 0.202551 0.559009
vt 0.202551 0.535746
vt 0.296382 0.555340
vt 0.296348 0.555340
vt 0.296348 0.532077
vt 0.295765 0.555340
vt 0.293812 0.555340
vt 0.291862 0.555340
vt 0.291396 0.555340
vt 0.291396 0.532077
vt 0.291247 0.555340
vt 0.213665 0.559009
vt 0.213665 0.535746
vt 0.211713 0.559009
vt 0.211713 0.535746
vt 0.209762 0.559009
vt 0.209762 0.535746
vt 0.208422 0.559009
vt 0.208422 0.535746
vt 0.303050 0.427841
vt 0.301867 0.427841
vt 0.301867 0.404578
vt 0.303050 0.404578
vt 0.301400 0.427841
vt 0.301400 0.404578
vt 0.299450 0.427841
vt 0.299450 0.404578
vt 0.297497 0.427841
vt 0.297497 0.404578
vt 0.295839 0.427841
vt 0.295839 0.404578
vt 0.229741 0.559009
vt 0.229426 0.559009
vt 0.229426 0.535746
vt 0.229741 0.535746
vt 0.228086 0.559009
vt 0.228086 0.535746
vt 0.226822 0.559009
vt 0.226822 0.535746
vt 0.226135 0.559009
vt 0.226135 0.535746
vt 0.224871 0.559009
vt 0.224871 0.535746
vt 0.224184 0.559009
vt 0.224184 0.535746
vt 0.235033 0.535746
vt 0.235033 0.548119
vt 0.234118 0.548119
vt 0.868025 0.877528
vt 0.868025 0.882102
vt 0.867092 0.882037
vt 0.867092 0.877528
vt 0.868025 0.885989
vt 0.867092 0.885869
vt 0.866299 0.885533
vt 0.866299 0.881856
vt 0.866299 0.877528
vt 0.929022 0.870229
vt 0.924914 0.868405
vt 0.925317 0.867534
vt 0.929165 0.869244
vt 0.921763 0.864513
vt 0.922364 0.863888
vt 0.923072 0.863154
vt 0.925790 0.866510
vt 0.929333 0.868084
vt 0.926264 0.865486
vt 0.929501 0.866924
vt 0.923781 0.862419
vt 0.924382 0.861795
vt 0.926667 0.864616
vt 0.929644 0.865938
vt 0.942487 0.876032
vt 0.942487 0.879168
vt 0.941694 0.878987
vt 0.941694 0.876032
vt 0.942487 0.881834
vt 0.941694 0.881498
vt 0.940761 0.881378
vt 0.940761 0.878922
vt 0.940761 0.876032
vt 0.939828 0.878987
vt 0.939828 0.876032
vt 0.939828 0.881498
vt 0.939035 0.881834
vt 0.939035 0.879168
vt 0.939035 0.876032
vt 0.797562 0.872704
vt 0.800793 0.872282
vt 0.800931 0.873231
vt 0.797419 0.873690
vt 0.803784 0.870226
vt 0.804184 0.870995
vt 0.804654 0.871901
vt 0.801095 0.874347
vt 0.797251 0.874849
vt 0.801258 0.875463
vt 0.797083 0.876009
vt 0.805124 0.872807
vt 0.805524 0.873576
vt 0.801396 0.876412
vt 0.796939 0.876995
vt 0.869751 0.877528
vt 0.869751 0.881856
vt 0.868958 0.882037
vt 0.868958 0.877528
vt 0.869751 0.885533
vt 0.868958 0.885869
vt 0.959517 0.808568
vt 0.959526 0.803157
vt 0.960458 0.803066
vt 0.960450 0.808401
vt 0.959529 0.796790
vt 0.960461 0.796790
vt 0.961252 0.796790
vt 0.961249 0.802814
vt 0.961242 0.807933
vt 0.920081 0.859096
vt 0.920789 0.858814
vt 0.920081 0.853009
vt 0.920789 0.853112
vt 0.921622 0.853233
vt 0.921622 0.858482
vt 0.922455 0.858150
vt 0.922455 0.853353
vt 0.923163 0.853456
vt 0.923163 0.857868
vt 0.884480 0.885222
vt 0.884486 0.881511
vt 0.885278 0.881258
vt 0.885272 0.884754
vt 0.884488 0.877145
vt 0.885279 0.877145
vt 0.886212 0.877145
vt 0.886210 0.881168
vt 0.886205 0.884587
vt 0.887143 0.881258
vt 0.887138 0.884754
vt 0.887145 0.877145
vt 0.887940 0.877145
vt 0.887938 0.881511
vt 0.887932 0.885222
vt 0.806069 0.866808
vt 0.806668 0.867279
vt 0.807322 0.862577
vt 0.808030 0.862680
vt 0.808864 0.862801
vt 0.807372 0.867834
vt 0.808077 0.868389
vt 0.809697 0.862922
vt 0.810405 0.863025
vt 0.808675 0.868860
vt 0.957790 0.807933
vt 0.957798 0.802814
vt 0.958592 0.803066
vt 0.958584 0.808401
vt 0.957801 0.796790
vt 0.958595 0.796790
vt 0.959526 0.790423
vt 0.960458 0.790514
vt 0.959517 0.785012
vt 0.960450 0.785179
vt 0.961242 0.785647
vt 0.961249 0.790766
vt 0.921810 0.847173
vt 0.922409 0.847645
vt 0.924962 0.842457
vt 0.925361 0.843227
vt 0.925831 0.844133
vt 0.923114 0.848200
vt 0.923818 0.848754
vt 0.926302 0.845038
vt 0.926701 0.845808
vt 0.924417 0.849226
vt 0.884486 0.872778
vt 0.885278 0.873031
vt 0.884480 0.869067
vt 0.885272 0.869535
vt 0.886205 0.869703
vt 0.886210 0.873122
vt 0.887143 0.873031
vt 0.887138 0.869535
vt 0.887932 0.869067
vt 0.887938 0.872778
vt 0.807322 0.858166
vt 0.808030 0.857884
vt 0.806103 0.854239
vt 0.806705 0.853615
vt 0.807413 0.852880
vt 0.808864 0.857552
vt 0.809697 0.857220
vt 0.808121 0.852145
vt 0.808723 0.851521
vt 0.810405 0.856938
vt 0.957798 0.790766
vt 0.958592 0.790514
vt 0.957790 0.785647
vt 0.958584 0.785179
vt 0.871476 0.885989
vt 0.871476 0.882102
vt 0.872409 0.882037
vt 0.872409 0.885869
vt 0.871476 0.877528
vt 0.872409 0.877528
vt 0.873202 0.877528
vt 0.873202 0.881856
vt 0.873202 0.885533
vt 0.929089 0.839621
vt 0.929228 0.840570
vt 0.933546 0.839039
vt 0.933403 0.840024
vt 0.933235 0.841184
vt 0.929391 0.841687
vt 0.929554 0.842803
vt 0.933067 0.842344
vt 0.932924 0.843330
vt 0.929693 0.843752
vt 0.930226 0.881834
vt 0.930226 0.879168
vt 0.931019 0.878987
vt 0.931019 0.881498
vt 0.930226 0.876032
vt 0.931019 0.876032
vt 0.931951 0.876032
vt 0.931951 0.878922
vt 0.931951 0.881378
vt 0.932884 0.878987
vt 0.932884 0.881498
vt 0.932884 0.876032
vt 0.933677 0.876032
vt 0.933677 0.879168
vt 0.933677 0.881834
vt 0.803819 0.851418
vt 0.804222 0.850548
vt 0.800841 0.850095
vt 0.800985 0.849109
vt 0.801153 0.847950
vt 0.804695 0.849524
vt 0.805169 0.848499
vt 0.801321 0.846790
vt 0.801464 0.845804
vt 0.805572 0.847629
vt 0.869751 0.885533
vt 0.870543 0.882037
vt 0.870543 0.885869
vt 0.869751 0.877528
vt 0.870543 0.877528
vt 0.871476 0.872955
vt 0.872409 0.873020
vt 0.871476 0.869068
vt 0.872409 0.869188
vt 0.873202 0.869524
vt 0.873202 0.873201
vt 0.937654 0.840864
vt 0.937251 0.841734
vt 0.940805 0.844756
vt 0.940204 0.845380
vt 0.939495 0.846115
vt 0.936777 0.842758
vt 0.936304 0.843782
vt 0.938787 0.846849
vt 0.938186 0.847474
vt 0.935901 0.844652
vt 0.930226 0.872895
vt 0.931019 0.873077
vt 0.930226 0.870229
vt 0.931019 0.870565
vt 0.931951 0.870686
vt 0.931951 0.873142
vt 0.932884 0.873077
vt 0.932884 0.870565
vt 0.933677 0.870229
vt 0.933677 0.872895
vt 0.797611 0.850517
vt 0.797472 0.849569
vt 0.794619 0.852573
vt 0.794219 0.851804
vt 0.793749 0.850898
vt 0.797309 0.848452
vt 0.797146 0.847336
vt 0.793279 0.849992
vt 0.792879 0.849223
vt 0.797007 0.846387
vt 0.869751 0.873201
vt 0.870543 0.873020
vt 0.869751 0.869524
vt 0.870543 0.869188
vt 0.959525 0.737900
vt 0.959517 0.743311
vt 0.958584 0.743402
vt 0.958593 0.738067
vt 0.959514 0.749678
vt 0.958581 0.749678
vt 0.957790 0.749678
vt 0.957793 0.743654
vt 0.957801 0.738535
vt 0.942487 0.850173
vt 0.941779 0.850455
vt 0.942487 0.856259
vt 0.941779 0.856156
vt 0.940946 0.856036
vt 0.940946 0.850786
vt 0.940113 0.851118
vt 0.940113 0.855915
vt 0.939405 0.855812
vt 0.939405 0.851400
vt 0.891691 0.869068
vt 0.891686 0.872778
vt 0.890894 0.873031
vt 0.890899 0.869535
vt 0.891684 0.877145
vt 0.890892 0.877145
vt 0.889960 0.877145
vt 0.889962 0.873122
vt 0.889967 0.869703
vt 0.889028 0.873031
vt 0.889034 0.869535
vt 0.889026 0.877145
vt 0.888232 0.877145
vt 0.888234 0.872778
vt 0.888240 0.869068
vt 0.792335 0.855991
vt 0.791736 0.855520
vt 0.791081 0.860222
vt 0.790373 0.860119
vt 0.789540 0.859998
vt 0.791031 0.854965
vt 0.790327 0.854410
vt 0.788707 0.859877
vt 0.787999 0.859774
vt 0.789728 0.853939
vt 0.961253 0.738535
vt 0.961245 0.743654
vt 0.960450 0.743402
vt 0.960459 0.738067
vt 0.961242 0.749678
vt 0.960447 0.749678
vt 0.959517 0.756045
vt 0.958584 0.755954
vt 0.959525 0.761456
vt 0.958593 0.761289
vt 0.957801 0.760821
vt 0.957793 0.755702
vt 0.940758 0.862095
vt 0.940159 0.861623
vt 0.937606 0.866811
vt 0.937207 0.866041
vt 0.936736 0.865136
vt 0.939454 0.861069
vt 0.938750 0.860514
vt 0.936266 0.864230
vt 0.935867 0.863460
vt 0.938151 0.860042
vt 0.891686 0.881511
vt 0.890894 0.881258
vt 0.891691 0.885222
vt 0.890899 0.884754
vt 0.889967 0.884587
vt 0.889962 0.881168
vt 0.889028 0.881258
vt 0.889034 0.884754
vt 0.888240 0.885222
vt 0.888234 0.881511
vt 0.791081 0.864634
vt 0.790373 0.864916
vt 0.792300 0.868560
vt 0.791698 0.869184
vt 0.790990 0.869919
vt 0.789540 0.865247
vt 0.788707 0.865579
vt 0.790282 0.870654
vt 0.789680 0.871278
vt 0.787999 0.865861
vt 0.961245 0.755702
vt 0.960450 0.755954
vt 0.961253 0.760821
vt 0.960459 0.761289
vt 0.868025 0.869068
vt 0.868025 0.872955
vt 0.867092 0.873020
vt 0.867092 0.869188
vt 0.866299 0.873201
vt 0.866299 0.869524
vt 0.933479 0.869647
vt 0.933340 0.868698
vt 0.933177 0.867582
vt 0.933013 0.866465
vt 0.932875 0.865516
vt 0.942487 0.870229
vt 0.942487 0.872895
vt 0.941694 0.873077
vt 0.941694 0.870565
vt 0.940761 0.873142
vt 0.940761 0.870686
vt 0.939828 0.873077
vt 0.939828 0.870565
vt 0.939035 0.872895
vt 0.939035 0.870229
vt 0.794584 0.871381
vt 0.794182 0.872252
vt 0.793708 0.873276
vt 0.793234 0.874300
vt 0.792832 0.875170
vt 0.869751 0.869524
vt 0.868958 0.873020
vt 0.868958 0.869188
vt 0.864573 0.877528
vt 0.864573 0.882102
vt 0.863640 0.882037
vt 0.863640 0.877528
vt 0.864573 0.885989
vt 0.863640 0.885869
vt 0.862847 0.885533
vt 0.862847 0.881856
vt 0.862847 0.877528
vt 0.906616 0.876995
vt 0.902508 0.875170
vt 0.902910 0.874299
vt 0.906758 0.876009
vt 0.899356 0.871278
vt 0.899958 0.870653
vt 0.900666 0.869919
vt 0.903384 0.873275
vt 0.906927 0.874849
vt 0.903858 0.872251
vt 0.907095 0.873689
vt 0.901374 0.869184
vt 0.901976 0.868560
vt 0.904261 0.871381
vt 0.907238 0.872704
vt 0.929433 0.878987
vt 0.929433 0.876032
vt 0.929433 0.881498
vt 0.928500 0.881378
vt 0.928500 0.878922
vt 0.928500 0.876032
vt 0.927567 0.878987
vt 0.927567 0.876032
vt 0.927567 0.881498
vt 0.926774 0.881834
vt 0.926774 0.879168
vt 0.926774 0.876032
vt 0.819968 0.872704
vt 0.823199 0.872282
vt 0.823338 0.873231
vt 0.819825 0.873690
vt 0.826191 0.870226
vt 0.826590 0.870996
vt 0.827060 0.871901
vt 0.823501 0.874347
vt 0.819657 0.874849
vt 0.823664 0.875463
vt 0.819489 0.876009
vt 0.827531 0.872807
vt 0.827930 0.873576
vt 0.823803 0.876412
vt 0.819346 0.876995
vt 0.865506 0.882037
vt 0.865506 0.877528
vt 0.865506 0.885869
vt 0.959526 0.779601
vt 0.960458 0.779510
vt 0.960450 0.784845
vt 0.959529 0.773234
vt 0.960461 0.773234
vt 0.961252 0.773234
vt 0.961249 0.779258
vt 0.961242 0.784377
vt 0.897675 0.865861
vt 0.898383 0.865579
vt 0.897675 0.859774
vt 0.898383 0.859877
vt 0.899216 0.859998
vt 0.899216 0.865247
vt 0.900049 0.864915
vt 0.900049 0.860119
vt 0.900757 0.860221
vt 0.900757 0.864633
vt 0.876654 0.885222
vt 0.876660 0.881511
vt 0.877451 0.881258
vt 0.877446 0.884754
vt 0.876662 0.877145
vt 0.877453 0.877145
vt 0.878386 0.877145
vt 0.878384 0.881168
vt 0.878378 0.884587
vt 0.879317 0.881258
vt 0.879312 0.884754
vt 0.879319 0.877145
vt 0.880114 0.877145
vt 0.880112 0.881511
vt 0.880106 0.885222
vt 0.828475 0.866808
vt 0.829074 0.867279
vt 0.829729 0.862577
vt 0.830437 0.862680
vt 0.831270 0.862801
vt 0.829778 0.867834
vt 0.830483 0.868389
vt 0.832103 0.862922
vt 0.832811 0.863025
vt 0.831082 0.868860
vt 0.957790 0.784377
vt 0.957798 0.779258
vt 0.958592 0.779510
vt 0.958584 0.784845
vt 0.957801 0.773234
vt 0.958595 0.773234
vt 0.959526 0.766867
vt 0.960458 0.766958
vt 0.959517 0.761456
vt 0.960450 0.761623
vt 0.961242 0.762091
vt 0.961249 0.767210
vt 0.899404 0.853938
vt 0.900003 0.854410
vt 0.902556 0.849222
vt 0.902955 0.849992
vt 0.903425 0.850898
vt 0.900707 0.854965
vt 0.901412 0.855520
vt 0.903895 0.851803
vt 0.904295 0.852573
vt 0.902011 0.855991
vt 0.876660 0.872778
vt 0.877451 0.873031
vt 0.876654 0.869068
vt 0.877446 0.869535
vt 0.878378 0.869703
vt 0.878384 0.873122
vt 0.879317 0.873031
vt 0.879312 0.869535
vt 0.880106 0.869068
vt 0.880112 0.872778
vt 0.829729 0.858166
vt 0.830437 0.857884
vt 0.828510 0.854239
vt 0.829111 0.853615
vt 0.829820 0.852880
vt 0.831270 0.857552
vt 0.832103 0.857220
vt 0.830528 0.852145
vt 0.831129 0.851521
vt 0.832811 0.856938
vt 0.957798 0.767210
vt 0.958592 0.766958
vt 0.957790 0.762091
vt 0.958584 0.761623
vt 0.874928 0.885989
vt 0.874928 0.882102
vt 0.875861 0.882037
vt 0.875861 0.885869
vt 0.874928 0.877528
vt 0.875861 0.877528
vt 0.876654 0.877528
vt 0.876654 0.881856
vt 0.876654 0.885533
vt 0.906683 0.846386
vt 0.906822 0.847335
vt 0.911140 0.845804
vt 0.910997 0.846790
vt 0.910829 0.847949
vt 0.906985 0.848452
vt 0.907148 0.849568
vt 0.910660 0.849109
vt 0.910518 0.850095
vt 0.907287 0.850517
vt 0.923322 0.881834
vt 0.923322 0.879168
vt 0.924115 0.878987
vt 0.924115 0.881498
vt 0.923322 0.876032
vt 0.924115 0.876032
vt 0.925048 0.876032
vt 0.925048 0.878922
vt 0.925048 0.881378
vt 0.925981 0.878987
vt 0.925981 0.881498
vt 0.925981 0.876032
vt 0.826225 0.851418
vt 0.826628 0.850548
vt 0.823248 0.850095
vt 0.823391 0.849109
vt 0.823559 0.847950
vt 0.827102 0.849524
vt 0.827575 0.848499
vt 0.823727 0.846790
vt 0.823870 0.845804
vt 0.827978 0.847629
vt 0.873995 0.882037
vt 0.873995 0.885869
vt 0.873995 0.877528
vt 0.874928 0.872955
vt 0.875861 0.873020
vt 0.874928 0.869067
vt 0.875861 0.869188
vt 0.876654 0.869524
vt 0.876654 0.873201
vt 0.915248 0.847629
vt 0.914845 0.848499
vt 0.918399 0.851521
vt 0.917797 0.852145
vt 0.917089 0.852880
vt 0.914371 0.849523
vt 0.913898 0.850547
vt 0.916381 0.853614
vt 0.915779 0.854239
vt 0.913495 0.851418
vt 0.923322 0.872895
vt 0.924115 0.873077
vt 0.923322 0.870229
vt 0.924115 0.870565
vt 0.925048 0.870686
vt 0.925048 0.873142
vt 0.925981 0.873077
vt 0.925981 0.870565
vt 0.926774 0.870229
vt 0.926774 0.872895
vt 0.820017 0.850517
vt 0.819878 0.849569
vt 0.817025 0.852573
vt 0.816626 0.851804
vt 0.816156 0.850898
vt 0.819715 0.848452
vt 0.819552 0.847336
vt 0.815685 0.849992
vt 0.815286 0.849223
vt 0.819413 0.846387
vt 0.873995 0.873020
vt 0.873202 0.869524
vt 0.873995 0.869188
vt 0.893427 0.845804
vt 0.893418 0.851215
vt 0.892486 0.851306
vt 0.892494 0.845972
vt 0.893415 0.857582
vt 0.892483 0.857582
vt 0.891691 0.857582
vt 0.891694 0.851559
vt 0.891702 0.846439
vt 0.920081 0.856938
vt 0.919373 0.857220
vt 0.920081 0.863024
vt 0.919373 0.862922
vt 0.918540 0.862801
vt 0.918540 0.857551
vt 0.917706 0.857883
vt 0.917706 0.862680
vt 0.916998 0.862577
vt 0.916998 0.858165
vt 0.884480 0.869068
vt 0.884475 0.872778
vt 0.883683 0.873031
vt 0.883688 0.869535
vt 0.884473 0.877145
vt 0.883681 0.877145
vt 0.882749 0.877145
vt 0.882751 0.873122
vt 0.882756 0.869703
vt 0.881817 0.873031
vt 0.881822 0.869535
vt 0.881815 0.877145
vt 0.881021 0.877145
vt 0.881023 0.872778
vt 0.881028 0.869068
vt 0.814741 0.855991
vt 0.814142 0.855520
vt 0.813487 0.860222
vt 0.812779 0.860119
vt 0.811946 0.859998
vt 0.813438 0.854965
vt 0.812733 0.854410
vt 0.811113 0.859877
vt 0.810405 0.859774
vt 0.812134 0.853939
vt 0.895154 0.846439
vt 0.895146 0.851559
vt 0.894352 0.851306
vt 0.894360 0.845972
vt 0.895143 0.857582
vt 0.894349 0.857582
vt 0.893418 0.863949
vt 0.892486 0.863859
vt 0.893427 0.869360
vt 0.892494 0.869193
vt 0.891702 0.868725
vt 0.891694 0.863606
vt 0.918351 0.868860
vt 0.917753 0.868388
vt 0.915200 0.873576
vt 0.914800 0.872806
vt 0.914330 0.871901
vt 0.917048 0.867834
vt 0.916344 0.867279
vt 0.913860 0.870995
vt 0.913460 0.870225
vt 0.915745 0.866807
vt 0.884475 0.881511
vt 0.883683 0.881258
vt 0.883688 0.884754
vt 0.882756 0.884587
vt 0.882751 0.881168
vt 0.881817 0.881258
vt 0.881822 0.884754
vt 0.881028 0.885222
vt 0.881023 0.881511
vt 0.813487 0.864634
vt 0.812779 0.864916
vt 0.814706 0.868560
vt 0.814105 0.869184
vt 0.813397 0.869919
vt 0.811946 0.865247
vt 0.811113 0.865579
vt 0.812688 0.870654
vt 0.812087 0.871278
vt 0.810405 0.865861
vt 0.895146 0.863606
vt 0.894352 0.863859
vt 0.895154 0.868725
vt 0.894360 0.869193
vt 0.864573 0.869067
vt 0.864573 0.872955
vt 0.863640 0.873020
vt 0.863640 0.869188
vt 0.862847 0.873201
vt 0.862847 0.869524
vt 0.911072 0.876412
vt 0.910934 0.875463
vt 0.910770 0.874347
vt 0.910607 0.873230
vt 0.910469 0.872281
vt 0.929433 0.873077
vt 0.929433 0.870565
vt 0.928500 0.873142
vt 0.928500 0.870686
vt 0.927567 0.873077
vt 0.927567 0.870565
vt 0.926774 0.870229
vt 0.816991 0.871381
vt 0.816588 0.872252
vt 0.816114 0.873276
vt 0.815641 0.874300
vt 0.815238 0.875170
vt 0.865506 0.873020
vt 0.865506 0.869188
vt 0.231727 0.436839
vt 0.231674 0.455865
vt 0.258130 0.516764
vt 0.262539 0.516764
vt 0.262539 0.528980
vt 0.258130 0.528980
vt 0.276985 0.516764
vt 0.281394 0.516764
vt 0.281394 0.528980
vt 0.276985 0.528980
vt 0.231469 0.470162
vt 0.243685 0.455863
vt 0.243685 0.470162
vt 0.231777 0.418875
vt 0.231469 0.404578
vt 0.243685 0.404578
vt 0.243685 0.418877
vt 0.222651 0.535746
vt 0.221016 0.533273
vt 0.172651 0.470162
vt 0.172959 0.455865
vt 0.184866 0.455863
vt 0.172909 0.437900
vt 0.184866 0.437900
vt 0.172856 0.418875
vt 0.172651 0.404578
vt 0.184866 0.418877
vt 0.240465 0.515858
vt 0.252532 0.515858
vt 0.166607 0.472634
vt 0.168242 0.470162
vt 0.243685 0.436839
vt 0.461350 0.130471
vt 0.461350 0.113030
vt 0.461350 0.099441
vt 0.475796 0.113030
vt 0.475796 0.130471
vt 0.475796 0.146851
vt 0.475796 0.160441
vt 0.461350 0.160441
vt 0.461350 0.146851
vt 0.298039 0.508814
vt 0.298039 0.526778
vt 0.297422 0.526778
vt 0.248093 0.404578
vt 0.262539 0.404578
vt 0.266948 0.404578
vt 0.298821 0.164167
vt 0.316790 0.164167
vt 0.316790 0.191931
vt 0.298826 0.191981
vt 0.200103 0.421739
vt 0.201209 0.420084
vt 0.192199 0.455722
vt 0.235033 0.561554
vt 0.234118 0.561554
vt 0.275255 0.572238
vt 0.275255 0.560171
vt 0.234118 0.561554
vt 0.233203 0.561554
vt 0.142390 0.454655
vt 0.141285 0.453001
vt 0.133380 0.419018
vt 0.328857 0.164167
vt 0.198449 0.453579
vt 0.196498 0.453191
vt 0.194546 0.453579
vt 0.192892 0.454684
vt 0.134074 0.420055
vt 0.135728 0.421161
vt 0.137679 0.421549
vt 0.139631 0.421161
vt 0.281153 0.528980
vt 0.281153 0.556793
vt 0.280537 0.556793
vt 0.280537 0.528980
vt 0.281153 0.574762
vt 0.280537 0.574762
vt 0.235724 0.535745
vt 0.235724 0.563509
vt 0.235107 0.563509
vt 0.235107 0.535745
s 1
usemtl Aseets_Binder_MAT_TEX
f 85/1/1 16/2/1 156/3/1 78/4/1
f 82/5/1 79/6/1 153/7/1 24/8/1
f 49/9/2 6/10/2 18/11/2 41/12/2
f 12/13/2 50/14/2 42/15/2 21/16/2
f 33/17/2 150/18/2 160/19/2 3/20/2
f 50/21/3 12/22/3 28/23/3 54/24/3
f 6/25/3 49/26/3 53/27/3 25/28/3
f 87/29/4 76/30/4 75/31/4 90/32/4 91/33/4 89/34/4 86/35/4 88/36/4
f 92/37/4 93/38/4 71/39/4 72/40/4 96/41/4 99/42/4 98/43/4 97/44/4 94/45/4 95/46/4
f 50/14/2 730/47/2 713/48/2 42/15/2
f 45/49/4 716/50/4 712/51/4 164/52/4
f 49/26/3 730/53/3 717/54/3 53/27/3
f 712/55/1 725/56/1 166/57/1 164/58/1
f 699/59/5 709/60/5 693/61/5 683/62/5
f 106/63/4 100/64/4 714/65/4 724/66/4 107/67/4 110/68/4 108/69/4 111/70/4
f 68/71/3 59/72/3 60/73/3 67/74/3
f 64/75/3 55/76/3 56/77/3 63/78/3
f 24/3/6 153/79/6 158/80/6 9/81/6
f 145/82/1 78/4/1 726/83/1 720/84/1
f 118/85/4 82/86/4 24/87/4 71/39/4 93/38/4 120/88/4 121/89/4 119/90/4 117/91/4
f 9/92/2 158/93/2 149/94/2 36/95/2
f 63/96/6 72/97/6 71/98/6 64/99/6
f 115/100/6 83/101/6 680/102/6 690/103/6
f 113/104/5 81/105/5 156/106/5 160/107/5
f 67/108/5 75/109/5 76/110/5 68/111/5
f 75/31/4 16/112/4 85/113/4 123/114/4 124/115/4 122/116/4 90/32/4
f 36/117/7 149/118/7 136/119/7 135/120/7 686/121/7 702/122/7 151/123/7 28/124/7 697/125/7 681/126/7 56/127/7 55/128/7
f 128/129/4 679/130/4 691/131/4 76/30/4 87/29/4 125/132/4 126/133/4 127/134/4
f 132/135/4 687/136/4 722/137/4 724/66/4 109/138/4 131/139/4
f 123/114/4 85/113/4 711/140/4 714/65/4 100/64/4 133/141/4
f 96/41/4 72/40/4 688/142/4 687/136/4 132/135/4 137/143/4 138/144/4 140/145/4 139/146/4
f 64/75/3 9/147/3 36/148/3 55/76/3
f 698/149/3 682/150/3 681/151/3 697/152/3
f 3/112/3 67/74/3 60/73/3 33/153/3
f 134/154/8 116/155/8 150/156/8 33/157/8 60/158/8 59/159/8 689/160/8 705/161/8 25/124/8 152/123/8 700/162/8 684/163/8
f 68/71/3 692/164/3 689/165/3 59/72/3
f 9/81/6 64/99/6 71/98/6 24/3/6
f 63/96/6 682/166/6 688/167/6 72/97/6
f 708/168/5 692/169/5 691/170/5 707/171/5
f 67/108/5 3/172/5 16/173/5 75/109/5
f 112/174/4 134/175/4 684/176/4 683/177/4
f 158/80/6 153/79/6 84/178/6 114/179/6
f 46/180/1 716/181/1 711/182/1 85/1/1
f 10/183/3 14/184/3 7/185/3 1/186/3 5/187/3 62/188/3 84/189/3 153/190/3 79/191/3
f 31/192/3 15/193/3 27/194/3 19/195/3 30/196/3 729/197/3 721/198/3 47/199/3
f 144/9/2 148/200/2 155/201/2 159/10/2
f 157/13/2 154/202/2 147/203/2 143/14/2
f 143/14/2 147/203/2 719/204/2 727/47/2
f 146/205/6 45/206/6 164/207/6 166/208/6
f 144/209/4 142/210/4 723/211/4 727/212/4
f 706/213/4 702/214/4 686/215/4 690/216/4
f 11/217/3 13/218/3 22/219/3 729/197/3 718/220/3 694/221/3
f 38/222/3 8/223/3 47/199/3 721/198/3 726/224/3 78/225/3
f 57/226/3 161/227/3 162/228/3 2/229/3 4/230/3 11/217/3 694/221/3 680/231/3 83/232/3
f 23/233/3 26/234/3 29/235/3 32/236/3 74/237/3 80/238/3 693/239/3 685/240/3
f 112/174/4 113/241/4 116/242/4 134/175/4
f 114/243/4 115/244/4 135/245/4 136/246/4
f 65/247/3 58/248/3 61/249/3 52/250/3 51/251/3 48/252/3 57/226/3 83/232/3 84/189/3 62/188/3
f 114/243/4 136/246/4 149/253/4 158/254/4
f 3/172/5 160/107/5 156/106/5 16/173/5
f 160/22/4 150/255/4 116/242/4 113/241/4
f 115/100/6 114/179/6 84/178/6 83/101/6
f 113/104/5 112/256/5 80/257/5 81/105/5
f 81/258/3 69/259/3 40/260/3 35/261/3 38/222/3 78/225/3 156/262/3
f 74/237/3 73/263/3 77/264/3 70/265/3 66/266/3 69/259/3 81/258/3 80/238/3
f 159/267/4 152/268/4 142/210/4 144/209/4
f 143/269/4 141/270/4 151/271/4 157/272/4
f 74/273/9 32/274/10 125/275/10 87/276/9
f 32/277/10 29/278/11 126/279/11 125/280/10
f 29/278/11 26/281/1 127/282/1 126/279/11
f 26/281/1 23/283/12 128/284/12 127/282/1
f 23/283/12 20/285/13 129/286/13 128/284/12
f 20/285/13 17/287/14 130/288/14 129/286/13
f 17/289/14 30/290/15 107/291/15 130/292/14
f 30/290/15 19/293/16 110/294/16 107/291/15
f 19/293/16 27/295/5 108/296/5 110/294/16
f 27/295/5 15/297/17 111/298/17 108/296/5
f 15/297/17 31/299/18 106/300/18 111/298/17
f 31/301/18 47/302/19 100/303/19 106/304/18
f 47/302/19 8/305/20 133/306/20 100/303/19
f 8/305/20 38/307/21 123/308/21 133/306/20
f 38/307/21 35/309/2 124/310/2 123/308/21
f 35/309/2 40/311/22 122/312/22 124/310/2
f 40/311/22 69/313/23 90/314/23 122/312/22
f 69/313/23 66/315/24 91/202/24 90/314/23
f 66/316/24 70/317/25 89/318/25 91/319/24
f 70/317/25 77/320/6 86/321/6 89/318/25
f 77/320/6 73/322/26 88/323/26 86/321/6
f 73/322/26 74/273/9 87/276/9 88/323/26
f 65/280/18 62/324/19 93/302/19 92/301/18
f 62/324/19 5/325/19 120/326/19 93/302/19
f 5/325/19 1/327/20 121/305/20 120/326/19
f 1/327/20 7/328/2 119/309/2 121/305/20
f 7/328/2 14/329/22 117/311/22 119/309/2
f 14/329/22 10/330/23 118/331/23 117/311/22
f 10/330/23 39/332/23 103/313/23 118/331/23
f 39/332/23 37/288/24 104/315/24 103/313/23
f 37/299/24 43/333/25 102/334/25 104/300/24
f 43/333/25 44/335/6 101/336/6 102/334/25
f 44/335/6 34/337/26 105/338/26 101/336/6
f 34/337/26 22/339/9 109/340/9 105/338/26
f 22/339/9 13/316/10 131/319/10 109/340/9
f 13/341/10 11/342/27 132/343/27 131/344/10
f 11/342/27 4/345/11 137/346/11 132/343/27
f 4/345/11 2/347/1 138/348/1 137/346/11
f 2/347/1 162/349/13 140/350/13 138/348/1
f 162/349/13 161/351/14 139/352/14 140/350/13
f 161/353/14 57/354/15 96/355/15 139/356/14
f 57/354/15 48/357/16 99/358/16 96/355/15
f 48/357/16 51/359/28 98/360/28 99/358/16
f 51/359/28 52/361/5 97/362/5 98/360/28
f 52/361/5 61/363/29 94/364/29 97/362/5
f 61/363/29 58/365/17 95/366/17 94/364/29
f 58/365/17 65/289/18 92/292/18 95/366/17
f 145/367/3 720/368/3 725/369/3 165/49/3
f 167/370/30 296/371/31 551/372/32 295/373/33
f 296/371/31 175/374/34 297/375/35 551/372/32
f 551/372/32 297/375/35 176/376/36 298/377/37
f 295/373/33 551/372/32 298/377/37 168/378/38
f 168/379/38 298/380/37 552/381/39 299/382/40
f 298/380/37 176/383/36 300/384/41 552/381/39
f 552/381/39 300/384/41 177/385/42 301/386/43
f 299/382/40 552/381/39 301/386/43 169/387/44
f 169/387/44 301/386/43 553/388/45 302/389/46
f 301/386/43 177/385/42 303/390/47 553/388/45
f 553/388/45 303/390/47 178/391/48 304/392/49
f 302/389/46 553/388/45 304/392/49 170/393/50
f 170/394/50 304/395/49 554/396/51 305/397/52
f 304/395/49 178/398/48 306/399/53 554/396/51
f 554/396/51 306/399/53 179/400/54 307/401/55
f 305/397/52 554/396/51 307/401/55 171/402/56
f 171/402/56 307/401/55 555/403/57 308/404/58
f 307/401/55 179/400/54 309/405/59 555/403/57
f 555/403/57 309/405/59 180/406/60 310/407/61
f 308/404/58 555/403/57 310/407/61 172/408/62
f 172/409/62 310/410/61 556/411/63 311/412/64
f 310/410/61 180/413/60 312/414/65 556/411/63
f 556/411/63 312/414/65 181/415/66 313/416/67
f 311/412/64 556/411/63 313/416/67 173/417/68
f 173/417/68 313/416/67 557/418/69 314/419/70
f 313/416/67 181/415/66 315/420/71 557/418/69
f 557/418/69 315/420/71 182/421/72 316/422/73
f 314/419/70 557/418/69 316/422/73 174/423/74
f 174/424/74 316/425/73 558/426/75 317/427/76
f 316/425/73 182/428/72 318/429/77 558/426/75
f 558/426/75 318/429/77 175/374/34 296/371/31
f 317/427/76 558/426/75 296/371/31 167/370/30
f 175/430/34 319/431/78 559/432/79 297/433/35
f 319/431/78 183/434/2 320/435/80 559/432/79
f 559/432/79 320/435/80 184/436/81 321/437/82
f 297/433/35 559/432/79 321/437/82 176/438/36
f 176/383/36 321/439/82 560/440/83 300/384/41
f 321/439/82 184/441/81 322/442/84 560/440/83
f 560/440/83 322/442/84 185/443/85 323/444/86
f 300/384/41 560/440/83 323/444/86 177/385/42
f 177/385/42 323/444/86 561/445/87 303/390/47
f 323/444/86 185/443/85 324/446/88 561/445/87
f 561/445/87 324/446/88 186/447/89 325/448/90
f 303/390/47 561/445/87 325/448/90 178/391/48
f 178/449/48 325/450/90 562/451/91 306/452/53
f 325/450/90 186/453/89 326/454/92 562/451/91
f 562/451/91 326/454/92 187/455/1 327/456/93
f 306/452/53 562/451/91 327/456/93 179/457/54
f 179/457/54 327/456/93 563/458/94 309/459/59
f 327/456/93 187/455/1 328/460/95 563/458/94
f 563/458/94 328/460/95 188/461/96 329/462/97
f 309/459/59 563/458/94 329/462/97 180/463/60
f 180/413/60 329/464/97 564/465/98 312/414/65
f 329/464/97 188/466/96 330/467/99 564/465/98
f 564/465/98 330/467/99 189/468/100 331/469/101
f 312/414/65 564/465/98 331/469/101 181/415/66
f 181/415/66 331/469/101 565/470/102 315/420/71
f 331/469/101 189/468/100 332/471/103 565/470/102
f 565/470/102 332/471/103 190/472/104 333/473/105
f 315/420/71 565/470/102 333/473/105 182/421/72
f 182/474/72 333/475/105 566/476/106 318/477/77
f 333/475/105 190/478/104 334/479/107 566/476/106
f 566/476/106 334/479/107 183/434/2 319/431/78
f 318/477/77 566/476/106 319/431/78 175/430/34
f 183/434/2 335/480/108 567/481/109 320/435/80
f 335/480/108 191/482/110 336/483/111 567/481/109
f 567/481/109 336/483/111 192/484/112 337/485/113
f 320/435/80 567/481/109 337/485/113 184/436/81
f 184/441/81 337/486/113 568/487/114 322/442/84
f 337/486/113 192/488/112 338/489/115 568/487/114
f 568/487/114 338/489/115 193/490/116 339/491/117
f 322/442/84 568/487/114 339/491/117 185/443/85
f 185/443/85 339/491/117 569/492/118 324/446/88
f 339/491/117 193/490/116 340/493/119 569/492/118
f 569/492/118 340/493/119 194/494/120 341/495/121
f 324/446/88 569/492/118 341/495/121 186/447/89
f 186/453/89 341/496/121 570/497/122 326/454/92
f 341/496/121 194/498/120 342/499/123 570/497/122
f 570/497/122 342/499/123 195/500/124 343/501/125
f 326/454/92 570/497/122 343/501/125 187/455/1
f 187/455/1 343/501/125 571/502/126 328/460/95
f 343/501/125 195/500/124 344/503/127 571/502/126
f 571/502/126 344/503/127 196/504/128 345/505/129
f 328/460/95 571/502/126 345/505/129 188/461/96
f 188/466/96 345/506/129 572/507/130 330/467/99
f 345/506/129 196/508/128 346/509/131 572/507/130
f 572/507/130 346/509/131 197/510/132 347/511/133
f 330/467/99 572/507/130 347/511/133 189/468/100
f 189/468/100 347/511/133 573/512/134 332/471/103
f 347/511/133 197/510/132 348/513/135 573/512/134
f 573/512/134 348/513/135 198/514/136 349/515/137
f 332/471/103 573/512/134 349/515/137 190/472/104
f 190/478/104 349/516/137 574/517/138 334/479/107
f 349/516/137 198/518/136 350/519/139 574/517/138
f 574/517/138 350/519/139 191/482/110 335/480/108
f 334/479/107 574/517/138 335/480/108 183/434/2
f 191/520/110 351/521/140 575/522/141 336/523/111
f 351/521/140 199/524/142 352/525/143 575/522/141
f 575/522/141 352/525/143 200/526/144 353/527/145
f 336/523/111 575/522/141 353/527/145 192/528/112
f 192/488/112 353/529/145 576/530/146 338/489/115
f 353/529/145 200/531/144 354/532/147 576/530/146
f 576/530/146 354/532/147 201/533/148 355/534/149
f 338/489/115 576/530/146 355/534/149 193/490/116
f 193/490/116 355/534/149 577/535/150 340/493/119
f 355/534/149 201/533/148 356/536/151 577/535/150
f 577/535/150 356/536/151 202/537/152 357/538/153
f 340/493/119 577/535/150 357/538/153 194/494/120
f 194/539/120 357/540/153 578/541/154 342/542/123
f 357/540/153 202/543/152 358/544/155 578/541/154
f 578/541/154 358/544/155 203/545/156 359/546/157
f 342/542/123 578/541/154 359/546/157 195/547/124
f 195/547/124 359/546/157 579/548/158 344/549/127
f 359/546/157 203/545/156 360/550/159 579/548/158
f 579/548/158 360/550/159 204/551/160 361/552/161
f 344/549/127 579/548/158 361/552/161 196/553/128
f 196/508/128 361/554/161 580/555/162 346/509/131
f 361/554/161 204/556/160 362/557/163 580/555/162
f 580/555/162 362/557/163 205/558/164 363/559/165
f 346/509/131 580/555/162 363/559/165 197/510/132
f 197/510/132 363/559/165 581/560/166 348/513/135
f 363/559/165 205/558/164 364/561/167 581/560/166
f 581/560/166 364/561/167 206/562/168 365/563/169
f 348/513/135 581/560/166 365/563/169 198/514/136
f 198/564/136 365/425/169 582/565/170 350/566/139
f 365/425/169 206/567/168 366/568/171 582/565/170
f 582/565/170 366/568/171 199/524/142 351/521/140
f 350/566/139 582/565/170 351/521/140 191/520/110
f 199/524/56 367/569/172 583/570/173 352/525/143
f 367/569/172 207/571/174 368/572/175 583/570/173
f 583/570/173 368/572/175 208/573/176 369/574/177
f 352/525/143 583/570/173 369/574/177 200/526/144
f 200/531/144 369/575/177 584/576/178 354/532/147
f 369/575/177 208/577/176 370/578/179 584/576/178
f 584/576/178 370/578/179 209/579/180 371/580/181
f 354/532/147 584/576/178 371/580/181 201/533/148
f 201/533/148 371/580/181 585/581/182 356/536/151
f 371/580/181 209/579/180 372/582/183 585/581/182
f 585/581/182 372/582/183 210/583/184 373/584/185
f 356/536/151 585/581/182 373/584/185 202/537/152
f 202/543/152 373/585/185 586/586/186 358/544/155
f 373/585/185 210/587/184 374/588/187 586/586/186
f 586/586/186 374/588/187 211/589/188 375/590/189
f 358/544/155 586/586/186 375/590/189 203/545/30
f 203/545/30 375/590/189 587/591/190 360/550/159
f 375/590/189 211/589/188 376/592/191 587/591/190
f 587/591/190 376/592/191 212/593/192 377/594/193
f 360/550/159 587/591/190 377/594/193 204/551/160
f 204/556/160 377/595/193 588/596/194 362/557/163
f 377/595/193 212/597/192 378/598/195 588/596/194
f 588/596/194 378/598/195 213/599/196 379/600/197
f 362/557/163 588/596/194 379/600/197 205/558/164
f 205/558/164 379/600/197 589/601/198 364/561/167
f 379/600/197 213/599/196 380/602/199 589/601/198
f 589/601/198 380/602/199 214/603/200 381/604/201
f 364/561/167 589/601/198 381/604/201 206/562/168
f 206/567/168 381/605/201 590/606/202 366/568/171
f 381/605/201 214/607/200 382/608/203 590/606/202
f 590/606/202 382/608/203 207/571/174 367/569/172
f 366/568/171 590/606/202 367/569/172 199/524/56
f 207/609/174 383/610/204 591/611/205 368/612/175
f 383/610/204 215/613/1 384/614/206 591/611/205
f 591/611/205 384/614/206 216/615/207 385/616/208
f 368/612/175 591/611/205 385/616/208 208/617/176
f 208/577/176 385/618/208 592/619/209 370/578/179
f 385/618/208 216/620/207 386/621/210 592/619/209
f 592/619/209 386/621/210 217/622/211 387/623/212
f 370/578/179 592/619/209 387/623/212 209/579/180
f 209/579/180 387/623/212 593/624/213 372/582/183
f 387/623/212 217/622/211 388/625/214 593/624/213
f 593/624/213 388/625/214 218/626/215 389/627/216
f 372/582/183 593/624/213 389/627/216 210/583/184
f 210/628/184 389/629/216 594/630/217 374/631/187
f 389/629/216 218/632/215 390/633/218 594/630/217
f 594/630/217 390/633/218 219/634/2 391/635/219
f 374/631/187 594/630/217 391/635/219 211/636/188
f 211/636/188 391/635/219 595/637/220 376/638/191
f 391/635/219 219/634/2 392/639/221 595/637/220
f 595/637/220 392/639/221 220/640/222 393/641/223
f 376/638/191 595/637/220 393/641/223 212/642/192
f 212/597/192 393/643/223 596/644/224 378/598/195
f 393/643/223 220/645/222 394/646/225 596/644/224
f 596/644/224 394/646/225 221/647/226 395/648/227
f 378/598/195 596/644/224 395/648/227 213/599/196
f 213/599/196 395/648/227 597/649/228 380/602/199
f 395/648/227 221/647/226 396/650/229 597/649/228
f 597/649/228 396/650/229 222/651/230 397/652/231
f 380/602/199 597/649/228 397/652/231 214/603/200
f 214/653/200 397/654/231 598/655/232 382/656/203
f 397/654/231 222/657/230 398/658/233 598/655/232
f 598/655/232 398/658/233 215/613/1 383/610/204
f 382/656/203 598/655/232 383/610/204 207/609/174
f 215/613/1 399/659/234 599/660/235 384/614/206
f 399/659/234 223/661/236 400/662/237 599/660/235
f 599/660/235 400/662/237 224/663/238 401/664/239
f 384/614/206 599/660/235 401/664/239 216/615/207
f 216/620/207 401/665/239 600/666/240 386/621/210
f 401/665/239 224/667/238 402/668/241 600/666/240
f 600/666/240 402/668/241 225/669/242 403/670/243
f 386/621/210 600/666/240 403/670/243 217/622/211
f 217/622/211 403/670/243 601/671/244 388/625/214
f 403/670/243 225/669/242 404/672/245 601/671/244
f 601/671/244 404/672/245 226/673/246 405/674/247
f 388/625/214 601/671/244 405/674/247 218/626/215
f 218/632/215 405/675/247 602/676/248 390/633/218
f 405/675/247 226/677/246 406/678/249 602/676/248
f 602/676/248 406/678/249 227/679/250 407/680/251
f 390/633/218 602/676/248 407/680/251 219/634/2
f 219/634/2 407/680/251 603/681/252 392/639/221
f 407/680/251 227/679/250 408/682/253 603/681/252
f 603/681/252 408/682/253 228/683/254 409/684/255
f 392/639/221 603/681/252 409/684/255 220/640/222
f 220/645/222 409/685/255 604/686/256 394/646/225
f 409/685/255 228/687/254 410/688/257 604/686/256
f 604/686/256 410/688/257 229/689/258 411/690/259
f 394/646/225 604/686/256 411/690/259 221/647/226
f 221/647/226 411/690/259 605/691/260 396/650/229
f 411/690/259 229/689/258 412/692/261 605/691/260
f 605/691/260 412/692/261 230/693/262 413/694/263
f 396/650/229 605/691/260 413/694/263 222/651/230
f 222/657/230 413/695/263 606/696/264 398/658/233
f 413/695/263 230/697/262 414/698/265 606/696/264
f 606/696/264 414/698/265 223/661/236 399/659/234
f 398/658/233 606/696/264 399/659/234 215/613/1
f 223/699/236 415/700/266 607/701/267 400/702/237
f 415/700/266 167/370/156 295/373/33 607/701/267
f 607/701/267 295/373/33 168/378/38 416/703/268
f 400/702/237 607/701/267 416/703/268 224/704/238
f 224/667/238 416/705/268 608/706/269 402/668/241
f 416/705/268 168/379/38 299/382/40 608/706/269
f 608/706/269 299/382/40 169/387/44 417/707/270
f 402/668/241 608/706/269 417/707/270 225/669/242
f 225/669/242 417/707/270 609/708/271 404/672/245
f 417/707/270 169/387/44 302/389/46 609/708/271
f 609/708/271 302/389/46 170/393/50 418/709/272
f 404/672/245 609/708/271 418/709/272 226/673/246
f 226/710/246 418/711/272 610/712/273 406/713/249
f 418/711/272 170/394/50 305/397/52 610/712/273
f 610/712/273 305/397/52 171/402/142 419/714/274
f 406/713/249 610/712/273 419/714/274 227/715/250
f 227/715/250 419/714/274 611/716/275 408/717/253
f 419/714/274 171/402/142 308/404/58 611/716/275
f 611/716/275 308/404/58 172/408/62 420/718/276
f 408/717/253 611/716/275 420/718/276 228/719/254
f 228/687/254 420/720/276 612/721/277 410/688/257
f 420/720/276 172/409/62 311/412/64 612/721/277
f 612/721/277 311/412/64 173/417/68 421/722/278
f 410/688/257 612/721/277 421/722/278 229/689/258
f 229/689/258 421/722/278 613/723/279 412/692/261
f 421/722/278 173/417/68 314/419/70 613/723/279
f 613/723/279 314/419/70 174/423/74 422/724/280
f 412/692/261 613/723/279 422/724/280 230/693/262
f 230/725/262 422/605/280 614/726/281 414/727/265
f 422/605/280 174/424/74 317/427/76 614/726/281
f 614/726/281 317/427/76 167/370/156 415/700/266
f 414/727/265 614/726/281 415/700/266 223/699/236
f 231/728/30 424/729/31 615/730/32 423/731/33
f 424/729/31 239/732/34 425/733/35 615/730/32
f 615/730/32 425/733/35 240/734/36 426/735/37
f 423/731/33 615/730/32 426/735/37 232/736/38
f 232/737/38 426/738/37 616/739/39 427/740/40
f 426/738/37 240/741/36 428/742/41 616/739/39
f 616/739/39 428/742/41 241/743/42 429/744/43
f 427/740/40 616/739/39 429/744/43 233/745/44
f 233/745/44 429/744/43 617/746/45 430/747/46
f 429/744/43 241/743/42 431/748/47 617/746/45
f 617/746/45 431/748/47 242/749/48 432/750/49
f 430/747/46 617/746/45 432/750/49 234/751/50
f 234/543/50 432/540/49 618/752/51 433/753/52
f 432/540/49 242/539/48 434/754/282 618/752/51
f 618/752/51 434/754/282 243/755/54 435/756/55
f 433/753/52 618/752/51 435/756/55 235/757/56
f 235/757/56 435/756/55 619/758/57 436/759/58
f 435/756/55 243/755/54 437/760/59 619/758/57
f 619/758/57 437/760/59 244/761/60 438/762/61
f 436/759/58 619/758/57 438/762/61 236/763/62
f 236/764/62 438/765/61 620/766/63 439/767/64
f 438/765/61 244/768/60 440/769/65 620/766/63
f 620/766/63 440/769/65 245/770/66 441/771/67
f 439/767/64 620/766/63 441/771/67 237/772/68
f 237/772/68 441/771/67 621/773/69 442/774/70
f 441/771/67 245/770/66 443/775/71 621/773/69
f 621/773/69 443/775/71 246/776/72 444/777/73
f 442/774/70 621/773/69 444/777/73 238/778/74
f 238/378/74 444/377/73 622/779/75 445/780/76
f 444/377/73 246/376/72 446/781/77 622/779/75
f 622/779/75 446/781/77 239/732/34 424/729/31
f 445/780/76 622/779/75 424/729/31 231/728/30
f 239/482/34 447/782/78 623/783/79 425/784/35
f 447/782/78 247/785/2 448/786/80 623/783/79
f 623/783/79 448/786/80 248/787/81 449/788/82
f 425/784/35 623/783/79 449/788/82 240/789/36
f 240/741/36 449/790/82 624/791/83 428/742/41
f 449/790/82 248/792/81 450/793/84 624/791/83
f 624/791/83 450/793/84 249/794/85 451/795/86
f 428/742/41 624/791/83 451/795/86 241/743/42
f 241/743/42 451/795/86 625/796/87 431/748/47
f 451/795/86 249/794/85 452/797/88 625/796/87
f 625/796/87 452/797/88 250/798/89 453/799/90
f 431/748/47 625/796/87 453/799/90 242/749/48
f 242/800/48 453/801/90 626/802/91 434/803/282
f 453/801/90 250/804/89 454/805/92 626/802/91
f 626/802/91 454/805/92 251/806/1 455/807/93
f 434/803/282 626/802/91 455/807/93 243/808/54
f 243/808/54 455/807/93 627/809/94 437/810/59
f 455/807/93 251/806/1 456/811/95 627/809/94
f 627/809/94 456/811/95 252/812/96 457/813/97
f 437/810/59 627/809/94 457/813/97 244/814/60
f 244/768/60 457/815/97 628/816/98 440/769/65
f 457/815/97 252/817/96 458/818/99 628/816/98
f 628/816/98 458/818/99 253/819/100 459/820/101
f 440/769/65 628/816/98 459/820/101 245/770/66
f 245/770/66 459/820/101 629/821/102 443/775/71
f 459/820/101 253/819/100 460/822/103 629/821/102
f 629/821/102 460/822/103 254/823/283 461/824/105
f 443/775/71 629/821/102 461/824/105 246/776/72
f 246/825/72 461/826/105 630/827/106 446/828/77
f 461/826/105 254/829/283 462/830/107 630/827/106
f 630/827/106 462/830/107 247/785/2 447/782/78
f 446/828/77 630/827/106 447/782/78 239/482/34
f 247/785/2 463/831/108 631/832/109 448/786/80
f 463/831/108 255/833/110 464/834/111 631/832/109
f 631/832/109 464/834/111 256/835/112 465/836/113
f 448/786/80 631/832/109 465/836/113 248/787/81
f 248/792/81 465/837/113 632/838/114 450/793/84
f 465/837/113 256/839/112 466/840/115 632/838/114
f 632/838/114 466/840/115 257/841/116 467/842/117
f 450/793/84 632/838/114 467/842/117 249/794/85
f 249/794/85 467/842/117 633/843/118 452/797/88
f 467/842/117 257/841/116 468/844/284 633/843/118
f 633/843/118 468/844/284 258/845/120 469/846/121
f 452/797/88 633/843/118 469/846/121 250/798/89
f 250/804/89 469/847/121 634/848/122 454/805/92
f 469/847/121 258/849/120 470/850/285 634/848/122
f 634/848/122 470/850/285 259/851/124 471/852/125
f 454/805/92 634/848/122 471/852/125 251/806/1
f 251/806/1 471/852/125 635/853/126 456/811/95
f 471/852/125 259/851/124 472/854/127 635/853/126
f 635/853/126 472/854/127 260/855/128 473/856/129
f 456/811/95 635/853/126 473/856/129 252/812/96
f 252/817/96 473/857/129 636/858/130 458/818/99
f 473/857/129 260/859/128 474/860/131 636/858/130
f 636/858/130 474/860/131 261/861/132 475/862/133
f 458/818/99 636/858/130 475/862/133 253/819/100
f 253/819/100 475/862/133 637/863/134 460/822/103
f 475/862/133 261/861/132 476/864/135 637/863/134
f 637/863/134 476/864/135 262/865/136 477/866/137
f 460/822/103 637/863/134 477/866/137 254/823/283
f 254/829/283 477/867/137 638/868/138 462/830/107
f 477/867/137 262/869/136 478/870/139 638/868/138
f 638/868/138 478/870/139 255/833/110 463/831/108
f 462/830/107 638/868/138 463/831/108 247/785/2
f 255/871/110 479/872/140 639/873/141 464/874/111
f 479/872/140 263/875/142 480/876/143 639/873/141
f 639/873/141 480/876/143 264/877/144 481/878/145
f 464/874/111 639/873/141 481/878/145 256/879/112
f 256/839/112 481/880/145 640/881/146 466/840/115
f 481/880/145 264/882/144 482/883/147 640/881/146
f 640/881/146 482/883/147 265/884/148 483/885/149
f 466/840/115 640/881/146 483/885/149 257/841/116
f 257/841/116 483/885/149 641/886/150 468/844/284
f 483/885/149 265/884/148 484/887/151 641/886/150
f 641/886/150 484/887/151 266/888/152 485/889/153
f 468/844/284 641/886/150 485/889/153 258/845/120
f 258/890/120 485/891/153 642/892/154 470/893/285
f 485/891/153 266/894/152 486/895/155 642/892/154
f 642/892/154 486/895/155 267/896/156 487/897/157
f 470/893/285 642/892/154 487/897/157 259/898/124
f 259/898/124 487/897/157 643/899/158 472/900/127
f 487/897/157 267/896/156 488/901/159 643/899/158
f 643/899/158 488/901/159 268/763/160 489/762/161
f 472/900/127 643/899/158 489/762/161 260/761/128
f 260/859/128 489/902/161 644/903/162 474/860/131
f 489/902/161 268/904/160 490/905/163 644/903/162
f 644/903/162 490/905/163 269/906/164 491/907/165
f 474/860/131 644/903/162 491/907/165 261/861/132
f 261/861/132 491/907/165 645/908/166 476/864/135
f 491/907/165 269/906/164 492/909/167 645/908/166
f 645/908/166 492/909/167 270/910/168 493/911/169
f 476/864/135 645/908/166 493/911/169 262/865/136
f 262/528/136 493/527/169 646/912/170 478/913/139
f 493/527/169 270/526/168 494/914/171 646/912/170
f 646/912/170 494/914/171 263/875/142 479/872/140
f 478/913/139 646/912/170 479/872/140 255/871/110
f 263/875/56 495/915/172 647/916/173 480/876/143
f 495/915/172 271/917/174 496/918/175 647/916/173
f 647/916/173 496/918/175 272/919/176 497/920/177
f 480/876/143 647/916/173 497/920/177 264/877/144
f 264/882/144 497/921/177 648/922/178 482/883/147
f 497/921/177 272/923/176 498/924/179 648/922/178
f 648/922/178 498/924/179 273/925/180 499/926/181
f 482/883/147 648/922/178 499/926/181 265/884/148
f 265/884/148 499/926/181 649/927/182 484/887/151
f 499/926/181 273/925/180 500/928/286 649/927/182
f 649/927/182 500/928/286 274/929/184 501/930/185
f 484/887/151 649/927/182 501/930/185 266/888/152
f 266/894/152 501/931/185 650/932/186 486/895/155
f 501/931/185 274/933/184 502/934/187 650/932/186
f 650/932/186 502/934/187 275/935/188 503/936/189
f 486/895/155 650/932/186 503/936/189 267/896/30
f 267/896/30 503/936/189 651/937/190 488/901/159
f 503/936/189 275/935/188 504/938/191 651/937/190
f 651/937/190 504/938/191 276/939/192 505/940/193
f 488/901/159 651/937/190 505/940/193 268/763/160
f 268/904/160 505/941/193 652/942/194 490/905/163
f 505/941/193 276/943/192 506/944/195 652/942/194
f 652/942/194 506/944/195 277/945/196 507/946/197
f 490/905/163 652/942/194 507/946/197 269/906/164
f 269/906/164 507/946/197 653/947/198 492/909/167
f 507/946/197 277/945/196 508/948/199 653/947/198
f 653/947/198 508/948/199 278/949/200 509/950/201
f 492/909/167 653/947/198 509/950/201 270/910/168
f 270/526/168 509/574/201 654/951/202 494/914/171
f 509/574/201 278/952/200 510/953/203 654/951/202
f 654/951/202 510/953/203 271/917/174 495/915/172
f 494/914/171 654/951/202 495/915/172 263/875/56
f 271/954/174 511/955/204 655/956/205 496/957/175
f 511/955/204 279/958/1 512/959/206 655/956/205
f 655/956/205 512/959/206 280/960/207 513/961/208
f 496/957/175 655/956/205 513/961/208 272/962/176
f 272/923/176 513/963/208 656/964/209 498/924/179
f 513/963/208 280/965/207 514/966/210 656/964/209
f 656/964/209 514/966/210 281/967/211 515/968/212
f 498/924/179 656/964/209 515/968/212 273/925/180
f 273/925/180 515/968/212 657/969/213 500/928/286
f 515/968/212 281/967/211 516/970/214 657/969/213
f 657/969/213 516/970/214 282/971/215 517/972/216
f 500/928/286 657/969/213 517/972/216 274/929/184
f 274/973/184 517/974/216 658/975/217 502/976/187
f 517/974/216 282/977/215 518/978/218 658/975/217
f 658/975/217 518/978/218 283/979/2 519/980/219
f 502/976/187 658/975/217 519/980/219 275/981/188
f 275/981/188 519/980/219 659/982/220 504/983/191
f 519/980/219 283/979/2 520/984/221 659/982/220
f 659/982/220 520/984/221 284/985/222 521/986/223
f 504/983/191 659/982/220 521/986/223 276/987/192
f 276/943/192 521/988/223 660/989/224 506/944/195
f 521/988/223 284/990/222 522/991/225 660/989/224
f 660/989/224 522/991/225 285/992/226 523/993/227
f 506/944/195 660/989/224 523/993/227 277/945/196
f 277/945/196 523/993/227 661/994/228 508/948/199
f 523/993/227 285/992/226 524/995/229 661/994/228
f 661/994/228 524/995/229 286/996/230 525/997/231
f 508/948/199 661/994/228 525/997/231 278/949/200
f 278/998/200 525/999/231 662/1000/232 510/1001/203
f 525/999/231 286/1002/230 526/1003/233 662/1000/232
f 662/1000/232 526/1003/233 279/958/1 511/955/204
f 510/1001/203 662/1000/232 511/955/204 271/954/174
f 279/958/1 527/1004/234 663/1005/235 512/959/206
f 527/1004/234 287/1006/236 528/1007/237 663/1005/235
f 663/1005/235 528/1007/237 288/1008/238 529/1009/239
f 512/959/206 663/1005/235 529/1009/239 280/960/207
f 280/965/207 529/1010/239 664/1011/240 514/966/210
f 529/1010/239 288/1012/238 530/1013/241 664/1011/240
f 664/1011/240 530/1013/241 289/1014/242 531/1015/243
f 514/966/210 664/1011/240 531/1015/243 281/967/211
f 281/967/211 531/1015/243 665/1016/244 516/970/214
f 531/1015/243 289/1014/242 532/1017/245 665/1016/244
f 665/1016/244 532/1017/245 290/1018/246 533/1019/247
f 516/970/214 665/1016/244 533/1019/247 282/971/215
f 282/977/215 533/1020/247 666/1021/248 518/978/218
f 533/1020/247 290/449/246 534/1022/249 666/1021/248
f 666/1021/248 534/1022/249 291/1023/250 535/1024/251
f 518/978/218 666/1021/248 535/1024/251 283/979/2
f 283/979/2 535/1024/251 667/1025/252 520/984/221
f 535/1024/251 291/1023/250 536/1026/287 667/1025/252
f 667/1025/252 536/1026/287 292/1027/254 537/1028/255
f 520/984/221 667/1025/252 537/1028/255 284/985/222
f 284/990/222 537/1029/255 668/1030/256 522/991/225
f 537/1029/255 292/1031/254 538/1032/288 668/1030/256
f 668/1030/256 538/1032/288 293/1033/258 539/1034/259
f 522/991/225 668/1030/256 539/1034/259 285/992/226
f 285/992/226 539/1034/259 669/1035/260 524/995/229
f 539/1034/259 293/1033/258 540/1036/261 669/1035/260
f 669/1035/260 540/1036/261 294/1037/262 541/1038/263
f 524/995/229 669/1035/260 541/1038/263 286/996/230
f 286/1002/230 541/1039/263 670/1040/264 526/1003/233
f 541/1039/263 294/1041/262 542/1042/265 670/1040/264
f 670/1040/264 542/1042/265 287/1006/236 527/1004/234
f 526/1003/233 670/1040/264 527/1004/234 279/958/1
f 287/1043/236 543/1044/266 671/1045/267 528/1046/237
f 543/1044/266 231/728/156 423/731/33 671/1045/267
f 671/1045/267 423/731/33 232/736/38 544/1047/268
f 528/1046/237 671/1045/267 544/1047/268 288/1048/238
f 288/1012/238 544/1049/268 672/1050/269 530/1013/241
f 544/1049/268 232/737/38 427/740/40 672/1050/269
f 672/1050/269 427/740/40 233/745/44 545/1051/270
f 530/1013/241 672/1050/269 545/1051/270 289/1014/242
f 289/1014/242 545/1051/270 673/1052/271 532/1017/245
f 545/1051/270 233/745/44 430/747/46 673/1052/271
f 673/1052/271 430/747/46 234/751/50 546/1053/272
f 532/1017/245 673/1052/271 546/1053/272 290/1018/246
f 290/587/246 546/585/272 674/1054/273 534/1055/249
f 546/585/272 234/543/50 433/753/52 674/1054/273
f 674/1054/273 433/753/52 235/757/142 547/1056/274
f 534/1055/249 674/1054/273 547/1056/274 291/1057/250
f 291/1057/250 547/1056/274 675/1058/275 536/1059/287
f 547/1056/274 235/757/142 436/759/58 675/1058/275
f 675/1058/275 436/759/58 236/763/62 548/940/276
f 536/1059/287 675/1058/275 548/940/276 292/1060/254
f 292/1031/254 548/1061/276 676/1062/277 538/1032/288
f 548/1061/276 236/764/62 439/767/64 676/1062/277
f 676/1062/277 439/767/64 237/772/68 549/1063/278
f 538/1032/288 676/1062/277 549/1063/278 293/1033/258
f 293/1033/258 549/1063/278 677/1064/279 540/1036/261
f 549/1063/278 237/772/68 442/774/70 677/1064/279
f 677/1064/279 442/774/70 238/778/74 550/1065/280
f 540/1036/261 677/1064/279 550/1065/280 294/1037/262
f 294/704/262 550/703/280 678/1066/281 542/1067/265
f 550/703/280 238/378/74 445/780/76 678/1066/281
f 678/1066/281 445/780/76 231/728/156 543/1044/266
f 542/1067/265 678/1066/281 543/1044/266 287/1043/236
f 694/221/3 718/220/3 728/1068/3 710/1069/3
f 704/1070/6 698/1071/6 12/1072/6 21/1073/6
f 706/1074/6 696/1075/6 154/1076/6 157/1077/6
f 691/170/5 692/169/5 68/111/5 76/110/5
f 696/1078/3 710/1069/3 147/1079/3 154/1080/3
f 701/1081/3 709/1082/3 155/1083/3 148/1084/3
f 699/1085/4 700/1086/4 152/268/4 159/267/4
f 707/1087/4 695/1088/4 41/1089/4 18/190/4
f 695/1088/4 715/1090/4 713/1091/4 41/1089/4
f 703/1092/4 704/1093/4 21/262/4 42/1094/4
f 683/62/5 693/61/5 80/257/5 112/256/5
f 45/1095/1 146/1096/1 79/6/1 82/5/1
f 681/151/3 682/150/3 63/78/3 56/77/3
f 46/180/1 85/1/1 78/4/1 145/82/1
f 705/1097/3 708/1098/3 6/25/3 25/28/3
f 690/216/4 686/215/4 135/245/4 115/244/4
f 710/1069/3 728/1068/3 719/1099/3 147/1079/3
f 717/1100/2 54/1101/2 28/1102/2 151/117/2 141/1103/2 723/1104/2 142/1105/2 152/1106/2 25/1107/2 53/1108/2
f 689/165/3 692/164/3 708/1098/3 705/1097/3
f 687/136/4 688/142/4 704/1093/4 703/1092/4
f 715/1109/289 695/1110/289 731/1111/289 733/304/289
f 691/131/4 679/130/4 695/1088/4 707/1087/4
f 683/177/4 684/176/4 700/1086/4 699/1085/4
f 685/240/3 693/239/3 709/1082/3 701/1081/3
f 680/231/3 694/221/3 710/1069/3 696/1078/3
f 690/103/6 680/102/6 696/1075/6 706/1074/6
f 688/167/6 682/166/6 698/1071/6 704/1070/6
f 157/272/4 151/271/4 702/214/4 706/213/4
f 6/1112/5 708/168/5 707/171/5 18/1083/5
f 12/22/3 698/149/3 697/152/3 28/23/3
f 159/1113/5 155/1114/5 709/60/5 699/59/5
f 732/1115/4 734/1116/4 733/1117/4 731/1118/4
f 718/220/3 729/197/3 30/196/3 17/1119/3 20/1120/3 23/233/3 685/240/3
f 715/1090/4 722/137/4 687/136/4 703/1092/4
f 726/224/3 721/198/3 39/1121/3 10/183/3 79/191/3
f 725/369/3 720/368/3 146/1122/3 166/1123/3
f 713/1091/4 715/1090/4 703/1092/4 42/1094/4
f 46/206/5 145/205/5 165/1124/5 163/1125/5
f 713/48/2 730/47/2 49/9/2 41/12/2
f 712/51/4 716/50/4 46/1126/4 163/1127/4
f 724/66/4 722/137/4 679/130/4 128/129/4 129/1128/4 130/1129/4 107/67/4
f 714/65/4 711/140/4 82/86/4 118/85/4 103/1130/4
f 717/54/3 730/53/3 50/21/3 54/24/3
f 711/182/1 716/181/1 45/1095/1 82/5/1
f 725/56/1 712/55/1 163/1116/1 165/1131/1
f 721/198/3 729/197/3 22/219/3 34/1132/3 44/1133/3 43/1134/3 37/1135/3 39/1121/3
f 724/66/4 714/65/4 103/1130/4 104/1136/4 102/1137/4 101/1138/4 105/1139/4 109/138/4
f 719/1099/3 728/1068/3 701/1081/3 148/1084/3
f 728/1068/3 718/220/3 685/240/3 701/1081/3
f 727/47/2 719/204/2 148/200/2 144/9/2
f 720/84/1 726/83/1 79/6/1 146/1096/1
f 727/212/4 723/211/4 141/270/4 143/269/4
f 695/1140/290 679/1141/290 732/1142/290 731/1143/290
f 679/1141/1 722/1144/1 734/1145/1 732/1142/1
f 722/1146/6 715/1147/6 733/1148/6 734/1149/6
