# Blender 4.5.0
# www.blender.org
mtllib Cross.mtl
o Cross
v -0.027530 -0.000571 0.011421
v -0.027530 0.054489 0.011421
v -0.027530 -0.000571 -0.043640
v -0.027530 0.054489 -0.043640
v -0.027530 0.054489 0.158041
v -0.027530 -0.000571 0.158041
v -0.078175 0.054489 -0.043640
v -0.078175 0.054489 0.011421
v -0.027530 0.054489 -0.119846
v -0.027530 -0.000571 -0.119846
v -0.078175 -0.000571 0.011421
v -0.078175 -0.000571 -0.043640
v 0.027530 -0.000571 0.011421
v 0.027530 0.054489 0.011421
v 0.027530 -0.000571 -0.043640
v 0.027530 0.054489 -0.043640
v 0.027530 0.054489 0.158041
v 0.027530 -0.000571 0.158041
v 0.078175 0.054489 -0.043640
v 0.078175 0.054489 0.011421
v 0.027530 0.054489 -0.119846
v 0.027530 -0.000571 -0.119846
v 0.078175 -0.000571 0.011421
v 0.078175 -0.000571 -0.043640
vn -0.0000 -1.0000 -0.0000
vn -0.0000 -0.0000 -1.0000
vn -1.0000 -0.0000 -0.0000
vn -0.0000 1.0000 -0.0000
vn -0.0000 -0.0000 1.0000
vn 1.0000 -0.0000 -0.0000
vt 0.452957 0.874239
vt 0.452957 0.851679
vt 0.473708 0.851679
vt 0.473708 0.874239
vt 0.475517 0.928024
vt 0.475517 0.950584
vt 0.454766 0.950584
vt 0.454766 0.928024
vt 0.537770 0.791603
vt 0.560331 0.791603
vt 0.560331 0.851679
vt 0.537770 0.851679
vt 0.430396 0.874239
vt 0.430396 0.851679
vt 0.454766 0.905464
vt 0.477326 0.905464
vt 0.477326 0.928024
vt 0.432206 0.936688
vt 0.409645 0.936688
vt 0.409645 0.905464
vt 0.432206 0.905464
vt 0.494459 0.851679
vt 0.494459 0.874239
vt 0.522447 0.928024
vt 0.499887 0.928024
vt 0.499887 0.905464
vt 0.522447 0.905464
vt 0.496268 0.928024
vt 0.496268 0.950584
vt 0.517019 0.851679
vt 0.517019 0.874239
vt 0.517019 0.905464
vt 0.494459 0.905464
vt 0.494459 0.791603
vt 0.517019 0.791603
vt 0.409645 0.874239
vt 0.409645 0.851679
vt 0.517019 0.928024
vt 0.517019 0.950584
vt 0.537770 0.911754
vt 0.560331 0.911754
vt 0.477326 0.928024
vt 0.477326 0.905464
vt 0.454766 0.936688
vt 0.537770 0.874239
vt 0.537770 0.950584
vt 0.537770 0.928024
vt 0.537770 0.934315
vt 0.560331 0.934315
vt 0.452957 0.905464
vt 0.430396 0.905464
vt 0.430396 0.791603
vt 0.452957 0.791603
s 0
usemtl Aseets_Cross_MAT_TEX.001
f 3/1/1 1/2/1 11/3/1 12/4/1
f 4/5/2 3/6/2 12/7/2 7/8/2
f 2/9/3 1/10/3 6/11/3 5/12/3
f 15/13/1 13/14/1 1/2/1 3/1/1
f 11/8/3 8/15/3 7/16/3 12/17/3
f 3/18/3 4/19/3 9/20/3 10/21/3
f 2/22/4 4/23/4 7/4/4 8/3/4
f 22/24/2 10/25/2 9/26/2 21/27/2
f 1/6/5 2/5/5 8/28/5 11/29/5
f 2/22/4 14/30/4 16/31/4 4/23/4
f 16/31/4 21/32/4 9/33/4 4/23/4
f 5/34/4 17/35/4 14/30/4 2/22/4
f 15/13/1 24/36/1 23/37/1 13/14/1
f 16/28/2 19/38/2 24/39/2 15/29/2
f 14/40/6 17/12/6 18/11/6 13/41/6
f 23/25/6 24/42/6 19/43/6 20/26/6
f 15/15/6 22/44/6 21/18/6 16/21/6
f 14/30/4 20/12/4 19/45/4 16/31/4
f 13/46/5 23/39/5 20/38/5 14/47/5
f 18/48/5 17/40/5 5/41/5 6/49/5
f 10/50/1 22/51/1 15/13/1 3/1/1
f 1/2/1 13/14/1 18/52/1 6/53/1
