# Blender 4.5.0
# www.blender.org
mtllib FileCabinet.mtl
g File_Canimet_1x1_Cube.001
v -0.211051 0.000000 0.249836
v -0.211051 0.933239 0.249836
v -0.211051 0.000000 -0.249836
v -0.211051 0.933239 -0.249836
v 0.211051 0.000000 0.249836
v 0.211051 0.933239 0.249836
v 0.211051 0.000000 -0.249836
v 0.211051 0.933239 -0.249836
v -0.211051 0.311080 0.249836
v -0.211051 0.622160 0.249836
v -0.211051 0.622160 -0.249836
v -0.211051 0.311080 -0.249836
v 0.211051 0.622160 -0.249836
v 0.211051 0.311080 -0.249836
v 0.211051 0.622160 0.249836
v 0.211051 0.311080 0.249836
v 0.175959 0.657252 0.249836
v 0.175959 0.898147 0.249836
v -0.175959 0.898147 0.249836
v -0.175959 0.657252 0.249836
v 0.175959 0.035092 0.249836
v 0.175959 0.275988 0.249836
v -0.175959 0.275988 0.249836
v -0.175959 0.035092 0.249836
v 0.175959 0.346172 0.249836
v 0.175959 0.587067 0.249836
v -0.175959 0.587067 0.249836
v -0.175959 0.346172 0.249836
v 0.175959 0.657252 -0.176995
v 0.175959 0.898147 -0.176995
v -0.175959 0.898147 -0.176995
v -0.175959 0.657252 -0.176995
v 0.175959 0.035092 -0.176995
v 0.175959 0.275988 -0.176995
v -0.175959 0.275988 -0.176995
v -0.175959 0.035092 -0.176995
v 0.175959 0.346172 -0.176995
v 0.175959 0.587067 -0.176995
v 0.175959 0.275988 0.326741
v 0.175959 0.035092 0.326741
v -0.175959 0.035092 0.326741
v -0.175959 0.275988 0.326741
v 0.175959 0.587067 0.308452
v 0.175959 0.346172 0.308452
v -0.175959 0.346172 0.308452
v -0.175959 0.587067 0.308452
v 0.175959 0.898147 0.290213
v 0.175959 0.657252 0.290213
v -0.175959 0.657252 0.290213
v -0.175959 0.898147 0.290213
v -0.175959 0.587067 -0.176995
v -0.175959 0.346172 -0.176995
v 0.170185 0.663025 -0.171221
v 0.168888 0.898147 -0.169924
v -0.168888 0.898147 -0.169924
v -0.170185 0.663025 -0.171221
v 0.170185 0.040866 -0.171221
v 0.168888 0.275988 -0.169924
v -0.168888 0.275988 -0.169924
v -0.170185 0.040866 -0.171221
v 0.170185 0.351945 -0.171221
v 0.168888 0.587067 -0.169924
v 0.168888 0.275988 0.319670
v 0.170185 0.040866 0.320968
v -0.170185 0.040866 0.320968
v -0.168888 0.275988 0.319670
v 0.168888 0.587067 0.301381
v 0.170185 0.351945 0.302678
v -0.170185 0.351945 0.302678
v -0.168888 0.587067 0.301381
v 0.168888 0.898147 0.283142
v 0.170185 0.663025 0.284440
v -0.170185 0.663025 0.284440
v -0.168888 0.898147 0.283142
v -0.168888 0.587067 -0.169924
v -0.170185 0.351945 -0.171221
v -0.046936 0.842828 0.306942
v -0.046936 0.884514 0.306942
v -0.046936 0.842828 0.286006
v -0.046936 0.884514 0.286006
v 0.046936 0.842828 0.306942
v 0.046936 0.884514 0.306942
v 0.046936 0.842828 0.286006
v 0.046936 0.884514 0.286006
v -0.046936 0.537856 0.324030
v -0.046936 0.579542 0.324030
v -0.046936 0.537856 0.303094
v -0.046936 0.579542 0.303094
v 0.046936 0.537856 0.324030
v 0.046936 0.579542 0.324030
v 0.046936 0.537856 0.303094
v 0.046936 0.579542 0.303094
v -0.046936 0.223582 0.344919
v -0.046936 0.265268 0.344919
v -0.046936 0.223582 0.323983
v -0.046936 0.265268 0.323983
v 0.046936 0.223582 0.344919
v 0.046936 0.265268 0.344919
v 0.046936 0.223582 0.323983
v 0.046936 0.265268 0.323983
v -0.168943 0.681744 0.281015
v -0.168943 0.861751 0.281015
v -0.168943 0.681744 -0.165171
v -0.168943 0.861751 -0.165171
v 0.168943 0.681744 0.281015
v 0.168943 0.861751 0.281015
v 0.168943 0.681744 -0.165171
v 0.168943 0.861751 -0.165171
v -0.168943 0.377014 0.290062
v -0.168943 0.557021 0.290062
v -0.168943 0.377014 -0.156124
v -0.168943 0.557021 -0.156124
v 0.168943 0.377014 0.290062
v 0.168943 0.557021 0.290062
v 0.168943 0.377014 -0.156124
v 0.168943 0.557021 -0.156124
v -0.168943 0.075994 0.310992
v -0.168943 0.256001 0.310992
v -0.168943 0.075994 -0.135194
v -0.168943 0.256001 -0.135194
v 0.168943 0.075994 0.310992
v 0.168943 0.256001 0.310992
v 0.168943 0.075994 -0.135194
v 0.168943 0.256001 -0.135194
vn -1.0000 -0.0000 -0.0000
vn -0.0000 -0.0000 -1.0000
vn 1.0000 -0.0000 -0.0000
vn -0.0000 -1.0000 -0.0000
vn -0.0000 1.0000 -0.0000
vn -0.0000 -0.0000 1.0000
vn 1.0000 -0.0055 -0.0000
vn -0.0000 -0.0055 -1.0000
vn -1.0000 -0.0055 -0.0000
vn -0.0000 -0.0055 1.0000
vt 0.073957 0.416497
vt 0.073957 0.396722
vt 0.105719 0.396722
vt 0.105719 0.416497
vt 0.164313 0.416497
vt 0.164313 0.396722
vt 0.191145 0.396722
vt 0.191145 0.416497
vt 0.137482 0.396722
vt 0.137482 0.416497
vt 0.100789 0.487807
vt 0.073957 0.487807
vt 0.073957 0.456045
vt 0.100789 0.456045
vt 0.127620 0.487807
vt 0.127620 0.456045
vt 0.105719 0.456045
vt 0.105719 0.436271
vt 0.137482 0.436271
vt 0.137482 0.456045
vt 0.164313 0.456045
vt 0.164313 0.436271
vt 0.191145 0.436271
vt 0.191145 0.456045
vt 0.073957 0.436271
vt 0.139712 0.398953
vt 0.139712 0.414266
vt 0.162083 0.398953
vt 0.162083 0.414266
vt 0.139712 0.438501
vt 0.139712 0.453814
vt 0.162083 0.438501
vt 0.162083 0.453814
vt 0.139712 0.418727
vt 0.139712 0.434040
vt 0.162083 0.418727
vt 0.162083 0.434040
vt 0.208319 0.456045
vt 0.223632 0.456045
vt 0.223632 0.488066
vt 0.208319 0.488066
vt 0.089270 0.569398
vt 0.073957 0.569398
vt 0.073957 0.547028
vt 0.089270 0.547028
vt 0.223632 0.520086
vt 0.208320 0.520086
vt 0.208320 0.488066
vt 0.223632 0.488066
vt 0.141943 0.546127
vt 0.157256 0.546127
vt 0.157256 0.568497
vt 0.141943 0.568497
vt 0.111640 0.549523
vt 0.096327 0.549523
vt 0.096327 0.518665
vt 0.111640 0.518665
vt 0.172569 0.568497
vt 0.157256 0.568497
vt 0.157256 0.546127
vt 0.172569 0.546127
vt 0.238578 0.549785
vt 0.223265 0.549785
vt 0.223265 0.520086
vt 0.238578 0.520086
vt 0.223632 0.456045
vt 0.238945 0.456045
vt 0.238945 0.485744
vt 0.223632 0.485744
vt 0.164313 0.488066
vt 0.186683 0.456045
vt 0.186683 0.488066
vt 0.141943 0.517764
vt 0.141943 0.488066
vt 0.164313 0.517764
vt 0.118697 0.519094
vt 0.134010 0.519094
vt 0.134010 0.549952
vt 0.118697 0.549952
vt 0.073957 0.518665
vt 0.096327 0.487807
vt 0.118697 0.549952
vt 0.134010 0.549952
vt 0.134010 0.572322
vt 0.118697 0.572322
vt 0.111640 0.571894
vt 0.096327 0.571894
vt 0.238578 0.572155
vt 0.223265 0.572155
vt 0.208319 0.551291
vt 0.208319 0.520169
vt 0.223265 0.551373
vt 0.223265 0.573009
vt 0.208319 0.572927
vt 0.208319 0.551455
vt 0.227569 0.396722
vt 0.227569 0.428009
vt 0.212623 0.427927
vt 0.212623 0.396805
vt 0.212623 0.449645
vt 0.212623 0.428009
vt 0.227569 0.428091
vt 0.227569 0.449563
vt 0.242515 0.396722
vt 0.242515 0.426846
vt 0.227569 0.426764
vt 0.227569 0.396805
vt 0.257461 0.396722
vt 0.257461 0.418358
vt 0.242515 0.418276
vt 0.242515 0.396805
vt 0.242515 0.455811
vt 0.227569 0.455729
vt 0.227569 0.426929
vt 0.186683 0.572378
vt 0.186683 0.543579
vt 0.201629 0.543496
vt 0.201629 0.572461
vt 0.140333 0.519094
vt 0.118697 0.487807
vt 0.140333 0.487807
vt 0.208319 0.515134
vt 0.186683 0.515134
vt 0.186683 0.486169
vt 0.208319 0.486169
vt 0.223632 0.515785
vt 0.223632 0.485826
vt 0.238578 0.485744
vt 0.238578 0.515868
vt 0.242515 0.439912
vt 0.242515 0.418441
vt 0.257461 0.439995
vt 0.264967 0.485826
vt 0.264967 0.507297
vt 0.250021 0.507380
vt 0.250021 0.485744
vt 0.250021 0.528933
vt 0.250021 0.507462
vt 0.264967 0.507380
vt 0.264967 0.529016
vt 0.141943 0.456045
vt 0.163864 0.456494
vt 0.142393 0.456494
vt 0.142393 0.487616
vt 0.163864 0.487616
vt 0.118248 0.488257
vt 0.096777 0.488257
vt 0.118697 0.518665
vt 0.118248 0.518216
vt 0.186234 0.488515
vt 0.164763 0.488515
vt 0.164763 0.517315
vt 0.186683 0.517764
vt 0.186234 0.517315
vt 0.096777 0.518216
vt 0.192422 0.184381
vt 0.192422 0.181731
vt 0.193753 0.181731
vt 0.193753 0.184381
vt 0.170888 0.221956
vt 0.168238 0.221956
vt 0.168238 0.215989
vt 0.170888 0.215989
vt 0.195880 0.184381
vt 0.195880 0.181731
vt 0.197210 0.181731
vt 0.197210 0.184381
vt 0.186868 0.159336
vt 0.184218 0.159336
vt 0.184218 0.153369
vt 0.186868 0.153369
vt 0.198541 0.181731
vt 0.198541 0.187698
vt 0.197210 0.187698
vt 0.197210 0.181731
vt 0.198541 0.193665
vt 0.197210 0.193665
vt 0.187099 0.184381
vt 0.187099 0.181731
vt 0.188430 0.181731
vt 0.188430 0.184381
vt 0.186868 0.165303
vt 0.184218 0.165303
vt 0.186868 0.159336
vt 0.189760 0.181731
vt 0.189760 0.184381
vt 0.186868 0.171270
vt 0.184218 0.171270
vt 0.184218 0.165303
vt 0.186868 0.165303
vt 0.198541 0.193665
vt 0.198541 0.199632
vt 0.197210 0.199632
vt 0.197210 0.193665
vt 0.198541 0.205600
vt 0.197210 0.205600
vt 0.191091 0.181731
vt 0.191091 0.184381
vt 0.186868 0.183204
vt 0.184218 0.183204
vt 0.184218 0.177237
vt 0.186868 0.177237
vt 0.184218 0.177237
vt 0.184218 0.171270
vt 0.198541 0.211567
vt 0.197210 0.211567
vt 0.198541 0.217534
vt 0.197210 0.217534
vt 0.250021 0.544230
vt 0.238578 0.544230
vt 0.238578 0.515868
vt 0.250021 0.515868
vt 0.153386 0.589975
vt 0.141943 0.589975
vt 0.141943 0.568497
vt 0.153386 0.568497
vt 0.141943 0.484407
vt 0.130501 0.484407
vt 0.130501 0.456045
vt 0.261463 0.550494
vt 0.250021 0.550494
vt 0.250021 0.529016
vt 0.261463 0.529016
vt 0.212623 0.425085
vt 0.191145 0.425085
vt 0.212623 0.396722
vt 0.326214 0.138231
vt 0.304736 0.138231
vt 0.304736 0.109868
vt 0.326214 0.109868
vt 0.184011 0.574489
vt 0.172569 0.574489
vt 0.184011 0.546127
vt 0.085400 0.590876
vt 0.073957 0.590876
vt 0.085400 0.569398
vt 0.250388 0.484407
vt 0.238945 0.484407
vt 0.250388 0.456045
vt 0.261463 0.571972
vt 0.250021 0.571972
vt 0.208162 0.543496
vt 0.186683 0.543496
vt 0.208162 0.515134
vt 0.277013 0.230910
vt 0.255534 0.230910
vt 0.255534 0.202548
vt 0.277013 0.202548
vt 0.250021 0.572593
vt 0.238578 0.572593
vt 0.238578 0.544230
vt 0.250021 0.544230
vt 0.164828 0.589975
vt 0.153386 0.589975
vt 0.153386 0.568497
vt 0.164828 0.568497
vt 0.250021 0.514106
vt 0.238578 0.514106
vt 0.238578 0.485744
vt 0.261830 0.477523
vt 0.250388 0.477523
vt 0.261830 0.456045
vt 0.184900 0.546127
vt 0.163421 0.546127
vt 0.163421 0.517764
vt 0.184900 0.517764
vt 0.209027 0.231811
vt 0.187548 0.231811
vt 0.187548 0.203449
vt 0.209027 0.203449
s 0
usemtl Assets_FilecaCabinet_MAT_TEX
f 10/1/1 2/2/1 4/3/1 11/4/1
f 11/5/2 4/6/2 8/7/2 13/8/2
f 13/4/3 8/3/3 6/9/3 15/10/3
f 3/11/4 7/12/4 5/13/4 1/14/4
f 8/15/5 4/11/5 2/14/5 6/16/5
f 7/17/3 14/18/3 16/19/3 5/20/3
f 14/18/3 13/4/3 15/10/3 16/19/3
f 3/21/2 12/22/2 14/23/2 7/24/2
f 12/22/2 11/5/2 13/8/2 14/23/2
f 1/13/1 9/25/1 12/18/1 3/17/1
f 9/25/1 10/1/1 11/4/1 12/18/1
f 15/10/6 6/9/6 18/26/6 17/27/6
f 6/9/6 2/6/6 19/28/6 18/26/6
f 2/6/6 10/5/6 20/29/6 19/28/6
f 10/5/6 15/10/6 17/27/6 20/29/6
f 5/20/6 16/19/6 22/30/6 21/31/6
f 16/19/6 9/22/6 23/32/6 22/30/6
f 9/22/6 1/21/6 24/33/6 23/32/6
f 1/21/6 5/20/6 21/31/6 24/33/6
f 16/19/6 15/10/6 26/34/6 25/35/6
f 15/10/6 10/5/6 27/36/6 26/34/6
f 10/5/6 9/22/6 28/37/6 27/36/6
f 9/22/6 16/19/6 25/35/6 28/37/6
f 35/38/1 36/39/1 41/40/1 42/41/1
f 40/42/6 39/43/6 42/44/6 41/45/6
f 33/46/3 34/47/3 39/48/3 40/49/3
f 44/50/6 43/51/6 46/52/6 45/53/6
f 37/54/3 38/55/3 43/56/3 44/57/3
f 48/58/6 47/59/6 50/60/6 49/61/6
f 29/62/3 30/63/3 47/64/3 48/65/3
f 31/66/1 32/67/1 49/68/1 50/69/1
f 33/70/4 40/21/4 41/71/4 36/72/4
f 29/73/4 48/74/4 49/70/4 32/75/4
f 51/76/1 52/77/1 45/78/1 46/79/1
f 37/80/4 44/12/4 45/81/4 52/56/4
f 30/82/2 29/83/2 32/84/2 31/85/2
f 38/86/2 37/87/2 52/55/2 51/54/2
f 34/63/2 33/62/2 36/88/2 35/89/2
f 59/90/7 66/91/7 65/64/7 60/92/7
f 64/92/8 65/93/8 66/94/8 63/95/8
f 57/96/9 64/97/9 63/98/9 58/99/9
f 68/100/8 69/101/8 70/102/8 67/103/8
f 61/104/9 68/105/9 67/106/9 62/107/9
f 72/108/8 73/109/8 74/110/8 71/111/8
f 53/105/9 72/112/9 71/113/9 54/114/9
f 55/115/7 74/116/7 73/117/7 56/118/7
f 57/119/5 60/76/5 65/120/5 64/121/5
f 53/122/5 56/123/5 73/124/5 72/125/5
f 75/126/7 70/127/7 69/128/7 76/129/7
f 61/125/5 76/124/5 69/71/5 68/38/5
f 54/130/10 55/131/10 56/109/10 53/132/10
f 62/133/10 75/134/10 76/135/10 61/136/10
f 58/137/10 59/138/10 60/139/10 57/140/10
f 42/141/5 39/21/5 63/142/5 66/143/5
f 35/74/5 42/141/5 66/143/5 59/144/5
f 39/21/5 34/70/5 58/145/5 63/142/5
f 46/81/5 43/120/5 67/146/5 70/147/5
f 43/120/5 38/148/5 62/149/5 67/146/5
f 50/70/5 47/72/5 71/150/5 74/151/5
f 31/75/5 50/70/5 74/151/5 55/152/5
f 47/72/5 30/153/5 54/154/5 71/150/5
f 51/56/5 46/81/5 70/147/5 75/155/5
f 30/153/5 31/75/5 55/152/5 54/154/5
f 38/148/5 51/56/5 75/155/5 62/149/5
f 34/70/5 35/74/5 59/144/5 58/145/5
f 77/156/1 78/157/1 80/158/1 79/159/1
f 79/160/2 80/161/2 84/162/2 83/163/2
f 83/164/3 84/165/3 82/166/3 81/167/3
f 81/168/6 82/169/6 78/170/6 77/171/6
f 79/172/4 83/173/4 81/174/4 77/175/4
f 84/173/5 80/176/5 78/177/5 82/174/5
f 85/178/1 86/179/1 88/180/1 87/181/1
f 87/182/2 88/183/2 92/169/2 91/184/2
f 91/181/3 92/180/3 90/185/3 89/186/3
f 89/187/6 90/188/6 86/189/6 85/190/6
f 87/191/4 91/192/4 89/193/4 85/194/4
f 92/192/5 88/195/5 86/196/5 90/193/5
f 93/186/1 94/185/1 96/197/1 95/198/1
f 95/199/2 96/200/2 100/201/2 99/202/2
f 99/198/3 100/197/3 98/157/3 97/156/3
f 97/202/6 98/203/6 94/204/6 93/187/6
f 95/195/4 99/205/4 97/206/4 93/196/4
f 100/205/5 96/207/5 94/208/5 98/206/5
f 101/209/1 102/210/1 104/211/1 103/212/1
f 103/213/2 104/214/2 108/215/2 107/216/2
f 107/217/3 108/218/3 106/219/3 105/141/3
f 105/220/6 106/221/6 102/222/6 101/223/6
f 103/224/4 107/225/4 105/7/4 101/226/4
f 108/227/5 104/228/5 102/229/5 106/230/5
f 109/231/1 110/232/1 112/61/1 111/233/1
f 111/234/2 112/235/2 116/43/2 115/236/2
f 115/237/3 116/238/3 114/67/3 113/239/3
f 113/240/6 114/241/6 110/221/6 109/220/6
f 111/242/4 115/243/4 113/123/4 109/244/4
f 116/245/5 112/246/5 110/247/5 114/248/5
f 117/249/1 118/250/1 120/251/1 119/252/1
f 119/253/2 120/254/2 124/255/2 123/256/2
f 123/257/3 124/258/3 122/259/3 121/136/3
f 121/260/6 122/261/6 118/239/6 117/262/6
f 119/263/4 123/264/4 121/265/4 117/266/4
f 124/267/5 120/268/5 118/269/5 122/270/5
