# Blender 4.5.0
# www.blender.org
mtllib Table.mtl
g Table_1x1_Plane.009
v -0.406889 0.510180 0.407382
v -0.406889 0.510180 -0.407382
v 0.406889 0.510180 0.407382
v 0.406889 0.510180 -0.407382
v 0.406889 0.458533 0.407382
v -0.406889 0.458533 0.407382
v -0.406889 0.458533 -0.407382
v 0.406889 0.458533 -0.407382
v -0.406889 0.007556 -0.407382
v -0.346520 0.007556 -0.407382
v 0.346520 0.007556 -0.407382
v 0.406889 0.007556 -0.407382
v 0.346520 0.510180 0.407382
v -0.346520 0.510180 0.407382
v -0.346520 0.510180 -0.407382
v 0.346520 0.510180 -0.407382
v -0.346520 0.458533 0.407382
v 0.346520 0.458533 0.407382
v 0.346520 0.458533 -0.407382
v -0.346520 0.458533 -0.407382
v 0.406889 0.007556 0.407382
v 0.346520 0.007556 0.407382
v -0.346520 0.007556 0.407382
v -0.406889 0.007556 0.407382
v 0.406889 0.458533 -0.383583
v 0.406889 0.458533 0.383583
v -0.406889 0.458533 0.383583
v -0.406889 0.458533 -0.383583
v 0.406889 0.510180 0.383583
v 0.406889 0.510180 -0.383583
v -0.406889 0.510180 -0.383583
v -0.406889 0.510180 0.383583
v 0.346520 0.458533 0.383583
v 0.346520 0.458533 -0.383583
v -0.346520 0.458533 -0.383583
v -0.346520 0.458533 0.383583
v 0.346520 0.510180 -0.383583
v 0.346520 0.510180 0.383583
v -0.346520 0.510180 0.383583
v -0.346520 0.510180 -0.383583
v -0.406889 0.007556 -0.383583
v -0.346520 0.007556 -0.383583
v -0.346520 0.007556 0.383583
v -0.406889 0.007556 0.383583
v 0.346520 0.007556 -0.383583
v 0.406889 0.007556 -0.383583
v 0.406889 0.007556 0.383583
v 0.346520 0.007556 0.383583
v 0.346520 0.315977 -0.383583
v 0.406889 0.315977 -0.383583
v 0.406889 0.315977 -0.407382
v 0.346520 0.315977 -0.407382
v 0.406889 0.315977 0.383583
v 0.406889 0.315977 0.407382
v 0.346520 0.315977 0.383583
v 0.346520 0.315977 0.407382
vn -0.0000 -0.0000 -1.0000
vn 1.0000 -0.0000 -0.0000
vn -0.0000 -0.0000 1.0000
vn -1.0000 -0.0000 -0.0000
vn -0.0000 -1.0000 -0.0000
vn -0.0000 1.0000 -0.0000
vt 0.599675 0.258487
vt 0.599675 0.264833
vt 0.599675 0.178279
vt 0.594577 0.178279
vt 0.430226 0.258487
vt 0.430226 0.264833
vt 0.594577 0.264833
vt 0.425128 0.178279
vt 0.425128 0.171933
vt 0.425128 0.258487
vt 0.430226 0.171933
vt 0.430226 0.178279
vt 0.594577 0.171933
vt 0.599675 0.171933
vt 0.425128 0.264833
vt 0.594577 0.258487
vt 0.425128 0.090286
s 0
usemtl Assets_Table2x1_MAT_TEX
f 52/1/1 51/2/1 12/2/1 11/1/1
f 20/3/2 35/4/2 42/4/2 10/3/2
f 55/5/1 53/6/1 47/6/1 48/5/1
f 51/2/2 50/7/2 46/7/2 12/2/2
f 17/8/3 6/9/3 24/9/3 23/8/3
f 56/10/4 55/5/4 48/5/4 22/10/4
f 27/11/1 36/12/1 43/12/1 44/11/1
f 41/13/5 9/14/5 10/3/5 42/4/5
f 22/10/5 48/5/5 47/6/5 21/15/5
f 35/4/3 28/13/3 41/13/3 42/4/3
f 14/8/3 17/8/3 18/10/3 13/10/3
f 16/1/1 19/1/1 20/3/1 15/3/1
f 24/9/5 44/11/5 43/12/5 23/8/5
f 50/7/3 49/16/3 45/16/3 46/7/3
f 45/16/5 11/1/5 12/2/5 46/7/5
f 14/8/3 1/9/3 6/9/3 17/8/3
f 28/13/4 7/14/4 9/14/4 41/13/4
f 3/15/3 13/10/3 18/10/3 5/15/3
f 16/1/1 4/2/1 8/2/1 19/1/1
f 2/14/1 15/3/1 20/3/1 7/14/1
f 54/15/3 56/10/3 22/10/3 21/15/3
f 49/16/4 52/1/4 11/1/4 45/16/4
f 40/4/6 31/13/6 32/11/6 39/12/6
f 30/7/6 37/16/6 38/5/6 29/6/6
f 28/13/5 35/4/5 36/12/5 27/11/5
f 37/16/6 40/4/6 39/12/6 38/5/6
f 33/5/5 36/12/5 35/4/5 34/16/5
f 31/13/4 28/13/4 27/11/4 32/11/4
f 29/6/2 26/6/2 25/7/2 30/7/2
f 29/6/2 3/15/2 5/15/2 26/6/2
f 36/12/2 17/8/2 23/8/2 43/12/2
f 4/2/2 30/7/2 25/7/2 8/2/2
f 53/6/2 54/15/2 21/15/2 47/6/2
f 7/14/1 20/3/1 10/3/1 9/14/1
f 6/9/4 27/11/4 44/11/4 24/9/4
f 1/9/4 32/11/4 27/11/4 6/9/4
f 31/13/4 2/14/4 7/14/4 28/13/4
f 37/16/6 30/7/6 4/2/6 16/1/6
f 13/10/6 3/15/6 29/6/6 38/5/6
f 31/13/6 40/4/6 15/3/6 2/14/6
f 1/9/6 14/8/6 39/12/6 32/11/6
f 33/5/5 18/10/5 17/8/5 36/12/5
f 19/1/5 34/16/5 35/4/5 20/3/5
f 37/16/6 16/1/6 15/3/6 40/4/6
f 13/10/6 38/5/6 39/12/6 14/8/6
f 34/16/4 19/1/4 52/1/4 49/16/4
f 55/17/5 49/17/5 50/17/5 53/17/5
f 8/2/2 25/7/2 50/7/2 51/2/2
f 19/1/1 8/2/1 51/2/1 52/1/1
f 26/6/2 5/15/2 54/15/2 53/6/2
f 5/15/3 18/10/3 56/10/3 54/15/3
f 18/10/4 33/5/4 55/5/4 56/10/4
f 26/6/2 53/6/2 50/7/2 25/7/2
f 33/17/4 34/17/4 49/17/4 55/17/4
