# Blender 4.5.0
# www.blender.org
mtllib Trashcan.mtl
g Trash_Can_1x1_Cylinder
v 0.000000 0.001550 -0.202784
v 0.000000 0.450999 -0.202784
v 0.143390 0.001550 -0.143390
v 0.143390 0.450999 -0.143390
v 0.202784 0.001550 0.000000
v 0.202784 0.450999 0.000000
v 0.143390 0.001550 0.143390
v 0.143390 0.450999 0.143390
v 0.000000 0.001550 0.202784
v 0.000000 0.450999 0.202784
v -0.143390 0.001550 0.143390
v -0.143390 0.450999 0.143390
v -0.202784 0.001550 0.000000
v -0.202784 0.450999 0.000000
v -0.143390 0.001550 -0.143390
v -0.143390 0.450999 -0.143390
v 0.000000 0.473680 -0.201872
v 0.142745 0.473680 -0.142745
v 0.201872 0.473680 0.000000
v 0.142745 0.473680 0.142745
v 0.000000 0.473680 0.201872
v -0.142745 0.473680 0.142745
v -0.201872 0.473680 0.000000
v -0.142745 0.473680 -0.142745
v 0.000000 0.390267 -0.234817
v 0.166041 0.390267 -0.166041
v 0.234817 0.390267 0.000000
v 0.166041 0.390267 0.166041
v 0.000000 0.390267 0.234817
v -0.166041 0.390267 0.166041
v -0.234817 0.390267 0.000000
v -0.166041 0.390267 -0.166041
v 0.075035 0.473680 -0.181151
v 0.181151 0.473680 -0.075035
v 0.181151 0.473680 0.075035
v 0.075035 0.473680 0.181151
v -0.075035 0.473680 0.181151
v -0.181151 0.473680 0.075035
v -0.181151 0.473680 -0.075035
v -0.075035 0.473680 -0.181151
v 0.085550 0.413047 -0.206537
v 0.206537 0.413047 -0.085550
v 0.206537 0.413047 0.085550
v 0.085550 0.413047 0.206537
v -0.085550 0.413047 0.206537
v -0.206537 0.413047 0.085550
v -0.206537 0.413047 -0.085550
v -0.085550 0.413047 -0.206537
v 0.039484 0.001550 -0.198771
v 0.077513 0.001550 -0.187132
v 0.112633 0.001550 -0.168471
v 0.112633 0.450999 -0.168471
v 0.077513 0.450999 -0.187132
v 0.039484 0.450999 -0.198771
v 0.168471 0.001550 -0.112633
v 0.187132 0.001550 -0.077513
v 0.198771 0.001550 -0.039484
v 0.198771 0.450999 -0.039484
v 0.187132 0.450999 -0.077513
v 0.168471 0.450999 -0.112633
v 0.198771 0.001550 0.039484
v 0.187132 0.001550 0.077513
v 0.168471 0.001550 0.112633
v 0.168471 0.450999 0.112633
v 0.187132 0.450999 0.077513
v 0.198771 0.450999 0.039484
v 0.112633 0.001550 0.168471
v 0.077513 0.001550 0.187132
v 0.039484 0.001550 0.198771
v 0.039484 0.450999 0.198771
v 0.077513 0.450999 0.187132
v 0.112633 0.450999 0.168471
v -0.039484 0.001550 0.198771
v -0.077513 0.001550 0.187132
v -0.112633 0.001550 0.168471
v -0.112633 0.450999 0.168471
v -0.077513 0.450999 0.187132
v -0.039484 0.450999 0.198771
v -0.168471 0.001550 0.112633
v -0.187132 0.001550 0.077513
v -0.198771 0.001550 0.039484
v -0.198771 0.450999 0.039484
v -0.187132 0.450999 0.077513
v -0.168471 0.450999 0.112633
v -0.198771 0.001550 -0.039484
v -0.187132 0.001550 -0.077513
v -0.168471 0.001550 -0.112633
v -0.168471 0.450999 -0.112633
v -0.187132 0.450999 -0.077513
v -0.198771 0.450999 -0.039484
v -0.112633 0.001550 -0.168471
v -0.077513 0.001550 -0.187132
v -0.039484 0.001550 -0.198771
v -0.039484 0.450999 -0.198771
v -0.077513 0.450999 -0.187132
v -0.112633 0.450999 -0.168471
v 0.056276 0.473680 -0.188759
v 0.037518 0.473680 -0.195396
v 0.018759 0.473680 -0.200091
v 0.173267 0.473680 -0.093680
v 0.164695 0.473680 -0.111637
v 0.154750 0.473680 -0.128221
v 0.188759 0.473680 0.056276
v 0.195396 0.473680 0.037518
v 0.200091 0.473680 0.018759
v 0.093680 0.473680 0.173267
v 0.111637 0.473680 0.164695
v 0.128221 0.473680 0.154750
v -0.056276 0.473680 0.188759
v -0.037518 0.473680 0.195396
v -0.018759 0.473680 0.200091
v -0.173267 0.473680 0.093680
v -0.164695 0.473680 0.111637
v -0.154750 0.473680 0.128221
v -0.188759 0.473680 -0.056276
v -0.195396 0.473680 -0.037518
v -0.200091 0.473680 -0.018759
v -0.093680 0.473680 -0.173267
v -0.111637 0.473680 -0.164695
v -0.128221 0.473680 -0.154750
v 0.063648 0.409488 -0.216122
v 0.042187 0.401657 -0.225269
v 0.021020 0.393826 -0.232120
v 0.197827 0.409488 -0.107815
v 0.189120 0.401657 -0.129459
v 0.178997 0.393826 -0.149271
v 0.216122 0.409488 0.063648
v 0.225269 0.401657 0.042187
v 0.232120 0.393826 0.021020
v 0.107815 0.409488 0.197827
v 0.129459 0.401657 0.189120
v 0.149271 0.393826 0.178997
v -0.063648 0.409488 0.216122
v -0.042187 0.401657 0.225269
v -0.021020 0.393826 0.232120
v -0.197827 0.409488 0.107815
v -0.189120 0.401657 0.129459
v -0.178997 0.393826 0.149271
v -0.216122 0.409488 -0.063648
v -0.225269 0.401657 -0.042187
v -0.232120 0.393826 -0.021020
v -0.107815 0.409488 -0.197827
v -0.129459 0.401657 -0.189120
v -0.149271 0.393826 -0.178997
v 0.128221 0.473680 -0.154750
v 0.111637 0.473680 -0.164695
v 0.093680 0.473680 -0.173267
v 0.200091 0.473680 -0.018759
v 0.195396 0.473680 -0.037518
v 0.188759 0.473680 -0.056276
v 0.154750 0.473680 0.128221
v 0.164695 0.473680 0.111637
v 0.173267 0.473680 0.093680
v 0.018759 0.473680 0.200091
v 0.037518 0.473680 0.195396
v 0.056276 0.473680 0.188759
v -0.128221 0.473680 0.154750
v -0.111637 0.473680 0.164695
v -0.093680 0.473680 0.173267
v -0.200091 0.473680 0.018759
v -0.195396 0.473680 0.037518
v -0.188759 0.473680 0.056276
v -0.154750 0.473680 -0.128221
v -0.164695 0.473680 -0.111637
v -0.173267 0.473680 -0.093680
v -0.018759 0.473680 -0.200091
v -0.037518 0.473680 -0.195396
v -0.056276 0.473680 -0.188759
v 0.149271 0.393826 -0.178997
v 0.129459 0.401657 -0.189120
v 0.107815 0.409488 -0.197827
v 0.232120 0.393826 -0.021020
v 0.225269 0.401657 -0.042187
v 0.216122 0.409488 -0.063648
v 0.178997 0.393826 0.149271
v 0.189120 0.401657 0.129459
v 0.197827 0.409488 0.107815
v 0.021020 0.393826 0.232120
v 0.042187 0.401657 0.225269
v 0.063648 0.409488 0.216122
v -0.149271 0.393826 0.178997
v -0.129459 0.401657 0.189120
v -0.107815 0.409488 0.197827
v -0.232120 0.393826 0.021020
v -0.225269 0.401657 0.042187
v -0.216122 0.409488 0.063648
v -0.178997 0.393826 -0.149271
v -0.189120 0.401657 -0.129459
v -0.197827 0.409488 -0.107815
v -0.021020 0.393826 -0.232120
v -0.042187 0.401657 -0.225269
v -0.063648 0.409488 -0.216122
v 0.000000 0.008401 -0.195499
v 0.000000 0.450999 -0.192784
v 0.138239 0.008401 -0.138239
v 0.136319 0.450999 -0.136319
v 0.195499 0.008401 0.000000
v 0.192784 0.450999 0.000000
v 0.138239 0.008401 0.138239
v 0.136319 0.450999 0.136319
v 0.000000 0.008401 0.195499
v 0.000000 0.450999 0.192784
v -0.138239 0.008401 0.138239
v -0.136319 0.450999 0.136319
v -0.195499 0.008401 -0.000000
v -0.192784 0.450999 -0.000000
v -0.138239 0.008401 -0.138239
v -0.136319 0.450999 -0.136319
v 0.000000 0.469974 -0.192584
v 0.136177 0.469974 -0.136177
v 0.192584 0.469974 0.000000
v 0.136177 0.469974 0.136177
v -0.000000 0.469974 0.192584
v -0.136177 0.469974 0.136177
v -0.192584 0.469974 -0.000000
v -0.136177 0.469974 -0.136177
v 0.000000 0.386561 -0.225529
v 0.159473 0.386561 -0.159473
v 0.225529 0.386561 0.000000
v 0.159473 0.386561 0.159473
v -0.000000 0.386561 0.225529
v -0.159473 0.386561 0.159473
v -0.225529 0.386561 -0.000000
v -0.159473 0.386561 -0.159473
v 0.071540 0.469606 -0.172714
v 0.172714 0.469606 -0.071540
v 0.172714 0.469606 0.071540
v 0.071540 0.469606 0.172714
v -0.071540 0.469606 0.172714
v -0.172714 0.469606 0.071540
v -0.172714 0.469606 -0.071540
v -0.071540 0.469606 -0.172714
v 0.082055 0.408973 -0.198099
v 0.198099 0.408973 -0.082055
v 0.198099 0.408973 0.082055
v 0.082055 0.408973 0.198099
v -0.082055 0.408973 0.198099
v -0.198099 0.408973 0.082055
v -0.198099 0.408973 -0.082055
v -0.082055 0.408973 -0.198099
v 0.038044 0.008408 -0.191636
v 0.074729 0.008412 -0.180412
v 0.108606 0.008408 -0.162408
v 0.107101 0.450999 -0.160141
v 0.073686 0.450999 -0.177894
v 0.037505 0.450999 -0.188968
v 0.162408 0.008408 -0.108606
v 0.180412 0.008412 -0.074729
v 0.191636 0.008408 -0.038044
v 0.188968 0.450999 -0.037505
v 0.177894 0.450999 -0.073686
v 0.160141 0.450999 -0.107101
v 0.191636 0.008408 0.038044
v 0.180412 0.008412 0.074729
v 0.162408 0.008408 0.108606
v 0.160141 0.450999 0.107101
v 0.177894 0.450999 0.073686
v 0.188968 0.450999 0.037505
v 0.108606 0.008408 0.162408
v 0.074729 0.008412 0.180412
v 0.038044 0.008408 0.191636
v 0.037505 0.450999 0.188968
v 0.073686 0.450999 0.177894
v 0.107101 0.450999 0.160141
v -0.038044 0.008408 0.191636
v -0.074729 0.008412 0.180412
v -0.108606 0.008408 0.162408
v -0.107101 0.450999 0.160141
v -0.073686 0.450999 0.177894
v -0.037505 0.450999 0.188968
v -0.162408 0.008408 0.108606
v -0.180412 0.008412 0.074729
v -0.191636 0.008408 0.038044
v -0.188968 0.450999 0.037505
v -0.177894 0.450999 0.073686
v -0.160141 0.450999 0.107101
v -0.191636 0.008408 -0.038044
v -0.180412 0.008412 -0.074729
v -0.162408 0.008408 -0.108606
v -0.160141 0.450999 -0.107101
v -0.177894 0.450999 -0.073686
v -0.188968 0.450999 -0.037505
v -0.108606 0.008408 -0.162408
v -0.074729 0.008412 -0.180412
v -0.038044 0.008408 -0.191636
v -0.037505 0.450999 -0.188968
v -0.073686 0.450999 -0.177894
v -0.107101 0.450999 -0.160141
v 0.053299 0.469674 -0.180094
v 0.035219 0.469817 -0.186463
v 0.017447 0.469934 -0.190912
v 0.165034 0.469674 -0.089658
v 0.156753 0.469817 -0.106946
v 0.147332 0.469934 -0.122659
v 0.180094 0.469674 0.053299
v 0.186463 0.469817 0.035219
v 0.190912 0.469934 0.017447
v 0.089658 0.469674 0.165034
v 0.106946 0.469817 0.156753
v 0.122659 0.469934 0.147332
v -0.053299 0.469674 0.180094
v -0.035219 0.469817 0.186463
v -0.017447 0.469934 0.190912
v -0.165034 0.469674 0.089658
v -0.156753 0.469817 0.106946
v -0.147332 0.469934 0.122659
v -0.180094 0.469674 -0.053299
v -0.186463 0.469817 -0.035219
v -0.190912 0.469934 -0.017447
v -0.089658 0.469674 -0.165034
v -0.106946 0.469817 -0.156753
v -0.122659 0.469934 -0.147332
v 0.060725 0.405495 -0.207432
v 0.040001 0.397816 -0.216298
v 0.019838 0.390090 -0.222920
v 0.189615 0.405495 -0.103738
v 0.181231 0.397816 -0.124661
v 0.171656 0.390090 -0.143601
v 0.207432 0.405495 0.060725
v 0.216298 0.397816 0.040001
v 0.222920 0.390090 0.019838
v 0.103738 0.405495 0.189615
v 0.124661 0.397816 0.181231
v 0.143601 0.390090 0.171656
v -0.060725 0.405495 0.207432
v -0.040001 0.397816 0.216298
v -0.019838 0.390090 0.222920
v -0.189615 0.405495 0.103738
v -0.181231 0.397816 0.124661
v -0.171656 0.390090 0.143601
v -0.207432 0.405495 -0.060725
v -0.216298 0.397816 -0.040001
v -0.222920 0.390090 -0.019838
v -0.103738 0.405495 -0.189615
v -0.124661 0.397816 -0.181231
v -0.143601 0.390090 -0.171656
v 0.122659 0.469934 -0.147332
v 0.106946 0.469817 -0.156753
v 0.089658 0.469674 -0.165034
v 0.190912 0.469934 -0.017447
v 0.186463 0.469817 -0.035219
v 0.180094 0.469674 -0.053299
v 0.147332 0.469934 0.122659
v 0.156753 0.469817 0.106946
v 0.165034 0.469674 0.089658
v 0.017447 0.469934 0.190912
v 0.035219 0.469817 0.186463
v 0.053299 0.469674 0.180094
v -0.122659 0.469934 0.147332
v -0.106946 0.469817 0.156753
v -0.089658 0.469674 0.165034
v -0.190912 0.469934 0.017447
v -0.186463 0.469817 0.035219
v -0.180094 0.469674 0.053299
v -0.147332 0.469934 -0.122659
v -0.156753 0.469817 -0.106946
v -0.165034 0.469674 -0.089658
v -0.017447 0.469934 -0.190912
v -0.035219 0.469817 -0.186463
v -0.053299 0.469674 -0.180094
v 0.143601 0.390090 -0.171656
v 0.124661 0.397816 -0.181231
v 0.103738 0.405495 -0.189615
v 0.222920 0.390090 -0.019838
v 0.216298 0.397816 -0.040001
v 0.207432 0.405495 -0.060725
v 0.171656 0.390090 0.143601
v 0.181231 0.397816 0.124661
v 0.189615 0.405495 0.103738
v 0.019838 0.390090 0.222920
v 0.040001 0.397816 0.216298
v 0.060725 0.405495 0.207432
v -0.143601 0.390090 0.171656
v -0.124661 0.397816 0.181231
v -0.103738 0.405495 0.189615
v -0.222920 0.390090 0.019838
v -0.216298 0.397816 0.040001
v -0.207432 0.405495 0.060725
v -0.171656 0.390090 -0.143601
v -0.181231 0.397816 -0.124661
v -0.189615 0.405495 -0.103738
v -0.019838 0.390090 -0.222920
v -0.040001 0.397816 -0.216298
v -0.060725 0.405495 -0.207432
v -0.103571 0.353463 -0.005065
v -0.036414 0.404767 0.043727
v -0.129222 0.404767 0.073882
v -0.186582 0.404767 -0.005065
v -0.129222 0.404767 -0.084013
v -0.036414 0.404767 -0.053857
v -0.077920 0.487779 0.073882
v -0.170728 0.487779 0.043727
v -0.170728 0.487779 -0.053857
v -0.077920 0.487779 -0.084013
v -0.020559 0.487779 -0.005065
v -0.103571 0.539083 -0.005065
v -0.019768 0.377043 0.029081
v -0.086199 0.295525 -0.011803
v 0.010305 0.321280 -0.064276
v 0.024493 0.433048 -0.058290
v -0.063240 0.476372 -0.002119
v -0.131651 0.391379 0.026612
v -0.082994 0.301151 -0.124443
v -0.014582 0.386144 -0.153174
v -0.060034 0.481998 -0.114759
v -0.156538 0.456243 -0.062286
v -0.170726 0.344475 -0.068271
v -0.126465 0.400480 -0.155643
v -0.081103 0.434242 -0.005380
v -0.017046 0.341541 0.000340
v -0.126522 0.336201 0.027097
v -0.154009 0.431607 0.080687
v -0.061520 0.495909 0.087049
v 0.023127 0.440246 0.037392
v -0.050362 0.281614 0.089942
v -0.135009 0.337278 0.139599
v -0.094836 0.435982 0.176651
v 0.014639 0.441322 0.149894
v 0.042127 0.345916 0.096304
v -0.030779 0.343281 0.182371
v -0.064339 0.386505 0.093892
v -0.006336 0.482397 0.106924
v -0.010111 0.432017 0.006043
v -0.006967 0.320463 0.022642
v -0.001247 0.301902 0.133783
v -0.000858 0.401982 0.185871
v 0.086885 0.475621 0.043726
v 0.086495 0.375540 -0.008361
v 0.091973 0.295126 0.070586
v 0.095749 0.345506 0.171467
v 0.092604 0.457059 0.154868
v 0.149976 0.391018 0.083617
v 0.040825 0.386505 -0.092184
v 0.048193 0.482397 -0.033193
v 0.141843 0.432017 -0.070888
v 0.127288 0.320463 -0.062311
v 0.024641 0.301902 -0.019315
v -0.024241 0.401982 -0.001319
v 0.139210 0.475621 0.033138
v 0.188092 0.375540 0.015142
v 0.115658 0.295126 0.047016
v 0.022008 0.345506 0.084711
v 0.036563 0.457059 0.076134
v 0.123026 0.391018 0.106006
v -0.028415 0.377043 0.008771
v -0.018754 0.295525 -0.068632
v 0.069008 0.321280 -0.002570
v 0.069444 0.433048 0.012823
v -0.018047 0.476372 -0.043724
v -0.072557 0.391379 -0.094066
v 0.085077 0.301151 -0.112418
v 0.139587 0.386144 -0.062076
v 0.085784 0.481998 -0.087510
v -0.001978 0.456243 -0.153571
v -0.002414 0.344475 -0.168965
v 0.095445 0.400480 -0.164913
v -0.020814 0.540586 -0.138601
v -0.006315 0.469741 -0.134223
v -0.066320 0.492421 -0.167888
v -0.092367 0.549283 -0.131329
v -0.048460 0.561745 -0.075069
v 0.004723 0.512586 -0.076858
v -0.068907 0.434654 -0.124245
v -0.122090 0.483814 -0.122456
v -0.111052 0.526658 -0.065092
v -0.051047 0.503979 -0.031427
v -0.024999 0.447117 -0.067986
v -0.096553 0.455814 -0.060714
v 0.020554 0.456538 0.015140
v 0.025861 0.498682 0.046885
v -0.021189 0.474643 0.042375
v -0.027036 0.459402 -0.008079
v 0.016403 0.474023 -0.034750
v 0.049094 0.498299 -0.000781
v -0.018448 0.527593 0.043286
v -0.051139 0.503316 0.009316
v -0.027907 0.502933 -0.038350
v 0.019144 0.526972 -0.033840
v 0.024990 0.542213 0.016614
v -0.022599 0.545077 -0.006605
vn 0.1440 -0.6858 -0.7134
vn 0.1440 0.6858 -0.7134
vn 0.2784 0.6862 -0.6720
vn 0.2784 -0.6862 -0.6720
vn 0.4027 0.6858 -0.6063
vn 0.4027 -0.6858 -0.6063
vn -0.0000 -0.6850 -0.7285
vn -0.0000 0.6850 -0.7285
vn 0.5151 0.6850 -0.5151
vn 0.5151 -0.6850 -0.5151
vn 0.6063 -0.6858 -0.4027
vn 0.6063 0.6858 -0.4027
vn 0.6720 0.6862 -0.2784
vn 0.6720 -0.6862 -0.2784
vn 0.7134 0.6858 -0.1440
vn 0.7134 -0.6858 -0.1440
vn 0.7285 0.6851 -0.0000
vn 0.7285 -0.6850 -0.0000
vn 0.7134 -0.6858 0.1440
vn 0.7134 0.6858 0.1440
vn 0.6720 0.6862 0.2784
vn 0.6720 -0.6862 0.2784
vn 0.6063 0.6858 0.4027
vn 0.6063 -0.6858 0.4027
vn 0.5151 0.6850 0.5151
vn 0.5151 -0.6850 0.5151
vn 0.4027 -0.6858 0.6063
vn 0.4027 0.6858 0.6063
vn 0.2784 0.6862 0.6720
vn 0.2784 -0.6862 0.6720
vn 0.1440 0.6858 0.7134
vn 0.1440 -0.6858 0.7134
vn -0.0000 0.6850 0.7285
vn -0.0000 -0.6850 0.7285
vn -0.1440 -0.6858 0.7134
vn -0.1440 0.6858 0.7134
vn -0.2784 0.6862 0.6720
vn -0.2784 -0.6862 0.6720
vn -0.4027 0.6858 0.6063
vn -0.4027 -0.6858 0.6063
vn -0.5151 0.6850 0.5151
vn -0.5151 -0.6850 0.5151
vn -0.6063 -0.6858 0.4027
vn -0.6063 0.6858 0.4027
vn -0.6720 0.6862 0.2784
vn -0.6720 -0.6862 0.2784
vn -0.7134 0.6858 0.1440
vn -0.7134 -0.6858 0.1440
vn -0.7285 0.6851 -0.0000
vn -0.7285 -0.6850 -0.0000
vn -0.7134 -0.6858 -0.1440
vn -0.7134 0.6858 -0.1440
vn -0.6720 0.6862 -0.2784
vn -0.6720 -0.6862 -0.2784
vn -0.6063 0.6858 -0.4027
vn -0.6063 -0.6858 -0.4027
vn -0.5151 0.6850 -0.5151
vn -0.5151 -0.6850 -0.5151
vn -0.4027 -0.6858 -0.6063
vn -0.4027 0.6858 -0.6063
vn -0.2784 0.6862 -0.6720
vn -0.2784 -0.6862 -0.6720
vn -0.1440 0.6858 -0.7134
vn -0.1440 -0.6858 -0.7134
vn -0.4147 0.9084 -0.0534
vn -0.3864 0.9179 -0.0905
vn -0.8287 -0.3305 -0.4516
vn -0.8697 -0.3853 -0.3084
vn -0.3345 0.9322 -0.1386
vn -0.8816 -0.2991 -0.3652
vn -0.8338 -0.3096 -0.4571
vn -0.3561 0.9273 -0.1150
vn -0.8995 -0.4369 -0.0000
vn -0.4292 0.9032 -0.0000
vn -0.0534 0.9084 0.4147
vn -0.0905 0.9179 0.3864
vn -0.4516 -0.3305 0.8287
vn -0.3084 -0.3853 0.8697
vn -0.1386 0.9322 0.3345
vn -0.3652 -0.2991 0.8816
vn -0.4571 -0.3096 0.8338
vn -0.1150 0.9273 0.3561
vn -0.0000 -0.4369 0.8995
vn -0.0000 0.9032 0.4292
vn 0.4147 0.9084 0.0534
vn 0.3864 0.9179 0.0905
vn 0.8287 -0.3305 0.4516
vn 0.8697 -0.3853 0.3084
vn 0.3345 0.9322 0.1386
vn 0.8816 -0.2991 0.3652
vn 0.8338 -0.3096 0.4571
vn 0.3561 0.9273 0.1150
vn 0.8995 -0.4369 -0.0000
vn 0.4292 0.9032 -0.0000
vn 0.0534 0.9084 -0.4147
vn 0.0905 0.9179 -0.3864
vn 0.4516 -0.3305 -0.8287
vn 0.3084 -0.3853 -0.8697
vn 0.1386 0.9322 -0.3345
vn 0.3652 -0.2991 -0.8816
vn 0.4571 -0.3096 -0.8338
vn 0.1150 0.9273 -0.3561
vn -0.0000 -0.4369 -0.8995
vn -0.0000 0.9032 -0.4292
vn -0.2555 0.9084 -0.3310
vn -0.2092 0.9179 -0.3372
vn -0.2667 -0.3305 -0.9053
vn -0.3970 -0.3853 -0.8330
vn -0.1386 0.9322 -0.3345
vn -0.3652 -0.2991 -0.8816
vn -0.2664 -0.3096 -0.9128
vn -0.1705 0.9273 -0.3332
vn -0.6361 -0.4369 -0.6361
vn -0.3035 0.9032 -0.3035
vn -0.3310 0.9084 0.2555
vn -0.3372 0.9179 0.2092
vn -0.9053 -0.3305 0.2667
vn -0.8330 -0.3853 0.3970
vn -0.3345 0.9322 0.1386
vn -0.8816 -0.2991 0.3652
vn -0.9128 -0.3096 0.2664
vn -0.3332 0.9273 0.1705
vn -0.6361 -0.4369 0.6361
vn -0.3035 0.9032 0.3035
vn 0.2555 0.9084 0.3310
vn 0.2092 0.9179 0.3372
vn 0.2667 -0.3305 0.9053
vn 0.3970 -0.3853 0.8330
vn 0.1386 0.9322 0.3345
vn 0.3652 -0.2991 0.8816
vn 0.2664 -0.3096 0.9128
vn 0.1705 0.9273 0.3332
vn 0.6361 -0.4369 0.6361
vn 0.3035 0.9032 0.3035
vn 0.3561 0.9273 -0.1150
vn 0.3864 0.9179 -0.0905
vn 0.8287 -0.3305 -0.4516
vn 0.8338 -0.3096 -0.4571
vn 0.8697 -0.3853 -0.3084
vn 0.4147 0.9084 -0.0534
vn 0.8816 -0.2991 -0.3652
vn 0.3345 0.9322 -0.1386
vn 0.1150 0.9273 0.3561
vn 0.0905 0.9179 0.3864
vn 0.4516 -0.3305 0.8287
vn 0.4571 -0.3096 0.8338
vn 0.3084 -0.3853 0.8697
vn 0.0534 0.9084 0.4147
vn -0.3561 0.9273 0.1150
vn -0.3864 0.9179 0.0905
vn -0.8287 -0.3305 0.4516
vn -0.8338 -0.3096 0.4571
vn -0.8697 -0.3853 0.3084
vn -0.4147 0.9084 0.0534
vn -0.1150 0.9273 -0.3561
vn -0.0905 0.9179 -0.3864
vn -0.4516 -0.3305 -0.8287
vn -0.4571 -0.3096 -0.8338
vn -0.3084 -0.3853 -0.8697
vn -0.0534 0.9084 -0.4147
vn 0.1705 0.9273 -0.3332
vn 0.2092 0.9179 -0.3372
vn 0.2667 -0.3305 -0.9053
vn 0.2664 -0.3096 -0.9128
vn 0.3035 0.9032 -0.3035
vn 0.6361 -0.4369 -0.6361
vn 0.3970 -0.3853 -0.8330
vn 0.2555 0.9084 -0.3310
vn 0.3332 0.9273 0.1705
vn 0.3372 0.9179 0.2092
vn 0.9053 -0.3305 0.2667
vn 0.9128 -0.3096 0.2664
vn 0.8330 -0.3853 0.3970
vn 0.3310 0.9084 0.2555
vn -0.1705 0.9273 0.3332
vn -0.2092 0.9179 0.3372
vn -0.2667 -0.3305 0.9053
vn -0.2664 -0.3096 0.9128
vn -0.3970 -0.3853 0.8330
vn -0.2555 0.9084 0.3310
vn -0.3332 0.9273 -0.1705
vn -0.3372 0.9179 -0.2092
vn -0.9053 -0.3305 -0.2667
vn -0.9128 -0.3096 -0.2664
vn -0.8330 -0.3853 -0.3970
vn -0.3310 0.9084 -0.2555
vn 0.3310 0.9084 -0.2555
vn 0.3372 0.9179 -0.2092
vn 0.9053 -0.3305 -0.2667
vn 0.8330 -0.3853 -0.3970
vn 0.9128 -0.3096 -0.2664
vn 0.3332 0.9273 -0.1705
vn -0.1444 0.6835 0.7155
vn -0.2792 0.6839 0.6740
vn -0.2627 0.7271 0.6342
vn -0.1357 0.7277 0.6724
vn -0.4038 0.6835 0.6080
vn -0.3795 0.7277 0.5714
vn -0.0000 0.6829 0.7305
vn -0.0000 0.7285 0.6850
vn -0.5166 0.6829 0.5166
vn -0.4844 0.7285 0.4844
vn -0.6080 0.6835 0.4038
vn -0.6740 0.6839 0.2792
vn -0.6342 0.7271 0.2627
vn -0.5714 0.7277 0.3795
vn -0.7155 0.6835 0.1444
vn -0.6724 0.7277 0.1357
vn -0.7305 0.6829 -0.0000
vn -0.6850 0.7285 -0.0000
vn -0.7155 0.6835 -0.1444
vn -0.6740 0.6839 -0.2792
vn -0.6342 0.7271 -0.2627
vn -0.6724 0.7277 -0.1357
vn -0.6080 0.6835 -0.4038
vn -0.5714 0.7277 -0.3795
vn -0.5166 0.6829 -0.5166
vn -0.4844 0.7285 -0.4844
vn -0.4038 0.6835 -0.6080
vn -0.2792 0.6839 -0.6740
vn -0.2627 0.7271 -0.6342
vn -0.3795 0.7277 -0.5714
vn -0.1444 0.6835 -0.7155
vn -0.1357 0.7277 -0.6724
vn -0.0000 0.6829 -0.7305
vn -0.0000 0.7285 -0.6850
vn 0.1444 0.6835 -0.7155
vn 0.2792 0.6839 -0.6740
vn 0.2627 0.7271 -0.6342
vn 0.1357 0.7277 -0.6724
vn 0.4038 0.6835 -0.6080
vn 0.3795 0.7277 -0.5714
vn 0.5166 0.6829 -0.5166
vn 0.4844 0.7285 -0.4844
vn 0.6080 0.6835 -0.4038
vn 0.6740 0.6839 -0.2792
vn 0.6342 0.7271 -0.2627
vn 0.5714 0.7277 -0.3795
vn 0.7155 0.6835 -0.1444
vn 0.6724 0.7277 -0.1357
vn 0.7305 0.6829 -0.0000
vn 0.6850 0.7285 -0.0000
vn 0.7155 0.6835 0.1444
vn 0.6740 0.6839 0.2792
vn 0.6342 0.7271 0.2627
vn 0.6724 0.7277 0.1357
vn 0.6080 0.6835 0.4038
vn 0.5714 0.7277 0.3795
vn 0.5166 0.6829 0.5166
vn 0.4844 0.7285 0.4844
vn 0.4038 0.6835 0.6080
vn 0.2792 0.6839 0.6740
vn 0.2627 0.7271 0.6342
vn 0.3795 0.7277 0.5714
vn 0.1444 0.6835 0.7155
vn 0.1357 0.7277 0.6724
vn 0.9050 0.4029 0.1365
vn 0.3780 -0.9132 -0.1521
vn 0.4301 -0.8899 -0.1518
vn 0.8908 0.3864 0.2392
vn 0.8622 0.3593 0.3571
vn 0.8768 0.3683 0.3091
vn 0.4214 -0.9060 -0.0412
vn 0.3605 -0.9208 0.1493
vn 0.9118 0.4107 -0.0000
vn 0.3258 -0.9455 -0.0000
vn 0.1365 0.4029 -0.9050
vn -0.1521 -0.9132 -0.3780
vn -0.1518 -0.8899 -0.4301
vn 0.2392 0.3864 -0.8908
vn 0.3571 0.3593 -0.8622
vn 0.3091 0.3683 -0.8768
vn -0.0412 -0.9060 -0.4214
vn 0.1493 -0.9208 -0.3605
vn -0.0000 0.4107 -0.9118
vn -0.0000 -0.9455 -0.3258
vn -0.9050 0.4029 -0.1365
vn -0.3780 -0.9132 0.1521
vn -0.4301 -0.8899 0.1518
vn -0.8908 0.3864 -0.2392
vn -0.8622 0.3593 -0.3571
vn -0.8768 0.3683 -0.3091
vn -0.4214 -0.9060 0.0412
vn -0.3605 -0.9208 -0.1493
vn -0.9118 0.4107 -0.0000
vn -0.3258 -0.9455 -0.0000
vn -0.1365 0.4029 0.9050
vn 0.1521 -0.9132 0.3780
vn 0.1518 -0.8899 0.4301
vn -0.2392 0.3864 0.8908
vn -0.3571 0.3593 0.8622
vn -0.3091 0.3683 0.8768
vn 0.0412 -0.9060 0.4214
vn -0.1493 -0.9208 0.3605
vn -0.0000 0.4107 0.9118
vn -0.0000 -0.9455 0.3258
vn 0.5434 0.4029 0.7364
vn 0.3748 -0.9132 0.1597
vn 0.4114 -0.8899 0.1967
vn 0.4607 0.3864 0.7990
vn 0.3571 0.3594 0.8622
vn 0.4015 0.3683 0.8386
vn 0.3271 -0.9060 0.2688
vn 0.1493 -0.9208 0.3605
vn 0.6447 0.4107 0.6447
vn 0.2304 -0.9455 0.2304
vn 0.7364 0.4029 -0.5434
vn 0.1597 -0.9132 -0.3748
vn 0.1967 -0.8899 -0.4114
vn 0.7990 0.3864 -0.4607
vn 0.8622 0.3593 -0.3571
vn 0.8386 0.3683 -0.4015
vn 0.2688 -0.9060 -0.3271
vn 0.3605 -0.9208 -0.1493
vn 0.6447 0.4107 -0.6447
vn 0.2303 -0.9455 -0.2304
vn -0.5434 0.4029 -0.7364
vn -0.3748 -0.9132 -0.1597
vn -0.4114 -0.8899 -0.1967
vn -0.4607 0.3864 -0.7990
vn -0.3571 0.3594 -0.8622
vn -0.4015 0.3683 -0.8386
vn -0.3271 -0.9060 -0.2688
vn -0.1493 -0.9208 -0.3605
vn -0.6447 0.4107 -0.6447
vn -0.2304 -0.9455 -0.2304
vn -0.8768 0.3683 0.3091
vn -0.4214 -0.9060 -0.0412
vn -0.4301 -0.8899 -0.1518
vn -0.8908 0.3864 0.2392
vn -0.9050 0.4029 0.1365
vn -0.3779 -0.9133 -0.1521
vn -0.8622 0.3593 0.3571
vn -0.3605 -0.9208 0.1493
vn -0.3091 0.3683 -0.8768
vn 0.0412 -0.9060 -0.4214
vn 0.1518 -0.8899 -0.4301
vn -0.2392 0.3864 -0.8908
vn -0.1365 0.4029 -0.9050
vn 0.1521 -0.9132 -0.3780
vn 0.8768 0.3683 -0.3091
vn 0.4214 -0.9060 0.0412
vn 0.4301 -0.8899 0.1518
vn 0.8908 0.3864 -0.2392
vn 0.9050 0.4029 -0.1365
vn 0.3779 -0.9133 0.1521
vn 0.3091 0.3683 0.8768
vn -0.0412 -0.9060 0.4214
vn -0.1518 -0.8899 0.4301
vn 0.2392 0.3864 0.8908
vn 0.1365 0.4029 0.9050
vn -0.1521 -0.9132 0.3780
vn -0.4015 0.3683 0.8386
vn -0.3271 -0.9060 0.2688
vn -0.4114 -0.8899 0.1967
vn -0.4607 0.3864 0.7990
vn -0.6447 0.4107 0.6447
vn -0.5434 0.4029 0.7364
vn -0.3748 -0.9132 0.1597
vn -0.2303 -0.9455 0.2304
vn -0.8386 0.3683 -0.4015
vn -0.2688 -0.9060 -0.3271
vn -0.1967 -0.8899 -0.4114
vn -0.7990 0.3864 -0.4607
vn -0.7364 0.4029 -0.5434
vn -0.1597 -0.9132 -0.3748
vn 0.4015 0.3683 -0.8386
vn 0.3271 -0.9060 -0.2688
vn 0.4114 -0.8899 -0.1967
vn 0.4607 0.3864 -0.7990
vn 0.5434 0.4029 -0.7364
vn 0.3748 -0.9132 -0.1597
vn 0.8386 0.3683 0.4015
vn 0.2688 -0.9060 0.3271
vn 0.1967 -0.8899 0.4114
vn 0.7990 0.3864 0.4607
vn 0.7364 0.4029 0.5434
vn 0.1597 -0.9132 0.3748
vn -0.7364 0.4029 0.5434
vn -0.1597 -0.9132 0.3748
vn -0.1967 -0.8899 0.4114
vn -0.7990 0.3864 0.4607
vn -0.8386 0.3683 0.4015
vn -0.2688 -0.9060 0.3271
vn 0.1876 -0.7947 0.5774
vn 0.6071 -0.7947 -0.0000
vn -0.4911 -0.7947 0.3568
vn -0.4911 -0.7947 -0.3568
vn 0.1876 -0.7947 -0.5774
vn 0.9822 -0.1876 -0.0000
vn 0.3035 -0.1876 0.9342
vn -0.7946 -0.1876 0.5774
vn -0.7946 -0.1876 -0.5774
vn 0.3035 -0.1876 -0.9342
vn 0.7946 0.1876 0.5774
vn -0.3035 0.1876 0.9342
vn -0.9822 0.1876 -0.0000
vn -0.3035 0.1876 -0.9342
vn 0.7946 0.1876 -0.5774
vn 0.4911 0.7947 0.3568
vn -0.1876 0.7947 0.5774
vn -0.6071 0.7947 -0.0000
vn -0.1876 0.7947 -0.5774
vn 0.4911 0.7947 -0.3568
vn 0.4835 -0.6741 0.5584
vn 0.9162 -0.1365 0.3767
vn 0.6287 0.4698 0.6197
vn 0.0183 0.3069 0.9516
vn -0.0714 -0.4001 0.9137
vn 0.2364 -0.9708 -0.0418
vn 0.9365 -0.1009 -0.3358
vn 0.4713 0.8801 0.0574
vn -0.5163 0.6165 0.5944
vn -0.6616 -0.5274 0.5331
vn 0.5163 -0.6165 -0.5944
vn 0.6616 0.5274 -0.5331
vn -0.2364 0.9708 0.0418
vn -0.9365 0.1009 0.3358
vn -0.4713 -0.8801 -0.0574
vn -0.0183 -0.3069 -0.9516
vn 0.0714 0.4001 -0.9137
vn -0.4835 0.6741 -0.5584
vn -0.6287 -0.4698 -0.6197
vn -0.9162 0.1365 -0.3767
vn -0.2222 -0.2123 -0.9516
vn 0.3628 0.1945 -0.9114
vn -0.7576 0.1398 -0.6375
vn -0.5035 0.7641 -0.4031
vn 0.1889 0.7979 -0.5724
vn 0.8445 -0.1508 -0.5139
vn -0.1021 -0.8089 -0.5790
vn -0.9684 -0.2393 -0.0708
vn -0.5572 0.7710 0.3084
vn 0.5632 0.8256 0.0346
vn 0.5572 -0.7710 -0.3084
vn -0.5632 -0.8256 -0.0346
vn -0.8445 0.1508 0.5139
vn 0.1021 0.8089 0.5790
vn 0.9684 0.2393 0.0708
vn 0.5035 -0.7641 0.4031
vn -0.1889 -0.7979 0.5724
vn -0.3628 -0.1945 0.9114
vn 0.2222 0.2123 0.9516
vn 0.7576 -0.1398 0.6375
vn -0.8180 0.5263 -0.2322
vn -0.7818 0.4089 0.4708
vn -0.8204 -0.1067 -0.5617
vn -0.7858 -0.6154 -0.0623
vn -0.7619 -0.2967 0.5758
vn -0.1683 0.6847 0.7091
vn -0.2268 0.8747 -0.4283
vn -0.2308 -0.1496 -0.9614
vn -0.1747 -0.9726 -0.1534
vn -0.1361 -0.4570 0.8790
vn 0.1747 0.9726 0.1534
vn 0.1361 0.4570 -0.8790
vn 0.1683 -0.6847 -0.7091
vn 0.2268 -0.8747 0.4283
vn 0.2308 0.1496 0.9614
vn 0.7858 0.6154 0.0623
vn 0.7619 0.2967 -0.5758
vn 0.7818 -0.4089 -0.4708
vn 0.8180 -0.5263 0.2322
vn 0.8204 0.1067 0.5617
vn -0.0583 0.5263 -0.8483
vn -0.7076 0.4089 -0.5763
vn 0.2509 -0.1067 -0.9621
vn -0.2073 -0.6154 -0.7605
vn -0.7996 -0.2967 -0.5221
vn -0.7242 0.6847 0.0816
vn 0.3263 0.8747 -0.3584
vn 0.8266 -0.1496 -0.5426
vn 0.0853 -0.9726 -0.2163
vn -0.8732 -0.4570 0.1694
vn -0.0853 0.9726 0.2163
vn 0.8732 0.4570 -0.1694
vn 0.7242 -0.6847 -0.0817
vn -0.3263 -0.8747 0.3584
vn -0.8266 0.1496 0.5426
vn 0.2073 0.6154 0.7605
vn 0.7996 0.2967 0.5221
vn 0.7076 -0.4089 0.5763
vn 0.0583 -0.5263 0.8483
vn -0.2509 0.1067 0.9621
vn -0.3077 -0.6741 0.6715
vn 0.0371 -0.1365 0.9899
vn -0.3032 0.4698 0.8291
vn -0.8583 0.3069 0.4112
vn -0.8611 -0.4001 0.3138
vn 0.1360 -0.9708 0.1978
vn 0.6939 -0.1009 0.7130
vn 0.1432 0.8801 0.4527
vn -0.7550 0.6165 -0.2234
vn -0.7594 -0.5274 -0.3810
vn 0.7550 -0.6165 0.2234
vn 0.7594 0.5274 0.3810
vn -0.1360 0.9708 -0.1978
vn -0.6939 0.1009 -0.7130
vn -0.1432 -0.8801 -0.4527
vn 0.8583 -0.3069 -0.4112
vn 0.8611 0.4001 -0.3138
vn 0.3077 0.6741 -0.6715
vn 0.3032 -0.4698 -0.8291
vn -0.0371 0.1365 -0.9899
vn 0.5029 0.0496 -0.8629
vn 0.9354 0.1724 -0.3087
vn -0.0210 0.5339 -0.8453
vn 0.0877 0.9559 -0.2802
vn 0.6788 0.7325 0.0514
vn 0.9099 -0.3967 0.1212
vn 0.2101 -0.5953 -0.7755
vn -0.6376 0.1882 -0.7470
vn -0.4617 0.8711 0.1673
vn 0.4948 0.5096 0.7039
vn 0.4617 -0.8711 -0.1673
vn -0.4948 -0.5096 -0.7039
vn -0.9099 0.3967 -0.1212
vn -0.2101 0.5953 0.7755
vn 0.6376 -0.1882 0.7470
vn -0.0877 -0.9559 0.2802
vn -0.6788 -0.7325 -0.0514
vn -0.9354 -0.1724 0.3087
vn -0.5029 -0.0496 0.8629
vn 0.0210 -0.5339 0.8453
vn 0.2353 -0.6035 0.7619
vn 0.8199 -0.4067 0.4029
vn -0.2046 -0.9302 0.3047
vn 0.1080 -0.9354 -0.3368
vn 0.7412 -0.6118 -0.2761
vn 0.8568 0.3058 0.4152
vn -0.0891 -0.0125 0.9959
vn -0.8009 -0.5411 0.2563
vn -0.2950 -0.5495 -0.7817
vn 0.7295 -0.0260 -0.6835
vn 0.2950 0.5495 0.7817
vn -0.7295 0.0260 0.6835
vn -0.8568 -0.3058 -0.4152
vn 0.0891 0.0125 -0.9959
vn 0.8009 0.5411 -0.2563
vn -0.1080 0.9354 0.3368
vn -0.7412 0.6118 0.2761
vn -0.8199 0.4067 -0.4029
vn -0.2353 0.6035 -0.7619
vn 0.2046 0.9302 -0.3047
vt 0.818666 0.857933
vt 0.818666 0.786476
vt 0.823789 0.786540
vt 0.823789 0.857997
vt 0.829524 0.786587
vt 0.829524 0.858043
vt 0.724128 0.920098
vt 0.724128 0.848660
vt 0.728546 0.848789
vt 0.728546 0.920227
vt 0.835655 0.786613
vt 0.835655 0.858069
vt 0.841961 0.858073
vt 0.841961 0.786617
vt 0.848205 0.786599
vt 0.848205 0.858056
vt 0.854145 0.786561
vt 0.854145 0.858018
vt 0.859538 0.786505
vt 0.859538 0.857962
vt 0.818666 0.929644
vt 0.818666 0.858203
vt 0.823956 0.858297
vt 0.823956 0.929738
vt 0.829809 0.858362
vt 0.829809 0.929803
vt 0.864161 0.786430
vt 0.864161 0.857887
vt 0.836003 0.858395
vt 0.836003 0.929836
vt 0.842314 0.929835
vt 0.842314 0.858393
vt 0.848504 0.858358
vt 0.848504 0.929800
vt 0.854336 0.858292
vt 0.854336 0.929733
vt 0.859571 0.858196
vt 0.859571 0.929637
vt 0.818666 0.786380
vt 0.818666 0.714925
vt 0.823789 0.714855
vt 0.823789 0.786310
vt 0.829524 0.714804
vt 0.829524 0.786259
vt 0.863989 0.858073
vt 0.863989 0.929514
vt 0.835655 0.714776
vt 0.835655 0.786231
vt 0.841961 0.786226
vt 0.841961 0.714772
vt 0.848205 0.714791
vt 0.848205 0.786245
vt 0.854145 0.714832
vt 0.854145 0.786287
vt 0.859538 0.714894
vt 0.859538 0.786349
vt 0.683223 0.920090
vt 0.683223 0.848652
vt 0.688514 0.848552
vt 0.688514 0.919990
vt 0.694367 0.848483
vt 0.694367 0.919921
vt 0.864161 0.714975
vt 0.700561 0.848449
vt 0.700561 0.919887
vt 0.706871 0.919888
vt 0.706871 0.848450
vt 0.713062 0.848488
vt 0.713062 0.919926
vt 0.718894 0.848558
vt 0.718894 0.919996
vt 0.771475 0.839428
vt 0.766231 0.835919
vt 0.761759 0.831447
vt 0.758220 0.826206
vt 0.755772 0.820390
vt 0.754545 0.814199
vt 0.754545 0.807875
vt 0.755748 0.801667
vt 0.758130 0.795823
vt 0.761640 0.790578
vt 0.766112 0.786107
vt 0.771352 0.782567
vt 0.777169 0.780120
vt 0.783359 0.778893
vt 0.789683 0.778893
vt 0.795892 0.780096
vt 0.801735 0.782478
vt 0.806980 0.785988
vt 0.811452 0.790459
vt 0.814991 0.795700
vt 0.817439 0.801517
vt 0.818666 0.807707
vt 0.818666 0.814031
vt 0.817463 0.820240
vt 0.815080 0.826083
vt 0.811571 0.831328
vt 0.807099 0.835800
vt 0.801858 0.839339
vt 0.796042 0.841787
vt 0.789851 0.843014
vt 0.783527 0.843014
vt 0.777319 0.841811
vt 0.276897 0.778009
vt 0.276971 0.780491
vt 0.265600 0.777416
vt 0.264274 0.774437
vt 0.277111 0.786047
vt 0.267568 0.784099
vt 0.266922 0.780705
vt 0.277042 0.783209
vt 0.083838 0.947980
vt 0.083305 0.945575
vt 0.096471 0.942351
vt 0.096444 0.944560
vt 0.096183 0.899412
vt 0.096231 0.901806
vt 0.084830 0.898521
vt 0.083532 0.895629
vt 0.096322 0.907211
vt 0.086743 0.905046
vt 0.086126 0.901733
vt 0.096277 0.904447
vt 0.263367 0.774437
vt 0.264000 0.776732
vt 0.250631 0.780082
vt 0.250574 0.777971
vt 0.250574 0.823164
vt 0.250623 0.820682
vt 0.262170 0.823859
vt 0.263363 0.826849
vt 0.250709 0.815125
vt 0.260452 0.817159
vt 0.260971 0.820558
vt 0.250667 0.817963
vt 0.141712 0.946333
vt 0.141104 0.943925
vt 0.154435 0.940756
vt 0.154472 0.942964
vt 0.154472 0.897816
vt 0.154440 0.900211
vt 0.142927 0.896878
vt 0.141715 0.893980
vt 0.154386 0.905615
vt 0.144679 0.903411
vt 0.144143 0.900096
vt 0.154412 0.902851
vt 0.264744 0.826847
vt 0.264229 0.824557
vt 0.277341 0.821088
vt 0.277299 0.823201
vt 0.277367 0.800622
vt 0.277381 0.803661
vt 0.266075 0.804068
vt 0.264821 0.800628
vt 0.277387 0.809809
vt 0.267882 0.811190
vt 0.267318 0.807588
vt 0.277386 0.806728
vt 0.264229 0.797265
vt 0.277341 0.797626
vt 0.096489 0.921568
vt 0.096498 0.924625
vt 0.085139 0.924763
vt 0.083888 0.921286
vt 0.096501 0.930846
vt 0.086947 0.931994
vt 0.086383 0.928337
vt 0.096501 0.927725
vt 0.083305 0.917919
vt 0.096471 0.918575
vt 0.250828 0.800547
vt 0.250816 0.797509
vt 0.262395 0.797204
vt 0.263660 0.800655
vt 0.250770 0.791361
vt 0.260521 0.790065
vt 0.261119 0.793673
vt 0.250795 0.794442
vt 0.264229 0.804023
vt 0.250829 0.803544
vt 0.154364 0.932360
vt 0.154383 0.935376
vt 0.142860 0.937657
vt 0.144087 0.934057
vt 0.141638 0.941000
vt 0.154406 0.938206
vt 0.144635 0.930359
vt 0.154347 0.929251
vt 0.250743 0.788295
vt 0.250713 0.785327
vt 0.262274 0.782860
vt 0.261058 0.786413
vt 0.263483 0.779576
vt 0.250677 0.782556
vt 0.096501 0.933955
vt 0.096498 0.936971
vt 0.085139 0.939300
vt 0.086383 0.935694
vt 0.083888 0.942648
vt 0.096489 0.939801
vt 0.277386 0.812875
vt 0.277381 0.815844
vt 0.266075 0.818412
vt 0.267318 0.814848
vt 0.264821 0.821708
vt 0.277367 0.818614
vt 0.154360 0.908403
vt 0.154337 0.911213
vt 0.142805 0.909833
vt 0.144081 0.906652
vt 0.154310 0.916980
vt 0.140957 0.916269
vt 0.141536 0.913017
vt 0.154319 0.914064
vt 0.250749 0.812265
vt 0.250785 0.809391
vt 0.262360 0.810564
vt 0.261068 0.813830
vt 0.263643 0.807312
vt 0.250813 0.806488
vt 0.096367 0.909999
vt 0.096408 0.912808
vt 0.085038 0.911475
vt 0.086231 0.908289
vt 0.083838 0.914665
vt 0.096444 0.915659
vt 0.277179 0.788906
vt 0.277243 0.791780
vt 0.265920 0.790708
vt 0.267085 0.787432
vt 0.264744 0.793971
vt 0.277299 0.794682
vt 0.154310 0.919973
vt 0.154318 0.923031
vt 0.142784 0.923121
vt 0.141525 0.919639
vt 0.144048 0.926701
vt 0.154331 0.926130
vt 0.907850 0.928444
vt 0.902909 0.928516
vt 0.902612 0.858146
vt 0.907486 0.858073
vt 0.897377 0.928572
vt 0.897156 0.858200
vt 0.758802 0.975315
vt 0.754545 0.975420
vt 0.755083 0.905077
vt 0.759279 0.904973
vt 0.891469 0.928607
vt 0.891333 0.858233
vt 0.885393 0.928616
vt 0.879369 0.928604
vt 0.879401 0.858232
vt 0.885342 0.858244
vt 0.873640 0.928571
vt 0.873750 0.858199
vt 0.868444 0.928518
vt 0.868627 0.858146
vt 0.907857 0.855645
vt 0.902754 0.855756
vt 0.902340 0.785399
vt 0.907373 0.785289
vt 0.897108 0.855841
vt 0.896772 0.785481
vt 0.863989 0.928444
vt 0.864235 0.858073
vt 0.891140 0.855893
vt 0.890888 0.785532
vt 0.885060 0.855909
vt 0.879088 0.855890
vt 0.879004 0.785531
vt 0.884894 0.785549
vt 0.873462 0.855840
vt 0.873455 0.785481
vt 0.868419 0.855759
vt 0.868482 0.785399
vt 0.908023 0.785289
vt 0.903082 0.785221
vt 0.902933 0.714861
vt 0.907807 0.714928
vt 0.897549 0.785172
vt 0.897477 0.714812
vt 0.864161 0.855645
vt 0.864286 0.785289
vt 0.891642 0.785142
vt 0.891653 0.714782
vt 0.885566 0.785131
vt 0.879542 0.785141
vt 0.879722 0.714782
vt 0.885663 0.714772
vt 0.873813 0.785172
vt 0.874071 0.714812
vt 0.868617 0.785223
vt 0.868948 0.714861
vt 0.798241 0.975420
vt 0.793138 0.975313
vt 0.793137 0.904973
vt 0.798170 0.905077
vt 0.787492 0.975235
vt 0.787569 0.904895
vt 0.864161 0.785289
vt 0.864556 0.714928
vt 0.781524 0.975187
vt 0.781685 0.904847
vt 0.775443 0.975171
vt 0.769471 0.975187
vt 0.769801 0.904848
vt 0.775691 0.904832
vt 0.763846 0.975236
vt 0.764252 0.904896
vt 0.758003 0.859334
vt 0.761384 0.854280
vt 0.765698 0.849967
vt 0.770754 0.846554
vt 0.776359 0.844196
vt 0.782323 0.843014
vt 0.788423 0.843014
vt 0.794412 0.844175
vt 0.800042 0.846472
vt 0.805096 0.849853
vt 0.809409 0.854167
vt 0.812823 0.859223
vt 0.815180 0.864828
vt 0.816363 0.870792
vt 0.816363 0.876892
vt 0.815201 0.882881
vt 0.812905 0.888511
vt 0.809524 0.893565
vt 0.805210 0.897878
vt 0.800154 0.901292
vt 0.794549 0.903649
vt 0.788585 0.904832
vt 0.782484 0.904832
vt 0.776496 0.903670
vt 0.770865 0.901374
vt 0.765812 0.897992
vt 0.761498 0.893679
vt 0.758085 0.888623
vt 0.755728 0.883018
vt 0.754545 0.877053
vt 0.754545 0.870953
vt 0.755706 0.864964
vt 0.277812 0.778000
vt 0.290437 0.774437
vt 0.289136 0.777287
vt 0.277764 0.780351
vt 0.277669 0.785725
vt 0.277722 0.782968
vt 0.287845 0.780467
vt 0.287219 0.783772
vt 0.288387 0.754186
vt 0.275775 0.750756
vt 0.275745 0.748704
vt 0.288920 0.751922
vt 0.276004 0.707694
vt 0.288657 0.703920
vt 0.287383 0.706688
vt 0.275981 0.709962
vt 0.275934 0.715189
vt 0.275963 0.712504
vt 0.286117 0.709794
vt 0.285518 0.713021
vt 0.288371 0.926538
vt 0.275574 0.922990
vt 0.275625 0.921027
vt 0.288999 0.924378
vt 0.275574 0.879879
vt 0.288367 0.876210
vt 0.287191 0.879070
vt 0.275642 0.882230
vt 0.275763 0.887605
vt 0.275710 0.884848
vt 0.286017 0.882262
vt 0.285512 0.885572
vt 0.274814 0.955096
vt 0.262050 0.951712
vt 0.262082 0.949660
vt 0.275419 0.952831
vt 0.262050 0.908649
vt 0.274812 0.904830
vt 0.273617 0.907602
vt 0.262101 0.910918
vt 0.262193 0.916145
vt 0.262154 0.913459
vt 0.272427 0.910713
vt 0.271906 0.913942
vt 0.290008 0.824763
vt 0.277447 0.821109
vt 0.277404 0.819146
vt 0.290524 0.822608
vt 0.277387 0.799550
vt 0.289940 0.799570
vt 0.288704 0.802849
vt 0.277393 0.802429
vt 0.277421 0.808380
vt 0.277411 0.805385
vt 0.287485 0.806249
vt 0.286934 0.809758
vt 0.277404 0.796763
vt 0.290524 0.796396
vt 0.275737 0.728806
vt 0.288344 0.728539
vt 0.287111 0.731854
vt 0.275748 0.731702
vt 0.275778 0.737724
vt 0.275768 0.734689
vt 0.285891 0.735306
vt 0.285339 0.738868
vt 0.275745 0.726021
vt 0.288920 0.725360
vt 0.275831 0.901432
vt 0.288669 0.901347
vt 0.287419 0.904635
vt 0.275837 0.904311
vt 0.275823 0.910262
vt 0.275838 0.907266
vt 0.286167 0.908046
vt 0.285580 0.911559
vt 0.275825 0.898645
vt 0.289234 0.898167
vt 0.262203 0.941701
vt 0.272484 0.943390
vt 0.273686 0.946870
vt 0.262160 0.944605
vt 0.262118 0.947286
vt 0.274890 0.950064
vt 0.262232 0.938680
vt 0.271951 0.939789
vt 0.275785 0.913242
vt 0.286103 0.915115
vt 0.287294 0.918550
vt 0.275731 0.916100
vt 0.275676 0.918725
vt 0.288487 0.921688
vt 0.275768 0.740745
vt 0.285891 0.742471
vt 0.287111 0.745955
vt 0.275748 0.743649
vt 0.275737 0.746330
vt 0.288344 0.749153
vt 0.277411 0.811361
vt 0.287485 0.813319
vt 0.288704 0.816764
vt 0.277393 0.814218
vt 0.277387 0.816843
vt 0.289940 0.819913
vt 0.262209 0.918856
vt 0.272493 0.917098
vt 0.273746 0.920169
vt 0.262210 0.921564
vt 0.262214 0.926978
vt 0.262210 0.924266
vt 0.275000 0.923201
vt 0.275574 0.926269
vt 0.275794 0.890387
vt 0.286116 0.888814
vt 0.287386 0.891967
vt 0.275807 0.893157
vt 0.275817 0.895907
vt 0.288652 0.895064
vt 0.275884 0.717901
vt 0.286023 0.716179
vt 0.287198 0.719254
vt 0.275824 0.720608
vt 0.275775 0.723310
vt 0.288387 0.722290
vt 0.277596 0.788506
vt 0.287695 0.787019
vt 0.288843 0.790182
vt 0.277515 0.791276
vt 0.277447 0.794025
vt 0.290008 0.793288
vt 0.262220 0.929762
vt 0.275011 0.929450
vt 0.273768 0.932769
vt 0.262230 0.932659
vt 0.262239 0.935645
vt 0.272526 0.936226
vt 0.755772 0.756268
vt 0.754545 0.750078
vt 0.756127 0.749923
vt 0.757293 0.755803
vt 0.754545 0.743754
vt 0.756128 0.743906
vt 0.755748 0.737546
vt 0.757272 0.737999
vt 0.758130 0.731702
vt 0.759535 0.732448
vt 0.771475 0.775307
vt 0.766230 0.771798
vt 0.767240 0.770569
vt 0.772221 0.773903
vt 0.761759 0.767326
vt 0.762985 0.766314
vt 0.758220 0.762085
vt 0.759618 0.761328
vt 0.796042 0.777666
vt 0.789851 0.778893
vt 0.789696 0.777310
vt 0.795576 0.776145
vt 0.783527 0.778893
vt 0.783679 0.777310
vt 0.777319 0.777690
vt 0.777773 0.776165
vt 0.815080 0.761962
vt 0.811571 0.767207
vt 0.810342 0.766198
vt 0.813676 0.761216
vt 0.807099 0.771679
vt 0.806087 0.770452
vt 0.801858 0.775218
vt 0.801101 0.773820
vt 0.817439 0.737396
vt 0.818666 0.743586
vt 0.817083 0.743742
vt 0.815918 0.737861
vt 0.818666 0.749910
vt 0.817083 0.749758
vt 0.817463 0.756119
vt 0.815939 0.755665
vt 0.801735 0.718357
vt 0.806980 0.721867
vt 0.805971 0.723096
vt 0.800989 0.719761
vt 0.811452 0.726338
vt 0.810225 0.727350
vt 0.814991 0.731579
vt 0.813593 0.732336
vt 0.777169 0.715999
vt 0.783359 0.714772
vt 0.783515 0.716354
vt 0.777635 0.717519
vt 0.789683 0.714772
vt 0.789531 0.716354
vt 0.795892 0.715975
vt 0.795438 0.717499
vt 0.761640 0.726457
vt 0.762869 0.727466
vt 0.766112 0.721986
vt 0.767123 0.723212
vt 0.771352 0.718446
vt 0.772109 0.719845
vt 0.079001 0.828628
vt 0.076691 0.830871
vt 0.075736 0.829772
vt 0.077983 0.827594
vt 0.074324 0.832970
vt 0.073453 0.831791
vt 0.071840 0.834783
vt 0.071100 0.833509
vt 0.069183 0.836166
vt 0.068629 0.834798
vt 0.088295 0.806650
vt 0.088248 0.809868
vt 0.086796 0.809768
vt 0.086845 0.806640
vt 0.088058 0.813027
vt 0.086609 0.812811
vt 0.087584 0.816065
vt 0.086159 0.815689
vt 0.086683 0.818922
vt 0.085324 0.818348
vt 0.079327 0.784537
vt 0.081569 0.786846
vt 0.080471 0.787803
vt 0.078293 0.785556
vt 0.083668 0.789214
vt 0.082490 0.790087
vt 0.085481 0.791697
vt 0.084208 0.792439
vt 0.086864 0.794355
vt 0.085497 0.794910
vt 0.057348 0.775242
vt 0.060567 0.775290
vt 0.060467 0.776743
vt 0.057339 0.776695
vt 0.063725 0.775479
vt 0.063510 0.776930
vt 0.066763 0.775954
vt 0.066388 0.777380
vt 0.069621 0.776855
vt 0.069047 0.778215
vt 0.035235 0.784211
vt 0.037544 0.781969
vt 0.038502 0.783068
vt 0.036255 0.785246
vt 0.039912 0.779870
vt 0.040786 0.781049
vt 0.042395 0.778057
vt 0.043138 0.779331
vt 0.045053 0.776673
vt 0.045609 0.778042
vt 0.025940 0.806189
vt 0.025988 0.802971
vt 0.027443 0.803072
vt 0.027394 0.806201
vt 0.026178 0.799812
vt 0.027629 0.800030
vt 0.026652 0.796774
vt 0.028079 0.797151
vt 0.027553 0.793917
vt 0.028914 0.794492
vt 0.034909 0.828303
vt 0.032667 0.825993
vt 0.033767 0.825037
vt 0.035945 0.827284
vt 0.030568 0.823626
vt 0.031748 0.822754
vt 0.028755 0.821142
vt 0.030030 0.820401
vt 0.027371 0.818484
vt 0.028741 0.817930
vt 0.056888 0.837597
vt 0.053669 0.837550
vt 0.053771 0.836097
vt 0.056900 0.836146
vt 0.050511 0.837360
vt 0.050729 0.835910
vt 0.047473 0.836886
vt 0.047850 0.835461
vt 0.044615 0.835985
vt 0.045191 0.834625
vt 0.039103 0.767457
vt 0.036470 0.764715
vt 0.037495 0.763689
vt 0.040059 0.766359
vt 0.041696 0.770108
vt 0.042561 0.768924
vt 0.044385 0.772404
vt 0.045117 0.771125
vt 0.047307 0.774079
vt 0.047870 0.772716
vt 0.025982 0.743381
vt 0.026059 0.739579
vt 0.027509 0.739580
vt 0.027434 0.743282
vt 0.025940 0.747091
vt 0.027389 0.746867
vt 0.026218 0.750619
vt 0.027640 0.750234
vt 0.027100 0.753872
vt 0.028462 0.753307
vt 0.033728 0.717078
vt 0.036470 0.714443
vt 0.037495 0.715471
vt 0.034825 0.718037
vt 0.031074 0.719676
vt 0.032258 0.720543
vt 0.028776 0.722370
vt 0.030054 0.723104
vt 0.027100 0.725294
vt 0.028462 0.725860
vt 0.057804 0.703957
vt 0.061606 0.704031
vt 0.061604 0.705484
vt 0.057901 0.705412
vt 0.054091 0.703920
vt 0.054314 0.705372
vt 0.050561 0.704203
vt 0.050945 0.705627
vt 0.047307 0.705087
vt 0.047870 0.706452
vt 0.084106 0.711703
vt 0.086742 0.714443
vt 0.085713 0.715471
vt 0.083146 0.712802
vt 0.081506 0.709055
vt 0.080638 0.710240
vt 0.078810 0.706761
vt 0.078075 0.708042
vt 0.075885 0.705087
vt 0.075318 0.706452
vt 0.097227 0.735779
vt 0.097154 0.739579
vt 0.095700 0.739580
vt 0.095771 0.735879
vt 0.097262 0.732071
vt 0.095809 0.732296
vt 0.096977 0.728546
vt 0.095551 0.728933
vt 0.096092 0.725294
vt 0.094726 0.725860
vt 0.089481 0.762081
vt 0.086742 0.764715
vt 0.085713 0.763689
vt 0.088381 0.761124
vt 0.092128 0.759487
vt 0.090941 0.758620
vt 0.094418 0.756795
vt 0.093137 0.756062
vt 0.096092 0.753872
vt 0.094726 0.753307
vt 0.065405 0.775203
vt 0.061606 0.775127
vt 0.061604 0.773675
vt 0.065304 0.773749
vt 0.069111 0.775242
vt 0.068885 0.773792
vt 0.072634 0.774962
vt 0.072246 0.773539
vt 0.075885 0.774080
vt 0.075318 0.772716
vt 0.085260 0.821559
vt 0.083998 0.820799
vt 0.083411 0.824016
vt 0.082246 0.823127
vt 0.081277 0.826352
vt 0.080194 0.825380
vt 0.087723 0.797225
vt 0.086293 0.797581
vt 0.088152 0.800270
vt 0.086700 0.800466
vt 0.088295 0.803431
vt 0.086842 0.803511
vt 0.072258 0.778277
vt 0.071498 0.779541
vt 0.074714 0.780127
vt 0.073826 0.781293
vt 0.077051 0.782260
vt 0.076079 0.783346
vt 0.047924 0.775814
vt 0.048280 0.777246
vt 0.050969 0.775385
vt 0.051165 0.776839
vt 0.054129 0.775242
vt 0.054210 0.776697
vt 0.028976 0.791280
vt 0.030240 0.792041
vt 0.030825 0.788823
vt 0.031992 0.789714
vt 0.032959 0.786487
vt 0.034045 0.787460
vt 0.026513 0.815614
vt 0.027945 0.815259
vt 0.026083 0.812569
vt 0.027538 0.812374
vt 0.025940 0.809408
vt 0.027396 0.809330
vt 0.041978 0.834562
vt 0.042740 0.833299
vt 0.039521 0.832713
vt 0.040412 0.831547
vt 0.037185 0.830579
vt 0.038159 0.829495
vt 0.066312 0.837025
vt 0.065958 0.835594
vt 0.063267 0.837454
vt 0.063073 0.836001
vt 0.060106 0.837597
vt 0.060029 0.836143
vt 0.028776 0.756795
vt 0.030054 0.756062
vt 0.031075 0.759486
vt 0.032258 0.758620
vt 0.033728 0.762081
vt 0.034825 0.761124
vt 0.026218 0.728546
vt 0.027640 0.728932
vt 0.025940 0.732071
vt 0.027389 0.732296
vt 0.025982 0.735779
vt 0.027434 0.735879
vt 0.044385 0.706761
vt 0.045117 0.708042
vt 0.041696 0.709054
vt 0.042561 0.710240
vt 0.039103 0.711703
vt 0.040059 0.712802
vt 0.072634 0.704203
vt 0.072246 0.705627
vt 0.069111 0.703920
vt 0.068885 0.705372
vt 0.065405 0.703957
vt 0.065304 0.705412
vt 0.094418 0.722370
vt 0.093137 0.723104
vt 0.092128 0.719676
vt 0.090941 0.720543
vt 0.089481 0.717078
vt 0.088381 0.718037
vt 0.096977 0.750619
vt 0.095551 0.750234
vt 0.097262 0.747092
vt 0.095809 0.746867
vt 0.097227 0.743381
vt 0.095771 0.743282
vt 0.078810 0.772404
vt 0.078075 0.771125
vt 0.081506 0.770108
vt 0.080638 0.768924
vt 0.084106 0.767457
vt 0.083146 0.766359
vt 0.050561 0.774962
vt 0.050945 0.773539
vt 0.054091 0.775242
vt 0.054314 0.773792
vt 0.057804 0.775203
vt 0.057901 0.773749
vt 0.382292 0.224111
vt 0.379939 0.216823
vt 0.388505 0.219606
vt 0.374646 0.224109
vt 0.388505 0.228612
vt 0.379939 0.231395
vt 0.501128 0.226517
vt 0.501219 0.233701
vt 0.493534 0.229224
vt 0.373755 0.231393
vt 0.373755 0.239758
vt 0.366140 0.234950
vt 0.365985 0.228686
vt 0.365985 0.219682
vt 0.373673 0.224209
vt 0.509475 0.206042
vt 0.509311 0.197314
vt 0.517087 0.201230
vt 0.501128 0.241086
vt 0.493534 0.238228
vt 0.365985 0.243679
vt 0.373572 0.216823
vt 0.373572 0.231393
vt 0.517087 0.209595
vt 0.500828 0.100130
vt 0.500828 0.109136
vt 0.494629 0.104624
vt 0.492263 0.097347
vt 0.486969 0.104633
vt 0.492263 0.111919
vt 0.477061 0.218418
vt 0.467389 0.221692
vt 0.471238 0.213400
vt 0.461412 0.213306
vt 0.467389 0.204850
vt 0.477061 0.208009
vt 0.519073 0.230596
vt 0.519219 0.240840
vt 0.510258 0.236113
vt 0.502147 0.218854
vt 0.510724 0.213428
vt 0.510724 0.223803
vt 0.510060 0.142821
vt 0.518873 0.148342
vt 0.510060 0.152205
vt 0.511536 0.166826
vt 0.502959 0.171770
vt 0.502194 0.163907
vt 0.511536 0.177199
vt 0.502194 0.180691
vt 0.501383 0.226728
vt 0.501383 0.209941
vt 0.519025 0.138098
vt 0.510258 0.226728
vt 0.486891 0.213135
vt 0.492708 0.218535
vt 0.483038 0.221691
vt 0.492708 0.208127
vt 0.483038 0.204850
vt 0.477061 0.213233
vt 0.511637 0.167775
vt 0.520465 0.163907
vt 0.520465 0.173259
vt 0.459314 0.235403
vt 0.450529 0.239035
vt 0.450430 0.230074
vt 0.511536 0.178032
vt 0.356495 0.213619
vt 0.356495 0.203210
vt 0.363387 0.208267
vt 0.366387 0.216823
vt 0.459314 0.225036
vt 0.388505 0.208410
vt 0.382391 0.216823
vt 0.379391 0.208543
vt 0.443987 0.236382
vt 0.435195 0.239158
vt 0.435106 0.231345
vt 0.366387 0.199981
vt 0.372500 0.208394
vt 0.372500 0.213594
vt 0.382391 0.199981
vt 0.443987 0.226015
vt 0.450529 0.222262
vt 0.372500 0.203185
vt 0.435195 0.222384
vt 0.519661 0.214706
vt 0.519661 0.224060
vt 0.510836 0.220198
vt 0.510724 0.209941
vt 0.483692 0.224133
vt 0.492708 0.221691
vt 0.492481 0.228900
vt 0.501449 0.226728
vt 0.510258 0.230856
vt 0.501383 0.236286
vt 0.483692 0.234381
vt 0.501383 0.188414
vt 0.495839 0.194806
vt 0.495680 0.184539
vt 0.510258 0.241017
vt 0.486969 0.088024
vt 0.487219 0.080734
vt 0.495936 0.083271
vt 0.486969 0.097347
vt 0.495782 0.093538
vt 0.492708 0.238273
vt 0.486869 0.190057
vt 0.501450 0.243168
vt 0.510120 0.121662
vt 0.518934 0.123809
vt 0.510060 0.128535
vt 0.487127 0.197342
vt 0.486869 0.180731
vt 0.432273 0.221430
vt 0.432037 0.230800
vt 0.423251 0.225317
vt 0.501478 0.089656
vt 0.518934 0.133967
vt 0.510120 0.138098
vt 0.432273 0.238015
vt 0.423251 0.235567
vt 0.496939 0.172086
vt 0.492723 0.163907
vt 0.502194 0.167272
vt 0.486869 0.172225
vt 0.461474 0.238535
vt 0.461412 0.230262
vt 0.470286 0.235428
vt 0.502194 0.177670
vt 0.492723 0.180731
vt 0.388558 0.229675
vt 0.388685 0.222387
vt 0.397449 0.224792
vt 0.388685 0.239000
vt 0.397449 0.235060
vt 0.470286 0.225018
vt 0.518019 0.084677
vt 0.518019 0.094943
vt 0.509129 0.090063
vt 0.479158 0.235204
vt 0.470340 0.238534
vt 0.470286 0.229959
vt 0.461474 0.221692
vt 0.509253 0.097344
vt 0.509253 0.080734
vt 0.479158 0.224795
vt 0.440959 0.205558
vt 0.450430 0.208624
vt 0.445177 0.214197
vt 0.435106 0.214062
vt 0.440959 0.222384
vt 0.450430 0.219023
vt 0.470340 0.221692
vt 0.518023 0.104560
vt 0.509129 0.099697
vt 0.517883 0.097344
vt 0.388400 0.171750
vt 0.397460 0.166811
vt 0.396985 0.175161
vt 0.450430 0.205558
vt 0.459923 0.208380
vt 0.451494 0.213123
vt 0.459923 0.218703
vt 0.450430 0.222262
vt 0.509129 0.109947
vt 0.388693 0.161342
vt 0.518206 0.190105
vt 0.509311 0.184718
vt 0.518062 0.180731
vt 0.388396 0.178560
vt 0.388679 0.188968
vt 0.382801 0.183999
vt 0.397449 0.183506
vt 0.397449 0.192002
vt 0.382801 0.166311
vt 0.397460 0.158320
vt 0.509311 0.194967
vt 0.517883 0.113930
vt 0.357553 0.225956
vt 0.365985 0.220380
vt 0.365985 0.230706
vt 0.356495 0.216823
vt 0.518062 0.197314
vt 0.356495 0.233530
vt 0.396990 0.175161
vt 0.505899 0.154884
vt 0.511443 0.158553
vt 0.505899 0.161324
vt 0.511851 0.152293
vt 0.505899 0.158005
vt 0.501982 0.160340
vt 0.502266 0.153770
vt 0.501478 0.118879
vt 0.501478 0.112240
vt 0.507055 0.115743
vt 0.507382 0.120651
vt 0.487339 0.162715
vt 0.486873 0.158112
vt 0.492754 0.161021
vt 0.511851 0.162713
vt 0.496388 0.156679
vt 0.507382 0.109908
vt 0.486873 0.152082
vt 0.492465 0.154449
vt 0.449890 0.233127
vt 0.443987 0.230797
vt 0.449566 0.227295
vt 0.496388 0.162713
vt 0.496847 0.152082
vt 0.380595 0.231395
vt 0.380192 0.235549
vt 0.374646 0.232779
vt 0.443987 0.224158
vt 0.449890 0.222384
vt 0.380595 0.241812
vt 0.374646 0.239217
vt 0.496388 0.156788
vt 0.486969 0.115824
vt 0.491052 0.116215
vt 0.489845 0.119754
vt 0.489845 0.111919
vt 0.392814 0.142551
vt 0.392686 0.137948
vt 0.396938 0.139928
vt 0.396938 0.144628
vt 0.396657 0.130039
vt 0.392686 0.128645
vt 0.396902 0.126222
vt 0.494497 0.113436
vt 0.494497 0.118278
vt 0.396657 0.137948
vt 0.392686 0.136316
vt 0.396902 0.133850
vt 0.388122 0.232870
vt 0.388122 0.237712
vt 0.384673 0.234933
vt 0.392686 0.123757
vt 0.392686 0.131428
vt 0.383470 0.239230
vt 0.383470 0.231395
vt 0.396657 0.122129
vt 0.396938 0.144628
vt 0.396938 0.149330
vt 0.392814 0.146707
vt 0.396657 0.130039
vt 0.380595 0.235326
vt 0.392686 0.151309
s 1
usemtl Assets_TrashCan_MAT_TEX
f 49/1/1 54/2/2 53/3/3 50/4/4
f 50/4/4 53/3/3 52/5/5 51/6/6
f 1/7/7 2/8/8 54/9/2 49/10/1
f 52/5/5 4/11/9 3/12/10 51/6/6
f 55/13/11 60/14/12 59/15/13 56/16/14
f 56/16/14 59/15/13 58/17/15 57/18/16
f 4/11/9 60/14/12 55/13/11 3/12/10
f 58/17/15 6/19/17 5/20/18 57/18/16
f 61/21/19 66/22/20 65/23/21 62/24/22
f 62/24/22 65/23/21 64/25/23 63/26/24
f 6/19/17 66/27/20 61/28/19 5/20/18
f 64/25/23 8/29/25 7/30/26 63/26/24
f 67/31/27 72/32/28 71/33/29 68/34/30
f 68/34/30 71/33/29 70/35/31 69/36/32
f 8/29/25 72/32/28 67/31/27 7/30/26
f 70/35/31 10/37/33 9/38/34 69/36/32
f 73/39/35 78/40/36 77/41/37 74/42/38
f 74/42/38 77/41/37 76/43/39 75/44/40
f 10/37/33 78/45/36 73/46/35 9/38/34
f 76/43/39 12/47/41 11/48/42 75/44/40
f 79/49/43 84/50/44 83/51/45 80/52/46
f 80/52/46 83/51/45 82/53/47 81/54/48
f 12/47/41 84/50/44 79/49/43 11/48/42
f 82/53/47 14/55/49 13/56/50 81/54/48
f 85/57/51 90/58/52 89/59/53 86/60/54
f 86/60/54 89/59/53 88/61/55 87/62/56
f 14/55/49 90/63/52 85/27/51 13/56/50
f 88/61/55 16/64/57 15/65/58 87/62/56
f 91/66/59 96/67/60 95/68/61 92/69/62
f 92/69/62 95/68/61 94/70/63 93/71/64
f 16/64/57 96/67/60 91/66/59 15/65/58
f 94/70/63 2/8/8 1/7/7 93/71/64
f 1/72/7 49/73/1 50/74/4 51/75/6 3/76/10 55/77/11 56/78/14 57/79/16 5/80/18 61/81/19 62/82/22 63/83/24 7/84/26 67/85/27 68/86/30 69/87/32 9/88/34 73/89/35 74/90/38 75/91/40 11/92/42 79/93/43 80/94/46 81/95/48 13/96/50 85/97/51 86/98/54 87/99/56 15/100/58 91/101/59 92/102/62 93/103/64
f 117/104/65 116/105/66 140/106/67 141/107/68
f 39/108/69 47/109/70 139/110/71 115/111/72
f 116/105/66 115/111/72 139/110/71 140/106/67
f 141/112/68 31/113/73 23/114/74 117/115/65
f 111/116/75 110/117/76 134/118/77 135/119/78
f 37/120/79 45/121/80 133/122/81 109/123/82
f 110/117/76 109/123/82 133/122/81 134/118/77
f 135/124/78 29/125/83 21/126/84 111/127/75
f 105/128/85 104/129/86 128/130/87 129/131/88
f 35/132/89 43/133/90 127/134/91 103/135/92
f 104/129/86 103/135/92 127/134/91 128/130/87
f 129/136/88 27/137/93 19/138/94 105/139/85
f 99/140/95 98/141/96 122/142/97 123/143/98
f 33/144/99 41/145/100 121/146/101 97/147/102
f 98/141/96 97/147/102 121/146/101 122/142/97
f 123/148/98 25/149/103 17/150/104 99/151/95
f 120/152/105 119/153/106 143/154/107 144/155/108
f 40/156/109 48/157/110 142/158/111 118/159/112
f 119/153/106 118/159/112 142/158/111 143/154/107
f 144/155/108 32/160/113 24/161/114 120/152/105
f 114/162/115 113/163/116 137/164/117 138/165/118
f 38/166/119 46/167/120 136/168/121 112/169/122
f 113/163/116 112/169/122 136/168/121 137/164/117
f 138/165/118 30/170/123 22/171/124 114/162/115
f 108/172/125 107/173/126 131/174/127 132/175/128
f 36/176/129 44/177/130 130/178/131 106/179/132
f 107/173/126 106/179/132 130/178/131 131/174/127
f 132/175/128 28/180/133 20/181/134 108/172/125
f 150/182/135 149/183/136 173/184/137 174/185/138
f 27/137/93 172/186/139 148/187/140 19/138/94
f 149/183/136 148/187/140 172/186/139 173/184/137
f 174/185/138 42/188/141 34/189/142 150/182/135
f 156/190/143 155/191/144 179/192/145 180/193/146
f 29/125/83 178/194/147 154/195/148 21/126/84
f 155/191/144 154/195/148 178/194/147 179/192/145
f 180/193/146 44/177/130 36/176/129 156/190/143
f 162/196/149 161/197/150 185/198/151 186/199/152
f 31/113/73 184/200/153 160/201/154 23/114/74
f 161/197/150 160/201/154 184/200/153 185/198/151
f 186/199/152 46/167/120 38/166/119 162/196/149
f 168/202/155 167/203/156 191/204/157 192/205/158
f 25/149/103 190/206/159 166/207/160 17/150/104
f 167/203/156 166/207/160 190/206/159 191/204/157
f 192/205/158 48/157/110 40/156/109 168/202/155
f 147/208/161 146/209/162 170/210/163 171/211/164
f 18/212/165 26/213/166 169/214/167 145/215/168
f 146/209/162 145/215/168 169/214/167 170/210/163
f 171/211/164 41/145/100 33/144/99 147/208/161
f 153/216/169 152/217/170 176/218/171 177/219/172
f 20/181/134 28/180/133 175/220/173 151/221/174
f 152/217/170 151/221/174 175/220/173 176/218/171
f 177/219/172 43/133/90 35/132/89 153/216/169
f 159/222/175 158/223/176 182/224/177 183/225/178
f 22/171/124 30/170/123 181/226/179 157/227/180
f 158/223/176 157/227/180 181/226/179 182/224/177
f 183/225/178 45/121/80 37/120/79 159/222/175
f 165/228/181 164/229/182 188/230/183 189/231/184
f 24/161/114 32/160/113 187/232/185 163/233/186
f 164/229/182 163/233/186 187/232/185 188/230/183
f 189/231/184 47/109/70 39/108/69 165/228/181
f 102/234/187 101/235/188 125/236/189 126/237/190
f 34/189/142 42/188/141 124/238/191 100/239/192
f 101/235/188 100/239/192 124/238/191 125/236/189
f 126/237/190 26/213/166 18/212/165 102/234/187
f 241/240/193 242/241/194 245/242/195 246/243/196
f 242/241/194 243/244/197 244/245/198 245/242/195
f 193/246/199 241/247/193 246/248/196 194/249/200
f 244/245/198 243/244/197 195/250/201 196/251/202
f 247/252/203 248/253/204 251/254/205 252/255/206
f 248/253/204 249/256/207 250/257/208 251/254/205
f 196/251/202 195/250/201 247/252/203 252/255/206
f 250/257/208 249/256/207 197/258/209 198/259/210
f 253/260/211 254/261/212 257/262/213 258/263/214
f 254/261/212 255/264/215 256/265/216 257/262/213
f 198/259/210 197/258/209 253/266/211 258/267/214
f 256/265/216 255/264/215 199/268/217 200/269/218
f 259/270/219 260/271/220 263/272/221 264/273/222
f 260/271/220 261/274/223 262/275/224 263/272/221
f 200/269/218 199/268/217 259/270/219 264/273/222
f 262/275/224 261/274/223 201/276/225 202/277/226
f 265/278/227 266/279/228 269/280/229 270/281/230
f 266/279/228 267/282/231 268/283/232 269/280/229
f 202/277/226 201/276/225 265/284/227 270/285/230
f 268/283/232 267/282/231 203/286/233 204/287/234
f 271/288/235 272/289/236 275/290/237 276/291/238
f 272/289/236 273/292/239 274/293/240 275/290/237
f 204/287/234 203/286/233 271/288/235 276/291/238
f 274/293/240 273/292/239 205/294/241 206/295/242
f 277/296/243 278/297/244 281/298/245 282/299/246
f 278/297/244 279/300/247 280/301/248 281/298/245
f 206/295/242 205/294/241 277/302/243 282/303/246
f 280/301/248 279/300/247 207/304/249 208/305/250
f 283/306/251 284/307/252 287/308/253 288/309/254
f 284/307/252 285/310/255 286/311/256 287/308/253
f 208/305/250 207/304/249 283/306/251 288/309/254
f 286/311/256 285/310/255 193/246/199 194/249/200
f 193/312/199 285/313/255 284/314/252 283/315/251 207/316/249 279/317/247 278/318/244 277/319/243 205/320/241 273/321/239 272/322/236 271/323/235 203/324/233 267/325/231 266/326/228 265/327/227 201/328/225 261/329/223 260/330/220 259/331/219 199/332/217 255/333/215 254/334/212 253/335/211 197/336/209 249/337/207 248/338/204 247/339/203 195/340/201 243/341/197 242/342/194 241/343/193
f 309/344/257 333/345/258 332/346/259 308/347/260
f 231/348/261 307/349/262 331/350/263 239/351/264
f 308/347/260 332/346/259 331/350/263 307/349/262
f 333/352/258 309/353/257 215/354/265 223/355/266
f 303/356/267 327/357/268 326/358/269 302/359/270
f 229/360/271 301/361/272 325/362/273 237/363/274
f 302/359/270 326/358/269 325/362/273 301/361/272
f 327/364/268 303/365/267 213/366/275 221/367/276
f 297/368/277 321/369/278 320/370/279 296/371/280
f 227/372/281 295/373/282 319/374/283 235/375/284
f 296/371/280 320/370/279 319/374/283 295/373/282
f 321/376/278 297/377/277 211/378/285 219/379/286
f 291/380/287 315/381/288 314/382/289 290/383/290
f 225/384/291 289/385/292 313/386/293 233/387/294
f 290/383/290 314/382/289 313/386/293 289/385/292
f 315/388/288 291/389/287 209/390/295 217/391/296
f 312/392/297 336/393/298 335/394/299 311/395/300
f 232/396/301 310/397/302 334/398/303 240/399/304
f 311/395/300 335/394/299 334/398/303 310/397/302
f 336/393/298 312/392/297 216/400/305 224/401/306
f 306/402/307 330/403/308 329/404/309 305/405/310
f 230/406/311 304/407/312 328/408/313 238/409/314
f 305/405/310 329/404/309 328/408/313 304/407/312
f 330/403/308 306/402/307 214/410/315 222/411/316
f 300/412/317 324/413/318 323/414/319 299/415/320
f 228/416/321 298/417/322 322/418/323 236/419/324
f 299/415/320 323/414/319 322/418/323 298/417/322
f 324/413/318 300/412/317 212/420/325 220/421/326
f 342/422/327 366/423/328 365/424/329 341/425/330
f 219/379/286 211/378/285 340/426/331 364/427/332
f 341/425/330 365/424/329 364/427/332 340/426/331
f 366/423/328 342/422/327 226/428/333 234/429/334
f 348/430/335 372/431/336 371/432/337 347/433/338
f 221/367/276 213/366/275 346/434/339 370/435/340
f 347/433/338 371/432/337 370/435/340 346/434/339
f 372/431/336 348/430/335 228/416/321 236/419/324
f 354/436/341 378/437/342 377/438/343 353/439/344
f 223/355/266 215/354/265 352/440/345 376/441/346
f 353/439/344 377/438/343 376/441/346 352/440/345
f 378/437/342 354/436/341 230/406/311 238/409/314
f 360/442/347 384/443/348 383/444/349 359/445/350
f 217/391/296 209/390/295 358/446/351 382/447/352
f 359/445/350 383/444/349 382/447/352 358/446/351
f 384/443/348 360/442/347 232/396/301 240/399/304
f 339/448/353 363/449/354 362/450/355 338/451/356
f 210/452/357 337/453/358 361/454/359 218/455/360
f 338/451/356 362/450/355 361/454/359 337/453/358
f 363/449/354 339/448/353 225/384/291 233/387/294
f 345/456/361 369/457/362 368/458/363 344/459/364
f 212/420/325 343/460/365 367/461/366 220/421/326
f 344/459/364 368/458/363 367/461/366 343/460/365
f 369/457/362 345/456/361 227/372/281 235/375/284
f 351/462/367 375/463/368 374/464/369 350/465/370
f 214/410/315 349/466/371 373/467/372 222/411/316
f 350/465/370 374/464/369 373/467/372 349/466/371
f 375/463/368 351/462/367 229/360/271 237/363/274
f 357/468/373 381/469/374 380/470/375 356/471/376
f 216/400/305 355/472/377 379/473/378 224/401/306
f 356/471/376 380/470/375 379/473/378 355/472/377
f 381/469/374 357/468/373 231/348/261 239/351/264
f 294/474/379 318/475/380 317/476/381 293/477/382
f 226/428/333 292/478/383 316/479/384 234/429/334
f 293/477/382 317/476/381 316/479/384 292/478/383
f 318/475/380 294/474/379 210/452/357 218/455/360
f 4/480/9 52/481/5 244/482/198 196/483/202
f 52/481/5 53/484/3 245/485/195 244/482/198
f 53/484/3 54/486/2 246/487/196 245/485/195
f 54/486/2 2/488/8 194/489/200 246/487/196
f 6/490/17 58/491/15 250/492/208 198/493/210
f 58/491/15 59/494/13 251/495/205 250/492/208
f 59/494/13 60/496/12 252/497/206 251/495/205
f 60/496/12 4/480/9 196/483/202 252/497/206
f 8/498/25 64/499/23 256/500/216 200/501/218
f 64/499/23 65/502/21 257/503/213 256/500/216
f 65/502/21 66/504/20 258/505/214 257/503/213
f 66/504/20 6/490/17 198/493/210 258/505/214
f 10/506/33 70/507/31 262/508/224 202/509/226
f 70/507/31 71/510/29 263/511/221 262/508/224
f 71/510/29 72/512/28 264/513/222 263/511/221
f 72/512/28 8/498/25 200/501/218 264/513/222
f 12/514/41 76/515/39 268/516/232 204/517/234
f 76/515/39 77/518/37 269/519/229 268/516/232
f 77/518/37 78/520/36 270/521/230 269/519/229
f 78/520/36 10/506/33 202/509/226 270/521/230
f 14/522/49 82/523/47 274/524/240 206/525/242
f 82/523/47 83/526/45 275/527/237 274/524/240
f 83/526/45 84/528/44 276/529/238 275/527/237
f 84/528/44 12/514/41 204/517/234 276/529/238
f 16/530/57 88/531/55 280/532/248 208/533/250
f 88/531/55 89/534/53 281/535/245 280/532/248
f 89/534/53 90/536/52 282/537/246 281/535/245
f 90/536/52 14/522/49 206/525/242 282/537/246
f 2/488/8 94/538/63 286/539/256 194/489/200
f 94/538/63 95/540/61 287/541/253 286/539/256
f 95/540/61 96/542/60 288/543/254 287/541/253
f 96/542/60 16/530/57 208/533/250 288/543/254
f 33/544/99 97/545/102 289/546/292 225/547/291
f 97/545/102 98/548/96 290/549/290 289/546/292
f 98/548/96 99/550/95 291/551/287 290/549/290
f 99/550/95 17/552/104 209/553/295 291/551/287
f 34/554/142 100/555/192 292/556/383 226/557/333
f 100/555/192 101/558/188 293/559/382 292/556/383
f 101/558/188 102/560/187 294/561/379 293/559/382
f 102/560/187 18/562/165 210/563/357 294/561/379
f 35/564/89 103/565/92 295/566/282 227/567/281
f 103/565/92 104/568/86 296/569/280 295/566/282
f 104/568/86 105/570/85 297/571/277 296/569/280
f 105/570/85 19/572/94 211/573/285 297/571/277
f 36/574/129 106/575/132 298/576/322 228/577/321
f 106/575/132 107/578/126 299/579/320 298/576/322
f 107/578/126 108/580/125 300/581/317 299/579/320
f 108/580/125 20/582/134 212/583/325 300/581/317
f 37/584/79 109/585/82 301/586/272 229/587/271
f 109/585/82 110/588/76 302/589/270 301/586/272
f 110/588/76 111/590/75 303/591/267 302/589/270
f 111/590/75 21/592/84 213/593/275 303/591/267
f 38/594/119 112/595/122 304/596/312 230/597/311
f 112/595/122 113/598/116 305/599/310 304/596/312
f 113/598/116 114/600/115 306/601/307 305/599/310
f 114/600/115 22/602/124 214/603/315 306/601/307
f 39/604/69 115/605/72 307/606/262 231/607/261
f 115/605/72 116/608/66 308/609/260 307/606/262
f 116/608/66 117/610/65 309/611/257 308/609/260
f 117/610/65 23/612/74 215/613/265 309/611/257
f 40/614/109 118/615/112 310/616/302 232/617/301
f 118/615/112 119/618/106 311/619/300 310/616/302
f 119/618/106 120/620/105 312/621/297 311/619/300
f 120/620/105 24/622/114 216/623/305 312/621/297
f 121/624/101 41/625/100 233/626/294 313/627/293
f 122/628/97 121/624/101 313/627/293 314/629/289
f 123/630/98 122/628/97 314/629/289 315/631/288
f 25/632/103 123/630/98 315/631/288 217/633/296
f 124/634/191 42/635/141 234/636/334 316/637/384
f 125/638/189 124/634/191 316/637/384 317/639/381
f 126/640/190 125/638/189 317/639/381 318/641/380
f 26/642/166 126/640/190 318/641/380 218/643/360
f 127/644/91 43/645/90 235/646/284 319/647/283
f 128/648/87 127/644/91 319/647/283 320/649/279
f 129/650/88 128/648/87 320/649/279 321/651/278
f 27/652/93 129/650/88 321/651/278 219/653/286
f 130/654/131 44/655/130 236/656/324 322/657/323
f 131/658/127 130/654/131 322/657/323 323/659/319
f 132/660/128 131/658/127 323/659/319 324/661/318
f 28/662/133 132/660/128 324/661/318 220/663/326
f 133/664/81 45/665/80 237/666/274 325/667/273
f 134/668/77 133/664/81 325/667/273 326/669/269
f 135/670/78 134/668/77 326/669/269 327/671/268
f 29/672/83 135/670/78 327/671/268 221/673/276
f 136/674/121 46/675/120 238/676/314 328/677/313
f 137/678/117 136/674/121 328/677/313 329/679/309
f 138/680/118 137/678/117 329/679/309 330/681/308
f 30/682/123 138/680/118 330/681/308 222/683/316
f 139/684/71 47/685/70 239/686/264 331/687/263
f 140/688/67 139/684/71 331/687/263 332/689/259
f 141/690/68 140/688/67 332/689/259 333/691/258
f 31/692/73 141/690/68 333/691/258 223/693/266
f 142/694/111 48/695/110 240/696/304 334/697/303
f 143/698/107 142/694/111 334/697/303 335/699/299
f 144/700/108 143/698/107 335/699/299 336/701/298
f 32/702/113 144/700/108 336/701/298 224/703/306
f 18/562/165 145/704/168 337/705/358 210/563/357
f 145/704/168 146/706/162 338/707/356 337/705/358
f 146/706/162 147/708/161 339/709/353 338/707/356
f 147/708/161 33/544/99 225/547/291 339/709/353
f 19/572/94 148/710/140 340/711/331 211/573/285
f 148/710/140 149/712/136 341/713/330 340/711/331
f 149/712/136 150/714/135 342/715/327 341/713/330
f 150/714/135 34/554/142 226/557/333 342/715/327
f 20/582/134 151/716/174 343/717/365 212/583/325
f 151/716/174 152/718/170 344/719/364 343/717/365
f 152/718/170 153/720/169 345/721/361 344/719/364
f 153/720/169 35/564/89 227/567/281 345/721/361
f 21/592/84 154/722/148 346/723/339 213/593/275
f 154/722/148 155/724/144 347/725/338 346/723/339
f 155/724/144 156/726/143 348/727/335 347/725/338
f 156/726/143 36/574/129 228/577/321 348/727/335
f 22/602/124 157/728/180 349/729/371 214/603/315
f 157/728/180 158/730/176 350/731/370 349/729/371
f 158/730/176 159/732/175 351/733/367 350/731/370
f 159/732/175 37/584/79 229/587/271 351/733/367
f 23/612/74 160/734/154 352/735/345 215/613/265
f 160/734/154 161/736/150 353/737/344 352/735/345
f 161/736/150 162/738/149 354/739/341 353/737/344
f 162/738/149 38/594/119 230/597/311 354/739/341
f 24/622/114 163/740/186 355/741/377 216/623/305
f 163/740/186 164/742/182 356/743/376 355/741/377
f 164/742/182 165/744/181 357/745/373 356/743/376
f 165/744/181 39/604/69 231/607/261 357/745/373
f 17/552/104 166/746/160 358/747/351 209/553/295
f 166/746/160 167/748/156 359/749/350 358/747/351
f 167/748/156 168/750/155 360/751/347 359/749/350
f 168/750/155 40/614/109 232/617/301 360/751/347
f 169/752/167 26/642/166 218/643/360 361/753/359
f 170/754/163 169/752/167 361/753/359 362/755/355
f 171/756/164 170/754/163 362/755/355 363/757/354
f 41/625/100 171/756/164 363/757/354 233/626/294
f 172/758/139 27/652/93 219/653/286 364/759/332
f 173/760/137 172/758/139 364/759/332 365/761/329
f 174/762/138 173/760/137 365/761/329 366/763/328
f 42/635/141 174/762/138 366/763/328 234/636/334
f 175/764/173 28/662/133 220/663/326 367/765/366
f 176/766/171 175/764/173 367/765/366 368/767/363
f 177/768/172 176/766/171 368/767/363 369/769/362
f 43/645/90 177/768/172 369/769/362 235/646/284
f 178/770/147 29/672/83 221/673/276 370/771/340
f 179/772/145 178/770/147 370/771/340 371/773/337
f 180/774/146 179/772/145 371/773/337 372/775/336
f 44/655/130 180/774/146 372/775/336 236/656/324
f 181/776/179 30/682/123 222/683/316 373/777/372
f 182/778/177 181/776/179 373/777/372 374/779/369
f 183/780/178 182/778/177 374/779/369 375/781/368
f 45/665/80 183/780/178 375/781/368 237/666/274
f 184/782/153 31/692/73 223/693/266 376/783/346
f 185/784/151 184/782/153 376/783/346 377/785/343
f 186/786/152 185/784/151 377/785/343 378/787/342
f 46/675/120 186/786/152 378/787/342 238/676/314
f 187/788/185 32/702/113 224/703/306 379/789/378
f 188/790/183 187/788/185 379/789/378 380/791/375
f 189/792/184 188/790/183 380/791/375 381/793/374
f 47/685/70 189/792/184 381/793/374 239/686/264
f 190/794/159 25/632/103 217/633/296 382/795/352
f 191/796/157 190/794/159 382/795/352 383/797/349
f 192/798/158 191/796/157 383/797/349 384/799/348
f 48/695/110 192/798/158 384/799/348 240/696/304
s 0
f 385/800/385 386/801/385 387/802/385
f 386/801/386 385/800/386 390/803/386
f 385/800/387 387/802/387 388/804/387
f 385/800/388 388/804/388 389/805/388
f 385/800/389 389/805/389 390/803/389
f 386/806/390 390/807/390 395/808/390
f 387/809/391 386/810/391 391/811/391
f 388/812/392 387/813/392 392/814/392
f 389/815/393 388/816/393 393/817/393
f 390/807/394 389/818/394 394/819/394
f 386/810/395 395/820/395 391/811/395
f 387/813/396 391/821/396 392/814/396
f 388/812/397 392/814/397 393/822/397
f 389/815/398 393/817/398 394/823/398
f 390/807/399 394/819/399 395/808/399
f 391/824/400 395/825/400 396/826/400
f 392/827/401 391/824/401 396/826/401
f 393/828/402 392/827/402 396/826/402
f 394/829/403 393/828/403 396/826/403
f 395/825/404 394/829/404 396/826/404
f 398/830/405 399/831/405 397/832/405
f 399/831/406 400/833/406 397/832/406
f 400/833/407 401/834/407 397/832/407
f 401/834/408 402/835/408 397/832/408
f 402/835/409 398/830/409 397/832/409
f 403/836/410 399/837/410 398/838/410
f 404/839/411 400/840/411 399/841/411
f 405/842/412 401/843/412 400/844/412
f 406/845/413 402/846/413 401/847/413
f 407/848/414 398/849/414 402/846/414
f 403/850/415 404/839/415 399/841/415
f 404/839/416 405/851/416 400/840/416
f 405/842/417 406/852/417 401/843/417
f 406/845/418 407/848/418 402/846/418
f 407/853/419 403/836/419 398/838/419
f 408/854/420 404/855/420 403/856/420
f 408/854/421 405/857/421 404/855/421
f 408/854/422 406/858/422 405/857/422
f 407/859/423 408/854/423 403/856/423
f 408/854/424 407/859/424 406/858/424
f 409/860/425 410/861/425 411/862/425
f 410/863/426 409/864/426 414/865/426
f 409/860/427 411/862/427 412/866/427
f 409/867/428 412/868/428 413/869/428
f 409/867/429 413/869/429 414/870/429
f 410/863/430 414/865/430 419/871/430
f 411/872/431 410/873/431 415/874/431
f 412/875/432 411/876/432 416/877/432
f 413/869/433 412/868/433 417/878/433
f 414/870/434 413/869/434 418/879/434
f 410/873/435 419/880/435 415/874/435
f 411/872/436 415/874/436 416/881/436
f 412/875/437 416/877/437 417/882/437
f 413/869/438 417/878/438 418/879/438
f 414/865/439 418/883/439 419/871/439
f 415/874/440 419/880/440 420/884/440
f 416/881/441 415/874/441 420/884/441
f 417/882/442 416/877/442 420/885/442
f 418/886/443 417/887/443 420/888/443
f 419/889/444 418/886/444 420/888/444
f 421/890/445 422/891/445 423/892/445
f 422/893/446 421/894/446 426/895/446
f 421/890/447 423/892/447 424/896/447
f 421/897/448 424/898/448 425/899/448
f 421/894/449 425/900/449 426/895/449
f 422/901/450 426/902/450 431/903/450
f 423/904/451 422/901/451 427/905/451
f 424/896/452 423/892/452 428/906/452
f 425/899/453 424/898/453 429/907/453
f 426/895/454 425/900/454 430/908/454
f 422/901/455 431/903/455 427/905/455
f 423/909/456 427/910/456 428/911/456
f 424/898/457 428/912/457 429/907/457
f 425/899/458 429/907/458 430/913/458
f 426/914/459 430/915/459 431/916/459
f 427/905/460 431/903/460 432/917/460
f 428/911/461 427/910/461 432/918/461
f 429/919/462 428/911/462 432/918/462
f 430/915/463 429/920/463 432/921/463
f 431/916/464 430/915/464 432/921/464
f 433/922/465 434/923/465 435/924/465
f 434/923/466 433/922/466 438/925/466
f 433/926/467 435/927/467 436/928/467
f 433/922/468 436/929/468 437/930/468
f 433/922/469 437/930/469 438/925/469
f 434/931/470 438/932/470 443/933/470
f 435/934/471 434/931/471 439/935/471
f 436/928/472 435/927/472 440/936/472
f 437/937/473 436/938/473 441/939/473
f 438/940/474 437/941/474 442/942/474
f 434/931/475 443/933/475 439/935/475
f 435/927/476 439/943/476 440/936/476
f 436/938/477 440/944/477 441/939/477
f 437/937/478 441/939/478 442/945/478
f 438/940/479 442/942/479 443/946/479
f 439/947/480 443/948/480 444/949/480
f 440/950/481 439/947/481 444/949/481
f 441/951/482 440/950/482 444/949/482
f 442/952/483 441/951/483 444/949/483
f 443/946/484 442/942/484 444/953/484
f 446/954/485 447/955/485 445/956/485
f 447/957/486 448/958/486 445/959/486
f 448/960/487 449/961/487 445/962/487
f 449/961/488 450/963/488 445/962/488
f 450/963/489 446/964/489 445/962/489
f 451/965/490 447/955/490 446/954/490
f 452/966/491 448/958/491 447/957/491
f 453/967/492 449/968/492 448/969/492
f 454/970/493 450/971/493 449/972/493
f 455/973/494 446/974/494 450/971/494
f 451/975/495 452/966/495 447/957/495
f 452/966/496 453/976/496 448/958/496
f 453/967/497 454/977/497 449/968/497
f 454/970/498 455/973/498 450/971/498
f 455/978/499 451/965/499 446/954/499
f 456/979/500 452/980/500 451/981/500
f 456/979/501 453/982/501 452/980/501
f 456/983/502 454/977/502 453/967/502
f 455/984/503 456/979/503 451/981/503
f 456/985/504 455/973/504 454/970/504
f 457/986/505 458/987/505 459/988/505
f 458/987/506 457/986/506 462/989/506
f 457/990/507 459/991/507 460/992/507
f 457/993/508 460/994/508 461/995/508
f 457/993/509 461/995/509 462/996/509
f 458/997/510 462/998/510 467/999/510
f 459/988/511 458/987/511 463/1000/511
f 460/992/512 459/991/512 464/1001/512
f 461/995/513 460/994/513 465/1002/513
f 462/998/514 461/1003/514 466/1004/514
f 458/1005/515 467/1006/515 463/1007/515
f 459/991/516 463/1008/516 464/1001/516
f 460/992/517 464/1001/517 465/1009/517
f 461/1010/518 465/1011/518 466/1012/518
f 462/998/519 466/1004/519 467/999/519
f 463/1007/520 467/1006/520 468/1013/520
f 464/1014/521 463/1007/521 468/1013/521
f 465/1011/522 464/1015/522 468/1016/522
f 466/1012/523 465/1011/523 468/1016/523
f 467/999/524 466/1004/524 468/1017/524
f 469/1018/525 470/1019/525 471/1020/525
f 470/1019/526 469/1018/526 474/1021/526
f 469/1022/527 471/1023/527 472/1024/527
f 469/1022/528 472/1024/528 473/1025/528
f 469/1026/529 473/1027/529 474/1028/529
f 470/1019/530 474/1021/530 479/1029/530
f 471/1020/531 470/1019/531 475/1030/531
f 472/1031/532 471/1032/532 476/1033/532
f 473/1034/533 472/1035/533 477/1036/533
f 474/1028/534 473/1027/534 478/1037/534
f 470/1019/535 479/1029/535 475/1030/535
f 471/1032/536 475/1038/536 476/1033/536
f 472/1035/537 476/1039/537 477/1036/537
f 473/1034/538 477/1036/538 478/1040/538
f 474/1028/539 478/1037/539 479/1041/539
f 475/1042/540 479/1043/540 480/1044/540
f 476/1033/541 475/1038/541 480/1045/541
f 477/1036/542 476/1039/542 480/1046/542
f 478/1040/543 477/1036/543 480/1046/543
f 479/1043/544 478/1047/544 480/1044/544
