# Blender 4.5.0
# www.blender.org
mtllib Floor.mtl
o Floor.
v -3.000000 0.000000 3.000000
v 3.000000 0.000000 3.000000
v -3.000000 0.000000 -3.000000
v 3.000000 0.000000 -3.000000
v -2.000000 0.000000 3.000000
v -1.000000 0.000000 3.000000
v 0.000000 0.000000 3.000000
v 1.000000 0.000000 3.000000
v 2.000000 0.000000 3.000000
v 2.000000 0.000000 -3.000000
v 1.000000 0.000000 -3.000000
v 0.000000 0.000000 -3.000000
v -1.000000 0.000000 -3.000000
v -2.000000 0.000000 -3.000000
v -3.000000 0.000000 -2.000000
v -3.000000 0.000000 -1.000000
v -3.000000 0.000000 0.000000
v -3.000000 0.000000 1.000000
v -3.000000 0.000000 2.000000
v 3.000000 0.000000 2.000000
v 3.000000 0.000000 1.000000
v 3.000000 0.000000 0.000000
v 3.000000 0.000000 -1.000000
v 3.000000 0.000000 -2.000000
v -2.000000 0.000000 2.000000
v -2.000000 0.000000 1.000000
v -2.000000 0.000000 0.000000
v -2.000000 0.000000 -1.000000
v -2.000000 0.000000 -2.000000
v -1.000000 0.000000 2.000000
v -1.000000 0.000000 1.000000
v -1.000000 0.000000 0.000000
v -1.000000 0.000000 -1.000000
v -1.000000 0.000000 -2.000000
v 0.000000 0.000000 2.000000
v 0.000000 0.000000 1.000000
v 0.000000 0.000000 0.000000
v 0.000000 0.000000 -1.000000
v 0.000000 0.000000 -2.000000
v 1.000000 0.000000 2.000000
v 1.000000 0.000000 1.000000
v 1.000000 0.000000 0.000000
v 1.000000 0.000000 -1.000000
v 1.000000 0.000000 -2.000000
v 2.000000 0.000000 2.000000
v 2.000000 0.000000 1.000000
v 2.000000 0.000000 0.000000
v 2.000000 0.000000 -1.000000
v 2.000000 0.000000 -2.000000
vn -0.0000 1.0000 -0.0000
vt 0.678756 0.678756
vt 0.821245 0.678756
vt 0.821245 0.821245
vt 0.678756 0.821245
vt 0.845422 0.154578
vt 0.845422 0.012089
vt 0.987911 0.012089
vt 0.987911 0.154578
vt 0.012089 0.487911
vt 0.012089 0.345422
vt 0.154578 0.345422
vt 0.154578 0.487911
vt 0.345422 0.154578
vt 0.345422 0.012089
vt 0.487911 0.012089
vt 0.487911 0.154578
vt 0.012089 0.987911
vt 0.012089 0.845422
vt 0.154578 0.845422
vt 0.154578 0.987911
vt 0.012089 0.154578
vt 0.012089 0.012089
vt 0.154578 0.012089
vt 0.154578 0.154578
vt 0.345422 0.321244
vt 0.345422 0.178756
vt 0.487911 0.178756
vt 0.487911 0.321244
vt 0.012089 0.821245
vt 0.012089 0.678756
vt 0.154578 0.678756
vt 0.154578 0.821245
vt 0.678756 0.154578
vt 0.678756 0.012089
vt 0.821245 0.012089
vt 0.821245 0.154578
vt 0.845422 0.178755
vt 0.987911 0.178755
vt 0.987911 0.321244
vt 0.845422 0.321244
vt 0.178756 0.821245
vt 0.178756 0.678756
vt 0.321244 0.678756
vt 0.321244 0.821245
vt 0.178755 0.487911
vt 0.178755 0.345422
vt 0.321244 0.345422
vt 0.321244 0.487911
vt 0.178755 0.987911
vt 0.178756 0.845422
vt 0.321244 0.845422
vt 0.321244 0.987911
vt 0.345422 0.487911
vt 0.345422 0.345422
vt 0.487911 0.345422
vt 0.487911 0.487911
vt 0.512089 0.154578
vt 0.512089 0.012089
vt 0.654578 0.012089
vt 0.654578 0.154578
vt 0.678756 0.321244
vt 0.678756 0.178756
vt 0.821245 0.178756
vt 0.821245 0.321244
vt 0.345422 0.987911
vt 0.345422 0.845422
vt 0.487911 0.845422
vt 0.487911 0.987911
vt 0.678756 0.487911
vt 0.678756 0.345422
vt 0.821244 0.345422
vt 0.821244 0.487911
vt 0.012089 0.654578
vt 0.012089 0.512089
vt 0.154578 0.512089
vt 0.154578 0.654578
vt 0.512089 0.321244
vt 0.512089 0.178756
vt 0.654578 0.178756
vt 0.654578 0.321245
vt 0.845422 0.487911
vt 0.845422 0.345422
vt 0.987911 0.345422
vt 0.987911 0.487911
vt 0.012089 0.321244
vt 0.012089 0.178756
vt 0.154578 0.178756
vt 0.154578 0.321245
vt 0.345422 0.821245
vt 0.345422 0.678756
vt 0.487911 0.678756
vt 0.487911 0.821245
vt 0.845422 0.512089
vt 0.987911 0.512089
vt 0.987911 0.654578
vt 0.845422 0.654578
vt 0.678755 0.654578
vt 0.678756 0.512089
vt 0.821244 0.512089
vt 0.821244 0.654578
vt 0.512089 0.821244
vt 0.512089 0.678756
vt 0.654578 0.678756
vt 0.654578 0.821244
vt 0.512089 0.845422
vt 0.654578 0.845422
vt 0.654578 0.987911
vt 0.512089 0.987911
vt 0.178756 0.654578
vt 0.178756 0.512089
vt 0.321244 0.512089
vt 0.321244 0.654578
vt 0.345422 0.654578
vt 0.345422 0.512089
vt 0.487911 0.512089
vt 0.487911 0.654578
vt 0.845422 0.678756
vt 0.987911 0.678756
vt 0.987911 0.821245
vt 0.845422 0.821245
vt 0.178756 0.154578
vt 0.178756 0.012089
vt 0.321245 0.012089
vt 0.321244 0.154578
vt 0.678755 0.987911
vt 0.678755 0.845422
vt 0.821244 0.845422
vt 0.821244 0.987911
vt 0.178756 0.321244
vt 0.178756 0.178755
vt 0.321244 0.178755
vt 0.321244 0.321244
vt 0.845422 0.845422
vt 0.987911 0.845422
vt 0.987911 0.987911
vt 0.845422 0.987911
vt 0.512089 0.487911
vt 0.512089 0.345422
vt 0.654578 0.345422
vt 0.654578 0.487911
vt 0.512089 0.654578
vt 0.512089 0.512089
vt 0.654578 0.512089
vt 0.654578 0.654578
s 0
usemtl Tileset
f 49/1/1 24/2/1 4/3/1 10/4/1
f 15/5/1 29/6/1 14/7/1 3/8/1
f 29/9/1 34/10/1 13/11/1 14/12/1
f 34/13/1 39/14/1 12/15/1 13/16/1
f 39/17/1 44/18/1 11/19/1 12/20/1
f 44/21/1 49/22/1 10/23/1 11/24/1
f 8/25/1 9/26/1 45/27/1 40/28/1
f 40/29/1 45/30/1 46/31/1 41/32/1
f 41/33/1 46/34/1 47/35/1 42/36/1
f 42/37/1 47/38/1 48/39/1 43/40/1
f 43/41/1 48/42/1 49/43/1 44/44/1
f 7/45/1 8/46/1 40/47/1 35/48/1
f 35/49/1 40/50/1 41/51/1 36/52/1
f 36/53/1 41/54/1 42/55/1 37/56/1
f 37/57/1 42/58/1 43/59/1 38/60/1
f 38/61/1 43/62/1 44/63/1 39/64/1
f 6/65/1 7/66/1 35/67/1 30/68/1
f 30/69/1 35/70/1 36/71/1 31/72/1
f 31/73/1 36/74/1 37/75/1 32/76/1
f 32/77/1 37/78/1 38/79/1 33/80/1
f 33/81/1 38/82/1 39/83/1 34/84/1
f 5/85/1 6/86/1 30/87/1 25/88/1
f 25/89/1 30/90/1 31/91/1 26/92/1
f 26/93/1 31/94/1 32/95/1 27/96/1
f 27/97/1 32/98/1 33/99/1 28/100/1
f 28/101/1 33/102/1 34/103/1 29/104/1
f 1/105/1 5/106/1 25/107/1 19/108/1
f 19/109/1 25/110/1 26/111/1 18/112/1
f 18/113/1 26/114/1 27/115/1 17/116/1
f 17/117/1 27/118/1 28/119/1 16/120/1
f 16/121/1 28/122/1 29/123/1 15/124/1
f 9/125/1 2/126/1 20/127/1 45/128/1
f 45/129/1 20/130/1 21/131/1 46/132/1
f 46/133/1 21/134/1 22/135/1 47/136/1
f 47/137/1 22/138/1 23/139/1 48/140/1
f 48/141/1 23/142/1 24/143/1 49/144/1
