# Blender 4.5.0
# www.blender.org
mtllib Door.mtl
g Door_Cube.002
v -0.305727 0.000000 0.112488
v -0.305727 1.033761 0.112488
v 0.305727 0.000000 0.112488
v 0.305727 1.033761 0.112488
v 0.198226 0.944497 0.107501
v 0.198226 0.548044 0.107501
v -0.240077 0.000000 0.112488
v 0.240077 0.000000 0.112488
v 0.240077 1.033761 0.112488
v -0.240077 1.033761 0.112488
v -0.305727 0.968792 0.112488
v 0.305727 0.968792 0.112488
v 0.240077 0.968792 0.112488
v -0.240077 0.968792 0.112488
v -0.198226 0.944497 0.107501
v -0.198226 0.548044 0.107501
v -0.240077 0.000000 0.088018
v 0.240077 0.000000 0.088018
v 0.240077 0.968792 0.088018
v -0.240077 0.968792 0.088018
v -0.305727 0.000000 0.000000
v -0.305727 1.033761 0.000000
v 0.305727 0.000000 0.000000
v 0.305727 1.033761 0.000000
v 0.240077 1.033761 0.000000
v -0.240077 1.033761 0.000000
v -0.240077 0.000000 0.000000
v 0.240077 0.000000 0.000000
v 0.305727 0.968792 0.000000
v -0.305727 0.968792 0.000000
v 0.198226 0.444764 0.107501
v 0.198226 0.087967 0.107501
v -0.198226 0.444764 0.107501
v -0.198226 0.087967 0.107501
v 0.066075 0.444764 0.107501
v -0.066075 0.444764 0.107501
v -0.066075 0.087967 0.107501
v 0.066075 0.087967 0.107501
v 0.198226 0.944497 0.004399
v -0.198226 0.944497 0.004399
v 0.198226 0.548044 0.004399
v -0.198226 0.548044 0.004399
v 0.198226 0.444764 0.004399
v 0.198226 0.087967 0.004399
v 0.066075 0.444764 0.004399
v 0.066075 0.087967 0.004399
v -0.198226 0.444764 0.004399
v -0.198226 0.087967 0.004399
v -0.066075 0.444764 0.004399
v -0.066075 0.087967 0.004399
v -0.158384 0.528543 0.085330
v -0.158384 0.528543 0.108647
v -0.135878 0.519221 0.085330
v -0.135878 0.519221 0.108647
v -0.126557 0.496716 0.085330
v -0.126557 0.496716 0.108647
v -0.135878 0.474211 0.085330
v -0.135878 0.474211 0.108647
v -0.158384 0.464889 0.085330
v -0.158384 0.464889 0.108647
v -0.180889 0.474211 0.085330
v -0.180889 0.474211 0.108647
v -0.190211 0.496716 0.085330
v -0.190211 0.496716 0.108647
v -0.180889 0.519221 0.085330
v -0.180889 0.519221 0.108647
vn 1.0000 -0.0000 -0.0000
vn -0.0000 -0.0000 1.0000
vn -0.0000 -1.0000 -0.0000
vn -0.0000 1.0000 -0.0000
vn -1.0000 -0.0000 -0.0000
vn 0.3827 0.9239 -0.0000
vn 0.9239 0.3827 -0.0000
vn 0.9239 -0.3827 -0.0000
vn 0.3827 -0.9239 -0.0000
vn -0.3827 -0.9239 -0.0000
vn -0.9239 -0.3827 -0.0000
vn -0.9239 0.3827 -0.0000
vn -0.3827 0.9239 -0.0000
vt 0.374980 0.099520
vt 0.374980 0.090631
vt 0.390395 0.090631
vt 0.390395 0.099520
vt 0.284771 0.099534
vt 0.284771 0.090631
vt 0.293768 0.090631
vt 0.293768 0.099534
vt 0.293598 0.247707
vt 0.284601 0.247707
vt 0.284601 0.232292
vt 0.293598 0.232292
vt 0.405810 0.165425
vt 0.405810 0.174421
vt 0.390395 0.174421
vt 0.390395 0.165425
vt 0.405810 0.090631
vt 0.405810 0.099627
vt 0.390395 0.099627
vt 0.390395 0.090631
vt 0.293597 0.263121
vt 0.284601 0.263121
vt 0.284601 0.247707
vt 0.293597 0.247707
vt 0.209977 0.099534
vt 0.209977 0.090631
vt 0.218974 0.090631
vt 0.218974 0.099534
vt 0.256344 0.286537
vt 0.256344 0.232292
vt 0.270473 0.232292
vt 0.270473 0.286537
vt 0.404524 0.174421
vt 0.404524 0.228749
vt 0.390395 0.228749
vt 0.209977 0.232292
vt 0.218974 0.232292
vt 0.284771 0.232292
vt 0.293768 0.232292
vt 0.374980 0.232076
vt 0.390395 0.232076
vt 0.293768 0.223389
vt 0.359565 0.090631
vt 0.359565 0.223389
vt 0.418652 0.307179
vt 0.418652 0.174421
vt 0.422006 0.174421
vt 0.422006 0.307179
vt 0.356212 0.289186
vt 0.356212 0.223389
vt 0.359565 0.223389
vt 0.359565 0.289186
vt 0.425359 0.174421
vt 0.425359 0.306977
vt 0.422006 0.306977
vt 0.359565 0.232292
vt 0.359565 0.099534
vt 0.374980 0.099534
vt 0.374980 0.232292
vt 0.242215 0.232292
vt 0.242215 0.286619
vt 0.228087 0.286619
vt 0.228087 0.232292
vt 0.851111 0.885927
vt 0.785738 0.885927
vt 0.785738 0.820554
vt 0.851111 0.820554
vt 0.359565 0.090631
vt 0.905253 0.889752
vt 0.905253 0.831007
vt 0.922254 0.831007
vt 0.922254 0.889752
vt 0.836741 0.885927
vt 0.836741 0.907718
vt 0.819740 0.907718
vt 0.819740 0.885927
vt 0.853742 0.885927
vt 0.853742 0.907718
vt 0.883462 0.889842
vt 0.883462 0.831007
vt 0.905253 0.889842
vt 0.684912 0.890101
vt 0.684912 0.831267
vt 0.706703 0.831267
vt 0.706703 0.890101
vt 0.802739 0.885927
vt 0.802739 0.907718
vt 0.785738 0.907718
vt 0.819740 0.907718
vt 0.802739 0.907718
vt 0.919012 0.761631
vt 0.936013 0.761631
vt 0.936013 0.820375
vt 0.919012 0.820375
vt 0.774707 0.890101
vt 0.757706 0.890101
vt 0.757706 0.831267
vt 0.774707 0.831267
vt 0.242215 0.286619
vt 0.256344 0.286619
vt 0.864913 0.890101
vt 0.864913 0.831267
vt 0.881914 0.831267
vt 0.881914 0.890101
vt 0.527809 0.831942
vt 0.513054 0.831942
vt 0.513054 0.817700
vt 0.527809 0.817700
vt 0.498299 0.846183
vt 0.513054 0.846183
vt 0.513054 0.860078
vt 0.498299 0.860078
vt 0.513054 0.874623
vt 0.498299 0.874623
vt 0.527809 0.874666
vt 0.513054 0.874666
vt 0.513054 0.860425
vt 0.527809 0.860425
vt 0.513054 0.846183
vt 0.527809 0.846183
vt 0.498299 0.846183
vt 0.498299 0.831942
vt 0.513054 0.831942
vt 0.498299 0.791385
vt 0.509199 0.780485
vt 0.524613 0.780485
vt 0.535513 0.791385
vt 0.535513 0.806800
vt 0.524613 0.817700
vt 0.509199 0.817700
vt 0.498299 0.806800
vt 0.498299 0.817700
vt 0.513054 0.817700
s 0
usemtl Aseets_Watercoolert_MAT_TEX.
f 29/1/1 24/2/1 4/3/1 12/4/1
f 14/5/2 10/6/2 2/7/2 11/8/2
f 28/9/3 23/10/3 3/11/3 8/12/3
f 26/13/4 22/14/4 2/15/4 10/16/4
f 24/17/4 25/18/4 9/19/4 4/20/4
f 25/18/4 26/13/4 10/16/4 9/19/4
f 21/21/3 27/22/3 7/23/3 1/24/3
f 12/25/2 4/26/2 9/27/2 13/28/2
f 13/28/2 9/27/2 10/6/2 14/5/2
f 41/29/1 39/30/1 5/31/1 6/32/1
f 42/33/3 41/34/3 6/35/3 16/15/3
f 3/36/2 12/25/2 13/28/2 8/37/2
f 7/38/2 14/5/2 11/8/2 1/39/2
f 23/40/1 29/1/1 12/4/1 3/41/1
f 18/42/2 19/7/2 20/43/2 17/44/2
f 8/45/5 13/46/5 19/47/5 18/48/5
f 13/49/3 14/50/3 20/51/3 19/52/3
f 14/53/1 7/54/1 17/55/1 20/47/1
f 1/56/5 11/57/5 30/58/5 21/59/5
f 39/60/4 40/61/4 15/62/4 5/63/4
f 6/64/2 5/65/2 15/66/2 16/67/2
f 11/57/5 2/68/5 22/2/5 30/58/5
f 44/69/1 43/70/1 31/71/1 32/72/1
f 46/73/3 44/74/3 32/75/3 38/76/3
f 49/77/4 47/78/4 33/74/4 36/73/4
f 37/79/2 36/80/2 33/70/2 34/81/2
f 32/82/2 31/83/2 35/84/2 38/85/2
f 43/86/4 45/87/4 35/88/4 31/65/4
f 48/76/3 50/89/3 37/90/3 34/86/3
f 49/91/1 36/92/1 37/93/1 50/94/1
f 46/95/5 38/96/5 35/97/5 45/98/5
f 16/99/5 15/60/5 40/30/5 42/100/5
f 34/101/5 33/102/5 47/103/5 48/104/5
f 51/105/6 52/106/6 54/107/6 53/108/6
f 53/109/7 54/110/7 56/111/7 55/112/7
f 55/112/8 56/111/8 58/113/8 57/114/8
f 57/115/9 58/116/9 60/117/9 59/118/9
f 59/118/10 60/117/10 62/119/10 61/120/10
f 61/110/11 62/121/11 64/122/11 63/123/11
f 54/124/2 52/125/2 66/126/2 64/127/2 62/128/2 60/129/2 58/130/2 56/131/2
f 63/123/12 64/122/12 66/132/12 65/133/12
f 65/120/13 66/119/13 52/106/13 51/105/13
