# Blender 4.5.0
# www.blender.org
mtllib Window.mtl
g Window_Cube.004
v 0.609402 0.544920 0.375037
v 0.609402 1.135406 0.375037
v 0.609402 0.544920 -0.375037
v 0.609402 1.135406 -0.375037
v 0.707109 0.623989 0.295968
v 0.707109 1.056336 0.295968
v 0.707109 0.623989 -0.295968
v 0.707109 1.056336 -0.295968
v 0.707109 1.135406 -0.375037
v 0.707109 0.544920 -0.375037
v 0.707109 0.544920 0.375037
v 0.707109 1.135406 0.375037
v 0.678106 0.804212 0.035951
v 0.678106 0.876114 0.035951
v 0.678106 1.056336 -0.035951
v 0.678106 1.056336 0.035951
v 0.678106 0.623989 -0.035951
v 0.678106 0.623989 0.035951
v 0.678106 0.876114 0.295968
v 0.678106 0.804212 0.295968
v 0.678106 0.804212 -0.295968
v 0.678106 0.876114 -0.295968
v 0.678106 1.056336 -0.295968
v 0.678106 0.623989 -0.295968
v 0.678106 1.056336 0.295968
v 0.678106 0.623989 0.295968
v 0.609402 0.876114 0.375037
v 0.609402 0.804212 0.375037
v 0.609402 0.804212 -0.375037
v 0.609402 0.876114 -0.375037
v 0.707109 0.804212 -0.375037
v 0.707109 0.876114 -0.375037
v 0.707109 0.876114 0.375037
v 0.707109 0.804212 0.375037
v 0.707109 0.876114 -0.295968
v 0.707109 0.804212 -0.295968
v 0.707109 0.804212 0.295968
v 0.707109 0.876114 0.295968
v 0.609402 0.544920 -0.035951
v 0.609402 0.544920 0.035951
v 0.609402 1.135406 -0.035951
v 0.609402 1.135406 0.035951
v 0.707109 0.544920 0.035951
v 0.707109 0.544920 -0.035951
v 0.707109 1.135406 -0.035951
v 0.707109 1.135406 0.035951
v 0.707109 0.623989 0.035951
v 0.707109 0.623989 -0.035951
v 0.707109 1.056336 0.035951
v 0.707109 1.056336 -0.035951
v 0.707109 0.876114 0.035951
v 0.707109 0.804212 0.035951
v 0.707109 0.804212 -0.035951
v 0.707109 0.876114 -0.035951
v 0.678106 0.804212 -0.035951
v 0.678106 0.876114 -0.035951
vn 1.0000 -0.0000 -0.0000
vn -0.0000 -0.0000 1.0000
vn -0.0000 -1.0000 -0.0000
vn -0.0000 1.0000 -0.0000
vn -0.0000 -0.0000 -1.0000
vt 0.199480 0.844994
vt 0.144613 0.844994
vt 0.144613 0.765834
vt 0.199480 0.765834
vt 0.554967 0.223151
vt 0.554967 0.103015
vt 0.574300 0.103015
vt 0.574300 0.223151
vt 0.334027 0.276342
vt 0.334027 0.103015
vt 0.353360 0.103015
vt 0.353360 0.276342
vt 0.353360 0.276342
vt 0.372693 0.103015
vt 0.372693 0.276342
vt 0.372694 0.276342
vt 0.372694 0.103015
vt 0.392027 0.103015
vt 0.392027 0.276342
vt 0.411360 0.103015
vt 0.411360 0.276342
vt 0.392027 0.276342
vt 0.488692 0.223151
vt 0.488692 0.103015
vt 0.508025 0.103015
vt 0.508025 0.223151
vt 0.593633 0.223151
vt 0.593633 0.103015
vt 0.612966 0.103015
vt 0.612966 0.223151
vt 0.430693 0.103015
vt 0.430693 0.276342
vt 0.411360 0.276342
vt 0.034878 0.844994
vt 0.034878 0.765834
vt 0.089745 0.765834
vt 0.089745 0.844994
vt 0.089745 0.765834
vt 0.089745 0.844994
vt 0.254348 0.765834
vt 0.254348 0.844994
vt 0.199480 0.844994
vt 0.199480 0.765834
vt 0.632300 0.103015
vt 0.632300 0.223151
vt 0.612967 0.223151
vt 0.612967 0.103015
vt 0.527358 0.103015
vt 0.527358 0.223151
vt 0.546691 0.103015
vt 0.546691 0.223151
vt 0.527358 0.223151
vt 0.527358 0.103015
vt 0.450026 0.103015
vt 0.450026 0.276342
vt 0.430693 0.276342
vt 0.430693 0.103015
vt 0.180565 0.081548
vt 0.192951 0.081548
vt 0.192951 0.093934
vt 0.180565 0.093934
vt 0.180565 0.036758
vt 0.180565 0.023138
vt 0.192951 0.023138
vt 0.192951 0.036758
vt 0.192951 0.138724
vt 0.192951 0.152344
vt 0.180565 0.152344
vt 0.180565 0.138724
vt 0.166018 0.197009
vt 0.182849 0.197009
vt 0.182849 0.209394
vt 0.166018 0.209394
vt 0.209424 0.197009
vt 0.226254 0.197009
vt 0.226254 0.209394
vt 0.209424 0.209394
vt 0.223995 0.081548
vt 0.223995 0.093934
vt 0.149520 0.093934
vt 0.135900 0.093934
vt 0.135900 0.081548
vt 0.149520 0.081548
vt 0.237616 0.081548
vt 0.237616 0.093934
vt 0.352619 0.081548
vt 0.369449 0.081548
vt 0.369449 0.093934
vt 0.352619 0.093934
vt 0.135900 0.210754
vt 0.152731 0.210754
vt 0.152731 0.223140
vt 0.135900 0.223140
vt 0.166018 0.254059
vt 0.182849 0.254059
vt 0.166018 0.152344
vt 0.182849 0.152344
vt 0.209424 0.152344
vt 0.226254 0.152344
vt 0.209424 0.254059
vt 0.226254 0.254059
vt 0.149520 0.138723
vt 0.135900 0.152344
vt 0.223995 0.138724
vt 0.237616 0.152344
vt 0.223995 0.036758
vt 0.237616 0.023138
vt 0.149520 0.036758
vt 0.135900 0.023138
vt 0.450026 0.276342
vt 0.469359 0.103015
vt 0.469359 0.276342
vt 0.488692 0.276342
vt 0.593633 0.103015
vt 0.593633 0.223151
vt 0.574300 0.223151
vt 0.574300 0.103015
vt 0.651633 0.103015
vt 0.651633 0.223151
vt 0.632300 0.223151
vt 0.632300 0.103015
vt 0.152731 0.281550
vt 0.135900 0.281550
vt 0.152731 0.152344
vt 0.369449 0.152344
vt 0.352619 0.152344
vt 0.352619 0.023138
vt 0.369449 0.023138
s 0
usemtl Aseets_Carn_Plant_MAT_TEX
f 18/1/1 13/2/1 20/3/1 26/4/1
f 7/5/2 36/6/2 21/7/2 24/8/2
f 52/9/3 37/10/3 20/11/3 13/12/3
f 36/13/3 53/11/3 55/14/3 21/15/3
f 49/16/3 6/17/3 25/18/3 16/19/3
f 54/20/4 35/21/4 22/22/4 56/18/4
f 51/23/2 49/24/2 16/25/2 14/26/2
f 47/27/2 52/28/2 13/29/2 18/30/2
f 5/31/4 47/32/4 18/33/4 26/20/4
f 23/34/1 15/35/1 56/36/1 22/37/1
f 25/38/1 19/3/1 14/2/1 16/39/1
f 17/40/1 24/41/1 21/42/1 55/43/1
f 53/44/5 48/45/5 17/46/5 55/47/5
f 35/26/2 8/25/2 23/48/2 22/49/2
f 50/50/5 54/51/5 56/52/5 15/53/5
f 38/54/4 51/55/4 14/56/4 19/57/4
f 51/58/1 52/59/1 53/60/1 54/61/1
f 38/62/1 33/63/1 34/64/1 37/65/1
f 36/66/1 31/67/1 32/68/1 35/69/1
f 33/70/2 27/71/2 28/72/2 34/73/2
f 51/58/1 38/62/1 37/65/1 52/59/1
f 30/74/5 32/75/5 31/76/5 29/77/5
f 35/69/1 54/61/1 53/60/1 36/66/1
f 52/59/1 47/78/1 48/79/1 53/60/1
f 50/80/1 45/81/1 46/82/1 49/83/1
f 47/78/1 43/84/1 44/85/1 48/79/1
f 42/86/4 46/87/4 45/88/4 41/89/4
f 43/90/3 40/91/3 39/92/3 44/93/3
f 49/83/1 51/58/1 54/61/1 50/80/1
f 11/94/2 34/73/2 28/72/2 1/95/2
f 33/70/2 12/96/2 2/97/2 27/71/2
f 30/74/5 4/98/5 9/99/5 32/75/5
f 3/100/5 29/77/5 31/76/5 10/101/5
f 8/102/1 35/69/1 32/68/1 9/103/1
f 36/66/1 7/104/1 10/105/1 31/67/1
f 5/106/1 37/65/1 34/64/1 11/107/1
f 38/62/1 6/108/1 12/109/1 33/63/1
f 8/110/3 50/54/3 15/111/3 23/112/3
f 48/24/4 7/113/4 24/112/4 17/111/4
f 6/114/5 38/115/5 19/116/5 25/117/5
f 37/118/5 5/119/5 26/120/5 20/121/5
f 3/122/3 10/123/3 44/93/3 39/92/3
f 40/91/3 43/90/3 11/103/3 1/124/3
f 9/125/4 4/126/4 41/89/4 45/88/4
f 46/87/4 42/86/4 2/127/4 12/128/4
f 7/104/1 48/79/1 44/85/1 10/105/1
f 47/78/1 5/106/1 11/107/1 43/84/1
f 6/108/1 49/83/1 46/82/1 12/109/1
f 50/80/1 8/102/1 9/103/1 45/81/1
